<svg width="383" height="135" viewBox="0 0 383 135" xmlns="http://www.w3.org/2000/svg">
<path fill-rule="evenodd" clip-rule="evenodd" d="M65.3134 0L37.573 52.5388L170.621 0H173.343L42.3424 51.7305L282.583 0H287.333L36.8607 53.9338L13.0948 110.873L38.7786 135H37.3181L12.484 111.671L0 122.323V121.008L10.9386 111.675L0 112.879V111.873L11.9456 110.558L2.2229 26.4189L0 24.6211V23.335L2.05896 25.0002L0 7.18262V0H1.11169L36.4482 52.5273L64.1826 0H65.3134ZM3.33325 27.3171L12.7767 109.039L35.8943 53.6533L3.33325 27.3171ZM34.2291 51.0203L3.16931 25.8984L0.232666 0.484863L34.2291 51.0203Z" fill="#D58131"/>
<path d="M0 132.819V133.892L2.84412 135H5.59973L0 132.819Z" fill="#D58131"/>
<path d="M374.322 135H373.298L358.488 67.501L370.23 13.0618L326.981 0H330.44L370.442 12.0808L373.047 0H374.07L371.402 12.3711L383 15.8738V16.9185L371.191 13.3518L360.286 63.9104L383 19.7925V21.9771L360.129 66.3999L383 55.3586V56.4692L359.573 67.7786L374.322 135Z" fill="#D58131"/>
</svg>
