<svg version="1" xmlns="http://www.w3.org/2000/svg" width="346.667" height="346.667" viewBox="0 0 260.000000 260.000000"><path d="M115 .6c-11.8 1.7-17.9 3.1-27 6-5.8 1.9-11.1 3.8-11.8 4.2-1 .7.6 4.4 6.8 15.6 4.5 8.1 8 14.9 7.8 15-.1.2-17.2-5.7-37.7-13-20.6-7.3-37.6-13.2-37.8-13.1-.1.2 20.9 21.1 46.7 46.5l46.8 46.2 2.1-2.6c8.6-10.9 25.1-16 38.9-11.9 9.5 2.9 15.1 10.2 15.2 19.8v4.8l-7.2-.3c-6.4-.3-7.3-.5-7.6-2.3-.7-4.4-2.6-7.7-5.3-9-3.9-2.1-11.3-1.9-15.8.4-4 2.1-10.1 8.3-10.1 10.4 0 .7 5.6 6.8 12.5 13.7 9.8 9.8 12.7 12.2 13.7 11.2 1.3-1.3 14.8-1.7 14.8-.5 0 .5-1.4 3.3-3 6.2l-3 5.5 5.7 5.8c3.5 3.6 6 5.4 6.2 4.6.3-.7 3.7-16.6 7.6-35.3l7.1-34h21.5c23.8 0 25.6.4 29.6 6.4 4.3 6.4 2.4 16.1-4.5 22.8-4.1 4.1-4.2 4.2-2.2 5.3 2.4 1.3 5 6.7 5 10.3 0 9.3-7.1 19.7-16.3 23.8-4.7 2.1-7 2.4-26 2.9l-20.7.5 25.5 25.5 25.4 25.4 2.7-2.4c4.5-4.3 12.4-14.8 17.5-23.1 18.6-31.1 22.6-72.7 10.3-107.1-6.4-17.8-16-32.7-30.3-46.9-15.7-15.7-30.1-24.6-50.4-31.4-15.6-5.2-39.2-7.8-52.7-5.9zM36.6 48.2c-29.8 33.9-39.5 80-25.9 123.2 6 19.3 16 35.5 31.2 50.6 19.6 19.5 40.4 30.4 67.6 35.5 16.8 3.2 40.7 1.9 58-3.1 4.4-1.2 15.4-5.3 16.3-6 .2-.1-3.3-6.8-7.8-14.9-4.5-8.1-7.9-14.9-7.7-15.2.3-.3 17.1 5.4 37.4 12.5 20.2 7.2 36.8 13 37 12.9.1-.1-20-20.1-44.7-44.4L153.2 155l-3.8 3.6c-6.3 5.9-13.6 8.8-22.9 9.2-10.5.5-15.6-1-21-5.9-6.1-5.7-7.9-11.4-7.2-23.3.5-9.1 2.5-16.5 6.9-25.3l2.2-4.4-33-33-33.1-33.1-4.7 5.4zm39.5 44.9c5.5 1.7 10.8 6.5 13.5 12.3 4.4 9.4 2.8 27-3.7 39.8-4.1 8-11.8 16.1-18.7 19.5-6.6 3.2-20.3 4.4-26.8 2.3-9.1-2.9-15.4-11.6-15.4-21.3V141h14.8l.6 3.5c2.1 11 14.6 13.7 24.2 5.3 3.2-2.9 8.4-11.3 8.4-13.8 0-.6-3.8-1-10.1-1-7.8 0-10-.3-9.6-1.3.2-.7 1-3.8 1.7-7l1.1-5.7h20.1l-.7-3.8c-1.6-8.5-7.2-12.9-15-11.7-5.4.8-10.3 4-13.4 8.8l-2.4 3.7H29.8l.6-2.8c2-8 13.2-18.7 22.7-21.7 5.4-1.7 17.9-1.9 23-.4z"/><path d="M191.6 112.8c-.9 3.9-1.6 7.6-1.6 8.1 0 .7 3.8 1.1 10.5 1.1 14.3 0 18.5-2.3 18.5-9.8 0-4.8-2.1-5.7-14.5-6.1l-11.3-.3-1.6 7zM116.3 123.5c-1.3 2.9-1.7 6.7-1.8 13.7 0 11.3 1.5 14.3 8.2 16.7 5.5 2 11.9.2 16.7-4.7 2-1.9 3.6-3.8 3.6-4.1 0-.4-5.6-6.2-12.5-13.1l-12.4-12.4-1.8 3.9zM186 139.6c-.6 3.3-1.6 7.5-2.1 9.4-.5 1.9-.9 3.9-.9 4.4 0 .4 5.1.6 11.3.4 12.9-.4 16.5-1.8 19.1-7.2 2.1-4.4 2-6.8-.3-9.7-1.8-2.2-2.7-2.4-13.9-2.8l-12-.3-1.2 5.8z"/></svg>