<svg width="34" height="40" viewBox="0 0 34 40" xmlns="http://www.w3.org/2000/svg">
<path d="M33.4082 0H6.90257C6.57583 0 6.3109 0.26289 6.3109 0.587107V3.13116H3.74708C3.42034 3.13116 3.15541 3.39405 3.15541 3.71827V6.26232H0.591669C0.264932 6.26232 0 6.52521 0 6.84943V39.4129C0 39.7371 0.264932 40 0.591669 40H27.0973C27.4241 40 27.689 39.7371 27.689 39.4129V36.8688H30.2528C30.5796 36.8688 30.8445 36.6059 30.8445 36.2817V33.7377H33.4083C33.7351 33.7377 34 33.4748 34 33.1506V0.587107C33.9998 0.26289 33.7349 0 33.4082 0ZM26.5057 38.8257H1.18334V7.43638H19.0115V14.2856C19.0115 14.6099 19.2765 14.8728 19.6032 14.8728H26.5057V38.8257ZM20.1948 13.6985V8.26653L25.669 13.6985H20.1948ZM32.8165 32.5635H30.8444V20.3913C30.8444 20.0671 30.5794 19.8042 30.2527 19.8042C29.9259 19.8042 29.661 20.0671 29.661 20.3913V35.6946H27.6889V14.2856C27.6889 14.1318 27.6252 13.9792 27.5156 13.8706L20.0214 6.43419C19.9118 6.32537 19.7581 6.26224 19.6031 6.26224H4.33875V4.3053H29.6611V17.5342C29.6611 17.8584 29.926 18.1213 30.2528 18.1213C30.5795 18.1213 30.8444 17.8584 30.8444 17.5342V3.71819C30.8444 3.39397 30.5795 3.13108 30.2528 3.13108H7.49416V1.17414H32.8165V32.5635Z"/>
</svg>
