<svg width="40" height="40" viewBox="0 0 40 40" xmlns="http://www.w3.org/2000/svg">
<path d="M11.9997 4.00049H3.33301V5.3338H11.9997V4.00049Z"/>
<path d="M11.9997 6.66724H3.33301V8.00055H11.9997V6.66724Z"/>
<path d="M9.33301 9.33374H3.33301V10.6671H9.33301V9.33374Z"/>
<path d="M9.33301 12.0005H3.33301V13.3338H9.33301V12.0005Z"/>
<path d="M40 38.6667H0V40.0001H40V38.6667Z"/>
<path d="M38.597 5.70247L35.9304 0.369208C35.7659 0.0397121 35.3657 -0.0941194 35.0362 0.070295C35.0364 0.0702117 35.036 0.0703783 35.0362 0.070295L29.7024 2.73718C29.3729 2.90176 29.2391 3.30233 29.4037 3.63183C29.5683 3.96133 29.9689 4.09507 30.2984 3.93049L34.161 2.00052L33.107 5.00981C28.4743 18.2036 16.5419 27.4598 2.61035 28.6668L2.72368 30.0001C17.1801 28.7478 29.5615 19.1415 34.3664 5.4498L35.4424 2.37518L37.4037 6.29846C37.5683 6.62796 37.9689 6.7617 38.2984 6.59712C38.6279 6.43254 38.7616 6.03205 38.597 5.70247Z"/>
<path d="M8.00033 32.0002H3.33366C2.96549 32.0002 2.66699 32.2987 2.66699 32.6669V36.6668C2.66699 37.035 2.96549 37.3335 3.33366 37.3335H8.00033C8.36849 37.3335 8.66699 37.035 8.66699 36.6668V32.6669C8.66699 32.2987 8.36849 32.0002 8.00033 32.0002ZM7.33366 36.0002H4.00033V33.3336H7.33366V36.0002Z"/>
<path d="M15.3333 30.0002H10.6667C10.2985 30.0002 10 30.2987 10 30.6669V36.6668C10 37.035 10.2985 37.3335 10.6667 37.3335H15.3333C15.7015 37.3335 16 37.035 16 36.6668V30.6669C16 30.2987 15.7015 30.0002 15.3333 30.0002ZM14.6667 36.0002H11.3333V31.3336H14.6667V36.0002Z"/>
<path d="M22.6663 26.6667H17.9997C17.6315 26.6667 17.333 26.9652 17.333 27.3334V36.6666C17.333 37.0348 17.6315 37.3333 17.9997 37.3333H22.6663C23.0345 37.3333 23.333 37.0348 23.333 36.6666V27.3334C23.333 26.9652 23.0345 26.6667 22.6663 26.6667ZM21.9997 36H18.6663V28.0001H21.9997V36Z"/>
<path d="M30.0003 22.0002H25.3337C24.9655 22.0002 24.667 22.2987 24.667 22.6669V36.6667C24.667 37.0349 24.9655 37.3334 25.3337 37.3334H30.0003C30.3685 37.3334 30.667 37.0349 30.667 36.6667V22.6669C30.667 22.2987 30.3685 22.0002 30.0003 22.0002ZM29.3337 36.0001H26.0003V23.3336H29.3337V36.0001Z"/>
<path d="M37.3333 12.667H32.6667C32.2985 12.667 32 12.9655 32 13.3336V36.6667C32 37.0348 32.2985 37.3333 32.6667 37.3333H37.3333C37.7015 37.3333 38 37.0348 38 36.6667V13.3336C38 12.9655 37.7015 12.667 37.3333 12.667ZM36.6667 36H33.3333V14.0003H36.6667V36Z"/>
</svg>
