<svg width="40" height="40" viewBox="0 0 40 40" xmlns="http://www.w3.org/2000/svg">
<path d="M40 3.62022C40.0023 2.68299 39.6442 1.78077 38.9999 1.10011C38.3289 0.400474 37.4025 0.00342562 36.4331 6.6096e-05C35.392 -0.00594979 34.3906 0.398911 33.6463 1.12676L30.5194 4.24689L26.4723 0.193434C26.4163 0.137885 26.3509 0.0927264 26.279 0.0600687H26.219C26.1622 0.0315518 26.1015 0.0113947 26.039 6.6096e-05H8.70449C6.84179 0.00741016 5.33458 1.51748 5.3309 3.38021V29.0213L4.91087 29.4347C4.8772 29.4734 4.84814 29.516 4.82423 29.5613C4.82423 29.5613 4.79087 29.5613 4.77758 29.6147L0.0705446 39.0351C-0.0941542 39.3644 0.0393706 39.7649 0.36869 39.9296C0.570344 40.0305 0.809345 40.0225 1.00389 39.9085L6.22425 36.8884C6.86031 37.5919 7.76263 37.9959 8.71106 38.0018H31.1926C33.0569 38.0018 34.5692 36.4925 34.5728 34.6283L34.6662 19.3343V12.3606L36.3397 10.6672C36.7124 10.2914 36.921 9.78307 36.9197 9.25375C36.9179 8.95577 36.8496 8.66193 36.7197 8.39371L38.9198 6.18698C39.6065 5.50882 39.9951 4.58526 40 3.62022ZM26.6657 2.27352L29.6126 5.18701L27.3324 7.45375C26.91 7.06912 26.6681 6.52504 26.6657 5.95368V2.27352ZM6.66435 3.38021C6.66435 2.24985 7.58075 1.33348 8.71113 1.33348H25.3323V5.95368C25.333 6.87263 25.7087 7.7515 26.3723 8.38715L19.2852 15.3341H9.33118C8.96295 15.3341 8.66449 15.6325 8.66449 16.0008C8.66449 16.369 8.96295 16.6674 9.33118 16.6674H17.9318L16.5983 18.0008H9.33118C8.96295 18.0008 8.66449 18.2993 8.66449 18.6675C8.66449 19.0357 8.96295 19.3342 9.33118 19.3342H15.2116L13.8781 20.6676H9.33118C8.96295 20.6676 8.66449 20.9661 8.66449 21.3343C8.66449 21.7025 8.96295 22.0009 9.33118 22.0009H12.4914L11.1579 23.3344H9.33118C8.96295 23.3344 8.66449 23.6328 8.66449 24.001C8.66449 24.3692 8.96295 24.6677 9.33118 24.6677H9.77121L6.66435 27.7145V3.38021ZM6.66435 29.5813L27.3724 9.27383L29.7326 11.6339L23.6122 17.7608C23.3536 18.0208 23.3536 18.4409 23.6122 18.7009L24.0788 19.1675L9.6312 33.2149L6.66435 30.2481V29.5813ZM25.9657 17.2875L26.9124 18.2341L25.9657 19.1808L25.019 18.2341L25.9657 17.2875ZM2.25741 37.6417L5.55764 31.0348L8.53784 34.0015L2.25741 37.6417ZM33.3328 19.3343L33.2394 34.6283C33.2358 35.7561 32.3205 36.6684 31.1927 36.6684H8.71113C8.2254 36.676 7.75271 36.5106 7.37768 36.2017L9.9245 34.7283C9.97294 34.7006 10.0178 34.667 10.0579 34.6283L20.3319 24.6679H29.9992C30.3675 24.6679 30.6659 24.3694 30.6659 24.0012C30.6659 23.633 30.3675 23.3345 29.9992 23.3345H21.7054L25.039 20.1144L25.519 20.5944C25.6136 20.6982 25.7454 20.7605 25.8857 20.7678H25.9857C26.0492 20.7656 26.112 20.7544 26.1723 20.7344H26.239C26.3214 20.7007 26.3962 20.6508 26.459 20.5878L33.3328 13.6941V19.3343ZM35.3902 9.73658C35.3867 9.74018 35.3832 9.74369 35.3797 9.74713L35.3863 9.76049L27.8458 17.3008L26.8991 16.3541L33.9196 9.33383H33.9996C34.2687 9.3325 34.5107 9.16945 34.613 8.92045C34.6471 8.84029 34.6652 8.75419 34.6663 8.66708C34.7369 8.64146 34.8113 8.62794 34.8864 8.62708H34.9464C35.0076 8.62989 35.0682 8.64107 35.1264 8.66044H35.1797C35.254 8.6924 35.3217 8.73755 35.3798 8.79381C35.6429 9.05116 35.6477 9.47329 35.3902 9.73658ZM38.6665 3.62686C38.672 4.24064 38.432 4.83113 37.9999 5.26693L35.8063 7.46703H35.733L35.6263 7.42703L35.3863 7.36038H35.2797C35.1776 7.35257 35.075 7.35257 34.973 7.36038H34.933C34.8177 7.35038 34.7017 7.35038 34.5863 7.36038H34.493L34.2463 7.43375L34.1397 7.48039L33.913 7.6004L33.8196 7.6604C33.7171 7.72915 33.6211 7.80728 33.533 7.89377L33.333 8.00041L30.6661 10.6672L28.3193 8.33371L34.5596 2.09344C35.045 1.59349 35.7165 1.31817 36.4131 1.33341C37.0096 1.33622 37.5804 1.57607 37.9999 2.00007C38.4205 2.42728 38.6594 3.00067 38.6665 3.60014V3.62686Z"/>
</svg>
