<svg width="40" height="40" viewBox="0 0 40 40" xmlns="http://www.w3.org/2000/svg">
<path d="M40 18.3248L39.9998 5.40061C39.9999 2.42265 37.5772 0 34.5992 0H21.6751C21.4541 0 21.2422 0.0878123 21.0859 0.244062L18.5596 2.77039C18.1276 2.73445 17.6918 2.70539 17.2526 2.68414C11.6943 2.41492 6.9512 3.38445 5.16932 5.15397C4.45549 5.86296 4.329 6.57577 4.34845 7.04874C4.41908 8.75514 6.46081 10.29 9.99824 11.3316L1.57626 19.7536C0.559768 20.7701 0 22.1264 0 23.5725C0 25.0186 0.559846 26.3748 1.57626 27.3911L12.5184 38.3333H11.6667C11.2065 38.3333 10.8333 38.7063 10.8333 39.1666C10.8333 39.6268 11.2064 40 11.6667 40H28.3332C28.7934 40 29.1666 39.6269 29.1666 39.1666C29.1666 38.7064 28.7935 38.3333 28.3332 38.3333H20.3366L39.7559 18.9142C39.9123 18.7578 40 18.5458 40 18.3248ZM6.01377 6.97983C6.01073 6.90491 6.00127 6.67671 6.34385 6.33647C7.49292 5.1953 11.3077 4.09366 16.9887 4.34124L11.3561 9.97389C7.49175 9.0017 6.04174 7.65553 6.01377 6.97983ZM19.0678 37.245C18.3662 37.9467 17.4283 38.3332 16.4275 38.3332C15.4265 38.3332 14.4888 37.9468 13.7872 37.245L2.7547 26.2125C2.05298 25.511 1.66649 24.5733 1.66649 23.5724C1.66649 22.5714 2.05298 21.6337 2.7547 20.9321L19.1837 4.50327C21.5951 4.75546 23.8213 5.24054 25.5941 5.91108C26.7698 6.35585 27.5627 6.81514 28.0601 7.22842C27.4596 7.83163 27.0876 8.66272 27.0876 9.57928C27.0876 9.83779 27.1182 10.0893 27.1742 10.331C27.1779 10.3515 27.1829 10.3718 27.1883 10.392C27.1904 10.4007 27.1924 10.4094 27.1946 10.4181L27.1953 10.4201C27.5689 11.8523 28.8733 12.9125 30.4209 12.9125C32.2588 12.9125 33.7541 11.4172 33.7541 9.5792C33.7541 7.74116 32.2589 6.24577 30.4209 6.24577C30.1253 6.24577 29.8387 6.28491 29.5657 6.35749C28.8598 5.61171 27.7233 4.93452 26.1837 4.35218C24.6144 3.75859 22.7249 3.30171 20.6777 3.00937L22.0202 1.66672H34.5991C36.658 1.66672 38.3331 3.34179 38.3331 5.40069L38.3333 17.9797L19.0678 37.245ZM30.4149 8.161C30.4114 8.07819 30.4029 7.99592 30.3906 7.91397C30.4007 7.91381 30.4107 7.91241 30.4209 7.91241C31.3398 7.91241 32.0874 8.66014 32.0874 9.57912C32.0874 10.498 31.3398 11.2457 30.4209 11.2457C29.8478 11.2457 29.3414 10.9548 29.0414 10.513C30.2035 9.6874 30.4412 8.79991 30.4149 8.161Z"/>
<path d="M35.7399 7.04135C35.3007 7.17893 35.0562 7.64651 35.1938 8.08565C35.3453 8.5694 35.4222 9.07182 35.4222 9.57908C35.4222 12.336 33.1793 14.5788 30.4224 14.5788C27.6654 14.5788 25.4226 12.336 25.4226 9.57908C25.4226 9.11885 25.0495 8.74572 24.5892 8.74572C24.129 8.74572 23.7559 9.11877 23.7559 9.57908C23.7559 13.2549 26.7464 16.2455 30.4224 16.2455C34.0982 16.2455 37.0887 13.2549 37.0887 9.57908C37.0887 8.90268 36.9863 8.23252 36.7841 7.58744C36.6466 7.14823 36.179 6.9037 35.7399 7.04135Z"/>
<path d="M34.6292 6.37203C34.8368 6.37203 35.0447 6.29485 35.2065 6.13961C35.5383 5.82078 35.5489 5.29329 35.2301 4.96133C35.0933 4.81891 34.9495 4.6818 34.8025 4.55391C34.4553 4.25165 33.929 4.28813 33.6267 4.63524C33.3245 4.98235 33.3609 5.50868 33.7081 5.81094C33.8179 5.90649 33.9255 6.00922 34.0282 6.11594C34.1918 6.28633 34.4102 6.37203 34.6292 6.37203Z"/>
<path d="M24.3133 25.6213C24.467 25.4058 24.6045 25.1842 24.7214 24.9597C25.4678 23.5262 25.3302 21.7675 24.3709 20.4794C23.5025 19.3134 22.1589 18.7755 20.7767 19.0407C19.7871 19.2305 18.8436 19.7658 17.9312 20.2835C17.7217 20.4024 17.5237 20.5148 17.3246 20.6235C16.1046 21.2892 14.9398 21.3362 14.2087 20.7492C13.6053 20.2647 13.4045 19.4252 13.6713 18.5035C13.7484 18.2375 13.8852 17.978 14.0654 17.7303L15.4438 19.1088C15.6065 19.2715 15.8198 19.3529 16.0331 19.3529C16.2463 19.3529 16.4595 19.2716 16.6222 19.1088C16.9476 18.7835 16.9477 18.2559 16.6222 17.9303L15.293 16.6009C15.8929 16.2041 16.5757 15.902 17.2074 15.7469C17.6544 15.637 17.9276 15.1856 17.8177 14.7386C17.7078 14.2916 17.2564 14.0183 16.8094 14.1284C15.9204 14.3469 14.939 14.7828 14.0903 15.398L13.4535 14.7612C13.1282 14.4359 12.6006 14.4358 12.275 14.7612C11.9495 15.0865 11.9495 15.6141 12.2749 15.9397L12.8738 16.5387C12.5109 16.9903 12.2288 17.4927 12.0703 18.0399C11.6168 19.6062 12.0362 21.1423 13.1652 22.0487C14.4388 23.0713 16.2921 23.0855 18.1228 22.0865C18.1868 22.0516 18.2509 22.0155 18.315 21.9799L22 25.6648C21.1987 26.2947 20.2892 26.6028 19.7239 26.4237C19.285 26.2847 18.8167 26.5278 18.6778 26.9666C18.5388 27.4054 18.7818 27.8737 19.2206 28.0126C19.5015 28.1015 19.7928 28.143 20.0892 28.143C21.1446 28.1429 22.2618 27.6177 23.18 26.8447L24.06 27.7248C24.2227 27.8876 24.436 27.9689 24.6491 27.9689C24.8625 27.9689 25.0757 27.8875 25.2383 27.7248C25.5637 27.3994 25.5637 26.8719 25.2384 26.5463L24.3133 25.6213ZM23.2432 24.1898C23.2023 24.2683 23.1582 24.3449 23.1125 24.4205L19.8364 21.1442C20.2709 20.9278 20.6962 20.7532 21.0906 20.6776C21.8414 20.5337 22.5496 20.8242 23.0343 21.4749C23.6144 22.2538 23.6963 23.3195 23.2432 24.1898Z"/>
<path d="M10.6649 28.417C10.3396 28.0915 9.8119 28.0913 9.48635 28.4166C9.16088 28.742 9.1608 29.2696 9.48611 29.5952L9.82705 29.9363C9.98979 30.0991 10.2032 30.1805 10.4165 30.1805C10.6297 30.1805 10.8429 30.0993 11.0056 29.9366C11.331 29.6113 11.3313 29.0837 11.0059 28.7581L10.6649 28.417Z"/>
<path d="M18.1948 32.4112L16.4269 34.179L12.8914 30.6433C12.566 30.318 12.0383 30.318 11.7129 30.6433C11.3874 30.9687 11.3874 31.4963 11.7128 31.8219L15.2485 35.3576C15.5734 35.6824 16.0001 35.8449 16.427 35.8449C16.8537 35.8449 17.2806 35.6825 17.6056 35.3576L19.3734 33.5897C19.6988 33.2644 19.6988 32.7367 19.3734 32.4112C19.0479 32.0857 18.5202 32.0857 18.1948 32.4112Z"/>
</svg>
