<svg width="40" height="40" viewBox="0 0 40 40" xmlns="http://www.w3.org/2000/svg">
<path d="M38.9997 23.2817C38.9996 23.2686 38.9987 23.2554 38.9977 23.2423C38.9972 23.2359 38.997 23.2295 38.9963 23.2233C38.9951 23.2122 38.9932 23.2011 38.9914 23.19C38.99 23.1816 38.9888 23.1732 38.9871 23.165C38.9854 23.157 38.983 23.1489 38.981 23.1409C38.9782 23.1298 38.9755 23.1188 38.9721 23.108C38.9703 23.1022 38.968 23.0964 38.9659 23.0906C38.9614 23.078 38.9569 23.0654 38.9515 23.0532C38.9509 23.0518 38.9505 23.0503 38.9499 23.0489L34.5468 13.0699H37.7714C38.3321 13.0699 38.7883 12.6037 38.7883 12.0307V10.6515C38.7883 10.0784 38.3321 9.61227 37.7714 9.61227H32.5821C31.5976 9.61227 30.6834 9.20719 30.008 8.47164C28.8512 7.21172 27.1776 6.48906 25.4163 6.48906H21.8379V5.20367C22.4733 4.66367 22.8785 3.85016 22.8785 2.94164C22.8785 1.31961 21.5871 0 19.9999 0C18.4127 0 17.1213 1.31961 17.1213 2.94164C17.1213 3.85016 17.5266 4.66359 18.162 5.20367V6.48906H14.5836C12.8223 6.48906 11.1487 7.21172 9.99175 8.47172C9.31646 9.20727 8.40233 9.61234 7.41779 9.61234H2.22842C1.66765 9.61234 1.21146 10.0785 1.21146 10.6516V12.0308C1.21146 12.6038 1.66765 13.07 2.22842 13.07H5.44152L1.04969 23.0495C1.04908 23.0509 1.04862 23.0524 1.04801 23.0539C1.04289 23.0657 1.03853 23.0779 1.03417 23.0902C1.03196 23.0963 1.02951 23.1024 1.0276 23.1086C1.02431 23.119 1.02171 23.1296 1.01896 23.1403C1.01682 23.1488 1.01437 23.1571 1.01261 23.1655C1.01101 23.1734 1.00994 23.1814 1.00864 23.1893C1.00673 23.2008 1.00474 23.2122 1.00352 23.2237C1.00291 23.2296 1.00268 23.2357 1.00222 23.2417C1.00122 23.2552 1.00031 23.2686 1.00023 23.282C1.00023 23.2835 1 23.285 1 23.2865V23.8542C1 26.7395 3.29706 29.0869 6.12056 29.0869H6.55878C9.38228 29.0869 11.6793 26.7395 11.6793 23.8542V23.2865C11.6793 23.2848 11.6791 23.2832 11.6791 23.2815C11.679 23.2686 11.6781 23.2557 11.6772 23.2428C11.6767 23.2362 11.6765 23.2295 11.6758 23.223C11.6747 23.2122 11.6728 23.2013 11.6709 23.1904C11.6696 23.1819 11.6683 23.1733 11.6666 23.1649C11.6649 23.1569 11.6626 23.149 11.6605 23.1409C11.6577 23.1298 11.655 23.1188 11.6515 23.1079C11.6497 23.102 11.6473 23.0963 11.6452 23.0905C11.6408 23.0779 11.6362 23.0654 11.631 23.0533C11.6304 23.0518 11.63 23.0503 11.6293 23.0488L7.2262 13.0699H7.63101C9.39214 13.0699 11.0657 12.3473 12.2225 11.0873C12.8978 10.3517 13.812 9.94664 14.7965 9.94664H18.162V32.987H12.3383C11.3851 32.987 10.6096 33.7795 10.6096 34.7535V35.7827H9.62242C8.65286 35.7827 7.86411 36.5888 7.86411 37.5795V39.4219C7.86411 39.7412 8.11739 40 8.42985 40H31.5699C31.8824 40 32.1357 39.7412 32.1357 39.4219V37.5795C32.1357 36.5887 31.3469 35.7827 30.3774 35.7827H29.3902V34.7534C29.3902 33.7794 28.6147 32.987 27.6616 32.987H21.8379V16.2748C21.8379 15.9555 21.5846 15.6967 21.2722 15.6967C20.9597 15.6967 20.7064 15.9555 20.7064 16.2748V32.987H19.2934V9.94664H20.7064V12.6173C20.7064 12.9366 20.9597 13.1955 21.2722 13.1955C21.5846 13.1955 21.8379 12.9366 21.8379 12.6173V9.94664H25.4274C26.2366 9.94664 27.0291 10.2952 27.6017 10.9032C28.9181 12.3004 30.6868 13.0699 32.5821 13.0699H32.7622L28.3704 23.0495C28.3697 23.0508 28.3694 23.0521 28.3688 23.0534C28.3634 23.0659 28.3587 23.0787 28.3542 23.0917C28.3523 23.0972 28.3501 23.1026 28.3483 23.1081C28.3448 23.1192 28.342 23.1305 28.3392 23.1419C28.3372 23.1496 28.335 23.1573 28.3334 23.1651C28.3316 23.1735 28.3304 23.1821 28.329 23.1907C28.3272 23.2016 28.3253 23.2124 28.3241 23.2234C28.3234 23.2298 28.3232 23.2362 28.3227 23.2427C28.3217 23.2558 28.3209 23.2688 28.3208 23.2818C28.3208 23.2834 28.3206 23.2849 28.3206 23.2865V23.8542C28.3206 26.7395 30.6176 29.0869 33.4411 29.0869H33.8794C36.7029 29.0869 39 26.7395 39 23.8542V23.2865C38.9999 23.2849 38.9997 23.2834 38.9997 23.2817ZM19.9999 1.15617C20.9634 1.15617 21.7471 1.95711 21.7471 2.94156C21.7471 3.57352 21.4238 4.12938 20.9377 4.4468C20.9164 4.4607 20.8949 4.47406 20.8732 4.48695C20.8621 4.49359 20.851 4.50031 20.8397 4.50672C20.8098 4.52352 20.7795 4.53945 20.7488 4.55438C20.738 4.55961 20.7271 4.56445 20.7162 4.56945C20.6917 4.5807 20.6671 4.59141 20.6423 4.60148C20.6317 4.60578 20.6213 4.61016 20.6107 4.61422C20.5774 4.62687 20.544 4.63859 20.51 4.64922C20.5011 4.65203 20.4919 4.65445 20.4829 4.65711C20.4545 4.66547 20.426 4.67305 20.3972 4.67992C20.3876 4.68219 20.3781 4.68461 20.3683 4.68672C20.3321 4.69469 20.2957 4.70164 20.259 4.70727C20.253 4.7082 20.2469 4.70883 20.2408 4.70961C20.2089 4.71414 20.1768 4.71766 20.1446 4.72039C20.1346 4.72125 20.1244 4.72211 20.1142 4.72273C20.0763 4.72523 20.0382 4.72695 20 4.72695C19.9618 4.72695 19.9237 4.72523 19.8858 4.72273C19.8756 4.72203 19.8654 4.72117 19.8554 4.72039C19.8232 4.71766 19.7911 4.71414 19.7593 4.70961C19.7531 4.70875 19.747 4.70813 19.7409 4.70719C19.7042 4.70156 19.6678 4.69461 19.6317 4.68664C19.6219 4.68445 19.6122 4.68203 19.6025 4.67977C19.5739 4.67297 19.5455 4.66539 19.5174 4.65711C19.5082 4.65437 19.4989 4.65195 19.4897 4.64906C19.456 4.63852 19.4226 4.62687 19.3895 4.61422C19.3785 4.61008 19.3678 4.60547 19.357 4.60109C19.3325 4.59117 19.3083 4.5807 19.2843 4.56961C19.2731 4.56445 19.2618 4.55945 19.2507 4.55406C19.2203 4.53922 19.1902 4.52352 19.1606 4.50688C19.1489 4.50023 19.1373 4.4932 19.1257 4.48633C19.1046 4.47383 19.0837 4.46086 19.0632 4.44742C18.5765 4.13016 18.2528 3.57391 18.2528 2.94156C18.2528 1.95711 19.0366 1.15617 19.9999 1.15617ZM20.7065 5.79367V6.48906H19.2935V5.79367C19.3028 5.79609 19.3122 5.79766 19.3215 5.79992C19.3642 5.81055 19.4073 5.82023 19.4507 5.82883C19.4649 5.83164 19.4792 5.83406 19.4934 5.83664C19.5372 5.84461 19.5814 5.85156 19.6258 5.8575C19.6359 5.85883 19.6461 5.86023 19.6563 5.86148C19.769 5.87523 19.8836 5.8832 19.9999 5.8832C20.0599 5.8832 20.1194 5.8807 20.1785 5.87695C20.1782 5.87695 20.1788 5.87695 20.1785 5.87695C20.2335 5.87352 20.2888 5.8682 20.3429 5.86156C20.3537 5.86023 20.3644 5.85875 20.3751 5.85734C20.4189 5.85148 20.4625 5.84461 20.5057 5.83672C20.5203 5.83406 20.535 5.83156 20.5496 5.82867C20.593 5.82008 20.6361 5.81031 20.6787 5.79969C20.688 5.79758 20.6973 5.79602 20.7065 5.79367ZM6.55878 27.9307H6.12056C3.92427 27.9307 2.13691 26.1077 2.1314 23.8646H10.5479C10.5424 26.1077 8.755 27.9307 6.55878 27.9307ZM10.238 22.7084H2.44034L6.33401 13.8608L10.238 22.7084ZM27.6616 34.1432C27.9909 34.1432 28.2588 34.417 28.2588 34.7535V35.7827H16.4465C16.1341 35.7827 15.8808 36.0416 15.8808 36.3609C15.8808 36.6802 16.1341 36.939 16.4465 36.939H30.3774C30.7231 36.939 31.0043 37.2263 31.0043 37.5795V38.8438H8.99559V37.5795C8.99559 37.2263 9.27678 36.939 9.62242 36.939H12.8335C13.146 36.939 13.3993 36.6802 13.3993 36.3609C13.3993 36.0416 13.146 35.7827 12.8335 35.7827H11.741V34.7535C11.741 34.417 12.0088 34.1432 12.3382 34.1432H27.6616ZM32.5821 11.9137C30.9971 11.9137 29.5179 11.27 28.4168 10.1013C27.6321 9.2682 26.5424 8.79039 25.4273 8.79039H14.7965C13.496 8.79039 12.2889 9.32516 11.3974 10.2962C10.4536 11.3241 9.08076 11.9137 7.63101 11.9137H2.34302V10.7685H7.41786C8.71838 10.7685 9.92547 10.2338 10.817 9.26281C11.7608 8.23484 13.1338 7.64523 14.5837 7.64523H25.4164C26.8663 7.64523 28.2392 8.23484 29.183 9.26289C30.0746 10.2338 31.2818 10.7685 32.5822 10.7685H37.657V11.9137H32.5821ZM33.6547 13.8608L37.5586 22.7084H29.761L33.6547 13.8608ZM33.8794 27.9307H33.4411C31.2449 27.9307 29.4575 26.1077 29.4521 23.8646H37.8685C37.863 26.1077 36.0757 27.9307 33.8794 27.9307Z"/>
</svg>
