<svg width="40" height="40" viewBox="0 0 40 40" xmlns="http://www.w3.org/2000/svg">
<path d="M32.734 38.9679L30.775 33.1869C30.6676 32.8697 30.3699 32.6563 30.0351 32.6563H29.9214V21.3274C29.9214 15.8566 25.4705 11.4058 19.9995 11.4058C14.5285 11.4058 10.0776 15.8565 10.0776 21.3274V32.6563H9.96389C9.62903 32.6563 9.33137 32.8697 9.22395 33.1869L7.26499 38.9679C7.18412 39.2065 7.22327 39.4692 7.36999 39.6739C7.51671 39.8785 7.75305 39.9999 8.00493 39.9999H31.9941C32.246 39.9999 32.4823 39.8785 32.629 39.6739C32.7758 39.4692 32.8149 39.2065 32.734 38.9679ZM11.6401 21.3275C11.6401 16.7183 15.3901 12.9683 19.9995 12.9683C24.6088 12.9683 28.3588 16.7183 28.3588 21.3275V32.6564H11.6401V21.3275ZM9.09457 38.4375L10.5241 34.2189H29.4748L30.9044 38.4375H9.09457Z"/>
<path d="M20 0C19.5686 0 19.2188 0.349844 19.2188 0.78125V5.46867C19.2188 5.90008 19.5685 6.24992 20 6.24992C20.4314 6.24992 20.7813 5.90008 20.7813 5.46867V0.78125C20.7813 0.349844 20.4314 0 20 0Z"/>
<path d="M20.5523 7.95957C20.4071 7.81426 20.2055 7.73145 20 7.73145C19.7945 7.73145 19.593 7.81426 19.4477 7.95957C19.3023 8.10566 19.2188 8.30637 19.2188 8.5127C19.2188 8.71816 19.3023 8.91894 19.4477 9.06504C19.593 9.21027 19.7945 9.29316 20 9.29316C20.2055 9.29316 20.4071 9.21027 20.5523 9.06504C20.6976 8.91894 20.7813 8.71816 20.7813 8.5127C20.7813 8.30637 20.6977 8.10566 20.5523 7.95957Z"/>
<path d="M7.46141 20.9109H3.87404C3.44263 20.9109 3.09277 21.2607 3.09277 21.6921C3.09277 22.1235 3.44263 22.4734 3.87404 22.4734H7.46149C7.8929 22.4734 8.24276 22.1235 8.24276 21.6921C8.24276 21.2607 7.89283 20.9109 7.46141 20.9109Z"/>
<path d="M1.33355 21.1398C1.18831 20.9944 0.986746 20.9109 0.781271 20.9109C0.575797 20.9109 0.374229 20.9944 0.228913 21.1398C0.083596 21.2852 0 21.4867 0 21.6921C0 21.8976 0.0835179 22.0992 0.228913 22.2444C0.374229 22.3897 0.575797 22.4734 0.781271 22.4734C0.986746 22.4734 1.18831 22.3898 1.33355 22.2444C1.47887 22.0992 1.56254 21.8976 1.56254 21.6921C1.56254 21.4867 1.47887 21.2851 1.33355 21.1398Z"/>
<path d="M14.74 6.95224L13.681 4.39591C13.5159 3.99731 13.0589 3.80833 12.6602 3.9731C12.2615 4.13825 12.0723 4.59528 12.2374 4.99388L13.2963 7.5502C13.421 7.85106 13.7119 8.03271 14.0185 8.03271C14.1181 8.03271 14.2193 8.01349 14.3171 7.97302C14.7158 7.80778 14.905 7.35075 14.74 6.95224Z"/>
<path d="M5.85756 14.9885L3.30117 13.9296C2.9024 13.7649 2.44552 13.9539 2.28036 14.3524C2.11527 14.7511 2.30458 15.208 2.70318 15.3732L5.25958 16.4321C5.35739 16.4725 5.45865 16.4918 5.55826 16.4918C5.86483 16.4918 6.1557 16.3101 6.28039 16.0093C6.44547 15.6106 6.25617 15.1537 5.85756 14.9885Z"/>
<path d="M36.4517 20.9109H32.8643C32.4329 20.9109 32.083 21.2607 32.083 21.6921C32.083 22.1235 32.4329 22.4734 32.8643 22.4734H36.4517C36.8831 22.4734 37.233 22.1235 37.233 21.6921C37.233 21.2607 36.8831 20.9109 36.4517 20.9109Z"/>
<path d="M39.7711 21.1398C39.6258 20.9945 39.4242 20.9109 39.2188 20.9109C39.0133 20.9109 38.8117 20.9944 38.6664 21.1398C38.5211 21.2852 38.4375 21.4867 38.4375 21.6921C38.4375 21.8976 38.521 22.0992 38.6664 22.2444C38.8117 22.3897 39.0133 22.4734 39.2188 22.4734C39.4242 22.4734 39.6258 22.3898 39.7711 22.2444C39.9164 22.0992 40 21.8976 40 21.6921C40 21.4867 39.9164 21.2851 39.7711 21.1398Z"/>
<path d="M35.4493 6.24291C35.1442 5.93791 34.6496 5.93791 34.3444 6.24291L30.5003 10.087C30.1952 10.3921 30.1952 10.8867 30.5003 11.1919C30.653 11.3445 30.8529 11.4207 31.0528 11.4207C31.2528 11.4207 31.4527 11.3444 31.6053 11.1919L35.4493 7.34783C35.7543 7.04275 35.7543 6.54807 35.4493 6.24291Z"/>
<path d="M9.49915 10.0868L5.65506 6.24291C5.34989 5.93791 4.85535 5.93791 4.5501 6.24291C4.24502 6.54799 4.24502 7.04268 4.5501 7.34783L8.39427 11.1918C8.54685 11.3443 8.74678 11.4206 8.94671 11.4206C9.14664 11.4206 9.34656 11.3443 9.49915 11.1918C9.80423 10.8867 9.80423 10.392 9.49915 10.0868Z"/>
<path d="M27.3396 3.97305C26.9409 3.80836 26.4839 3.99735 26.3188 4.39586L25.2598 6.95219C25.0948 7.35079 25.2841 7.80774 25.6827 7.97297C25.7805 8.01344 25.8817 8.03266 25.9814 8.03266C26.2879 8.03266 26.5788 7.85102 26.7035 7.55016L27.7624 4.99383C27.9275 4.59508 27.7382 4.13821 27.3396 3.97305Z"/>
<path d="M37.7199 14.3525C37.5547 13.9538 37.0977 13.7648 36.699 13.9297L34.1426 14.9886C33.744 15.1537 33.5547 15.6108 33.7198 16.0094C33.8445 16.3102 34.1354 16.4919 34.442 16.4919C34.5416 16.4919 34.6428 16.4727 34.7406 16.4322L37.297 15.3733C37.6957 15.2081 37.8849 14.7511 37.7199 14.3525Z"/>
<path d="M20 16.3289C18.7076 16.3289 17.6562 17.3803 17.6562 18.6725V22.4225C17.6562 23.7148 18.7077 24.7661 20 24.7661C21.2923 24.7661 22.3437 23.7147 22.3437 22.4225V18.6725C22.3437 17.3803 21.2924 16.3289 20 16.3289ZM20.7813 22.4225C20.7813 22.8532 20.4308 23.2037 20 23.2037C19.5692 23.2037 19.2187 22.8532 19.2187 22.4225V18.6725C19.2187 18.2417 19.5692 17.8913 20 17.8913C20.4308 17.8913 20.7813 18.2417 20.7813 18.6725V22.4225Z"/>
<path d="M20 26.3286C18.7076 26.3286 17.6562 27.38 17.6562 28.6723C17.6562 29.9646 18.7077 31.016 20 31.016C21.2923 31.016 22.3437 29.9646 22.3437 28.6723C22.3437 27.3799 21.2924 26.3286 20 26.3286ZM20 29.4535C19.5692 29.4535 19.2187 29.1031 19.2187 28.6723C19.2187 28.2415 19.5692 27.891 20 27.891C20.4308 27.891 20.7813 28.2415 20.7813 28.6723C20.7813 29.1031 20.4308 29.4535 20 29.4535Z"/>
</svg>
