<svg width="40" height="40" viewBox="0 0 40 40" xmlns="http://www.w3.org/2000/svg">
<path d="M39.9902 35.8868C39.9895 35.8826 39.9887 35.8785 39.988 35.8744L35.9854 14.9807L39.9743 0.848006C40.0356 0.631675 39.9834 0.39901 39.8356 0.229512C39.689 0.0585131 39.4649 -0.0255695 39.2419 0.00684686L19.9998 2.66091L0.757838 0.00684686C0.393091 -0.043486 0.0565942 0.211345 0.00626136 0.576092C-0.00590519 0.664341 -0.000321912 0.754174 0.0228445 0.840173L4.64713 18.0152L0.682338 35.8555C0.602672 36.2152 0.829754 36.5714 1.18942 36.6509C1.19833 36.6529 1.20725 36.6547 1.21625 36.6563L19.8827 39.9896C19.9214 39.9966 19.9607 40.0001 19.9999 40C20.0379 40 20.0757 39.9967 20.1132 39.9902L39.4463 36.6569C39.8091 36.5944 40.0527 36.2496 39.9902 35.8868ZM19.3332 38.5371L2.13482 35.4662L5.98437 18.1448C6.00737 18.0399 6.00496 17.9309 5.97721 17.827L1.57166 1.4645L19.3332 3.9144V38.5371ZM20.6665 38.5417V3.9144L38.4144 1.4665L34.6599 14.7704C34.6313 14.8701 34.6266 14.9752 34.6462 15.077L38.5505 35.4584L20.6665 38.5417Z"/>
<path d="M16.7827 6.0108L5.44949 4.01082C5.2554 3.9754 5.05557 4.0289 4.90524 4.15665C4.75416 4.28307 4.66683 4.46998 4.66699 4.66707V8.00037C4.66699 8.32378 4.89924 8.60053 5.21774 8.65661L16.551 10.6566C16.5892 10.6636 16.628 10.6671 16.6669 10.667C17.0349 10.6666 17.3331 10.3683 17.3335 10.0004V6.66705C17.3335 6.34363 17.1012 6.06689 16.7827 6.0108ZM16.0001 9.20544L6.00023 7.44112V5.46198L16.0001 7.22629V9.20544Z"/>
<path d="M32.6666 18.0002C32.6227 18.0002 32.5788 18.0046 32.5357 18.0132L22.5358 20.0132C22.2244 20.0757 22.0002 20.3492 22 20.6669V24.0002C22.0001 24.3684 22.2985 24.6668 22.6667 24.6669C22.7106 24.6667 22.7544 24.6624 22.7975 24.6539L32.7974 22.6539C33.1088 22.5914 33.333 22.3179 33.3332 22.0002V18.6669C33.3332 18.2987 33.0347 18.0002 32.6666 18.0002ZM31.9999 21.4539L23.3333 23.1869V21.213L31.9999 19.48V21.4539Z"/>
<path d="M17.4491 20.0105L12.7825 19.1869C12.5883 19.1511 12.3884 19.2047 12.2382 19.3328C12.0872 19.4592 11.9998 19.6462 12 19.8432V23.1765C12 23.4999 12.2322 23.7766 12.5507 23.8327L17.2174 24.6563C17.2556 24.6633 17.2944 24.6668 17.3333 24.6667C17.7013 24.6663 17.9995 24.368 17.9999 24V20.6667C17.9999 20.3433 17.7676 20.0666 17.4491 20.0105ZM16.6665 23.2051L13.3332 22.6172V20.6381L16.6665 21.226V23.2051Z"/>
<path d="M33.9986 4.5105C33.96 4.5105 33.9215 4.51391 33.8834 4.52058L29.2168 5.34416C28.8983 5.40024 28.6659 5.67699 28.666 6.0004V9.33371C28.6664 9.7017 28.9647 9.99995 29.3327 10.0004C29.3715 10.0005 29.4103 9.99695 29.4486 9.98995L34.1152 9.16637C34.4337 9.11029 34.666 8.83354 34.666 8.51013V5.17683C34.6656 4.80858 34.3669 4.51025 33.9986 4.5105ZM33.3326 7.95089L29.9993 8.5388V6.55965L33.3326 5.97174V7.95089Z"/>
<path d="M6.1154 10.6772L5.88379 11.9896L17.2174 13.9898L17.449 12.6774L6.1154 10.6772Z"/>
<path d="M12.7814 15.7358L12.5498 17.0482L17.8834 17.9895L18.115 16.6771L12.7814 15.7358Z"/>
<path d="M7.45037 14.6775L7.21875 15.9899L10.9971 16.6567L11.2287 15.3443L7.45037 14.6775Z"/>
<path d="M12.1144 33.7342L11.8828 35.0466L17.2164 35.9879L17.4481 34.6755L12.1144 33.7342Z"/>
<path d="M6.78337 32.6781L6.55176 33.9905L10.3301 34.6573L10.5617 33.3449L6.78337 32.6781Z"/>
<path d="M6.11638 28.6789L5.88477 29.9913L17.2184 31.9915L17.45 30.6791L6.11638 28.6789Z"/>
<path d="M7.4629 20.0118L7.20117 21.3191L10.5342 21.9864L10.7959 20.6791L7.4629 20.0118Z"/>
<path d="M6.78955 24.679L6.54395 25.9889L17.2109 27.989L17.4565 26.6792L6.78955 24.679Z"/>
<path d="M33.8854 10.6762L22.5518 12.6775L22.7835 13.9899L34.1171 11.9886L33.8854 10.6762Z"/>
<path d="M27.2194 15.7363L21.8857 16.6781L22.1175 17.9905L27.4511 17.0487L27.2194 15.7363Z"/>
<path d="M32.5527 14.6762L28.7744 15.343L29.006 16.6554L32.7843 15.9886L32.5527 14.6762Z"/>
<path d="M27.8844 33.7337L22.5508 34.6755L22.7825 35.9879L28.1162 35.0461L27.8844 33.7337Z"/>
<path d="M33.2187 32.6778L29.4404 33.345L29.6722 34.6574L33.4505 33.9902L33.2187 32.6778Z"/>
<path d="M33.8854 28.677L22.5518 30.6783L22.7835 31.9907L34.1171 29.9894L33.8854 28.677Z"/>
<path d="M27.2002 7.3459L23.8672 8.01318L24.1289 9.32051L27.4619 8.65322L27.2002 7.3459Z"/>
<path d="M33.209 24.6778L22.543 26.6812L22.789 27.9909L33.455 25.9875L33.209 24.6778Z"/>
</svg>
