<svg width="40" height="40" viewBox="0 0 40 40" xmlns="http://www.w3.org/2000/svg">
<path d="M1.33338 20C1.33338 9.70733 9.70676 1.33336 20.0002 1.33336C25.7783 1.33336 31.1851 4.05406 34.7051 8.66671H30.6671C30.2984 8.66671 30.0004 8.96538 30.0004 9.33335C30.0004 9.70132 30.2984 9.99999 30.6671 9.99999H36.0004C36.0211 9.99999 36.0391 9.98999 36.0591 9.98796C36.1038 9.9846 36.1458 9.9746 36.1891 9.96194C36.2338 9.94858 36.2738 9.93264 36.3138 9.91124C36.3318 9.90194 36.3518 9.90054 36.3691 9.88858C36.3878 9.87655 36.3978 9.85725 36.4144 9.84327C36.4504 9.8146 36.4818 9.78327 36.5104 9.74796C36.5371 9.7146 36.5604 9.68132 36.5798 9.6446C36.5998 9.60725 36.6151 9.56991 36.6272 9.52929C36.6412 9.4853 36.6505 9.44265 36.6538 9.39593C36.6565 9.3746 36.6672 9.35522 36.6672 9.33327V4C36.6672 3.63203 36.3692 3.33336 36.0005 3.33336C35.6318 3.33336 35.3339 3.63203 35.3339 4V7.32132C31.5597 2.70797 25.967 0 20.0002 0C8.97214 0 0 8.97202 0 20C0 22.122 0.330004 24.2093 0.980715 26.204C1.07204 26.486 1.33408 26.6647 1.61471 26.6647C1.68268 26.6647 1.75268 26.6533 1.82135 26.6313C2.17135 26.5166 2.36269 26.1406 2.2487 25.7907C1.64135 23.9293 1.33338 21.9813 1.33338 20Z"/>
<path d="M17.7489 33.2839C17.8309 33.3173 17.9162 33.3332 18.0009 33.3332C18.2202 33.3332 18.433 33.2239 18.5596 33.0306L28.5597 17.6972C28.7044 17.4759 28.7037 17.1899 28.559 16.9685C28.4137 16.7472 28.1511 16.6306 27.8917 16.6759L20.8209 17.8539L22.6569 7.44918C22.7129 7.13254 22.5356 6.82121 22.2343 6.70848C21.935 6.59715 21.595 6.7145 21.4296 6.98981L11.4294 23.6564C11.2948 23.8798 11.3034 24.1598 11.4502 24.3751C11.5962 24.5898 11.8548 24.6998 12.1102 24.6571L19.1576 23.4831L17.3469 32.5358C17.2849 32.8492 17.453 33.1633 17.7489 33.2839ZM13.3156 23.1053L20.7177 10.7673L19.345 18.5507C19.307 18.764 19.375 18.982 19.527 19.136C19.6797 19.29 19.8971 19.3607 20.1104 19.3239L26.6139 18.2406L19.3338 29.4026L20.6545 22.7973C20.6978 22.5826 20.6325 22.3606 20.4805 22.2026C20.3532 22.0719 20.1805 21.9999 20.0012 21.9999C19.9646 21.9999 19.9285 22.0026 19.8919 22.0092L13.3156 23.1053Z"/>
<path d="M38.9814 13.6821C38.8648 13.3328 38.4888 13.1434 38.1374 13.2607C37.7887 13.3767 37.5994 13.7541 37.7154 14.1034C38.3467 15.9981 38.6667 17.9821 38.6667 20C38.6667 30.2927 30.2933 38.6666 19.9999 38.6666C14.2231 38.6666 8.81636 35.9466 5.29498 31.3333H9.333C9.70168 31.3333 9.99965 31.0346 9.99965 30.6666C9.99965 30.2987 9.70168 30 9.333 30H3.99966C3.97966 30 3.96169 30.01 3.94231 30.012C3.897 30.0154 3.85364 30.0254 3.80895 30.0387C3.76559 30.052 3.72559 30.0674 3.68629 30.088C3.66895 30.098 3.64895 30.0993 3.63098 30.1113C3.61231 30.1234 3.60231 30.1427 3.58567 30.1566C3.54965 30.1853 3.51832 30.2166 3.48965 30.252C3.46301 30.2853 3.43965 30.3186 3.42035 30.3553C3.40035 30.3927 3.38504 30.43 3.37301 30.4713C3.35902 30.5147 3.34965 30.5574 3.34566 30.6034C3.34363 30.6254 3.33301 30.6441 3.33301 30.6667V36C3.33301 36.368 3.63098 36.6666 3.99966 36.6666C4.36833 36.6666 4.66631 36.368 4.66631 36V32.6773C8.44104 37.292 14.0338 40 19.9999 40C31.028 40 40.0001 31.028 40.0001 20C40.0001 17.8387 39.6567 15.7127 38.9814 13.6821Z"/>
</svg>
