<svg width="40" height="40" viewBox="0 0 40 40" xmlns="http://www.w3.org/2000/svg">
<path d="M39.4134 37.8013H38.7468V16.6173C38.7468 16.2862 38.4845 16.0178 38.1609 16.0178C37.8373 16.0178 37.575 16.2862 37.575 16.6173V37.8013H25.5956V35.838C25.5956 35.5069 25.3332 35.2385 25.0097 35.2385H23.7169V26.8682C23.7169 26.5372 23.4545 26.2688 23.1309 26.2688H16.8685C16.5449 26.2688 16.2825 26.5372 16.2825 26.8682V35.2385H14.9897C14.6662 35.2385 14.4038 35.5069 14.4038 35.838V37.8013H2.42441V37.1194C2.42441 36.7884 2.16207 36.52 1.83848 36.52C1.5149 36.52 1.25256 36.7884 1.25256 37.1194V37.8013H0.585928C0.262339 37.8013 0 38.0697 0 38.4007C0 38.7319 0.262339 39.0002 0.585928 39.0002H39.4134C39.737 39.0002 39.9993 38.7319 39.9993 38.4007C39.9993 38.0697 39.737 37.8013 39.4134 37.8013ZM17.4544 27.4677H22.545V35.2385H17.4544V27.4677ZM24.4237 37.8013H15.5756V36.4374H24.4237V37.8013Z"/>
<path d="M14.3647 32.6757H14.3244V26.8682C14.3244 26.5372 14.0621 26.2688 13.7385 26.2688H4.97096C4.64737 26.2688 4.38503 26.5372 4.38503 26.8682V32.6757H4.34472C4.02113 32.6757 3.75879 32.9441 3.75879 33.2752C3.75879 33.6062 4.02113 33.8746 4.34472 33.8746H14.3647C14.6883 33.8746 14.9506 33.6062 14.9506 33.2752C14.9506 32.9441 14.6883 32.6757 14.3647 32.6757ZM8.76878 32.6757H5.55688V27.4677H8.76878V32.6757ZM13.1525 32.6757H9.94064V27.4677H13.1525V32.6757Z"/>
<path d="M35.6567 32.6757H35.6164V26.8682C35.6164 26.5372 35.354 26.2688 35.0305 26.2688H26.2629C25.9394 26.2688 25.677 26.5372 25.677 26.8682V32.6757H25.6367C25.3131 32.6757 25.0508 32.9441 25.0508 33.2752C25.0508 33.6062 25.3131 33.8746 25.6367 33.8746H35.6567C35.9803 33.8746 36.2426 33.6062 36.2426 33.2752C36.2426 32.9441 35.9803 32.6757 35.6567 32.6757ZM30.0609 32.6757H26.849V27.4677H30.0609V32.6757ZM34.4446 32.6757H31.2327V27.4677H34.4446V32.6757Z"/>
<path d="M20.6265 28.8313H19.374C19.0504 28.8313 18.7881 29.0997 18.7881 29.4307C18.7881 29.7618 19.0504 30.0302 19.374 30.0302H20.6265C20.9501 30.0302 21.2124 29.7618 21.2124 29.4307C21.2124 29.0997 20.9502 28.8313 20.6265 28.8313Z"/>
<path d="M23.1296 16.0176H16.8672C16.5436 16.0176 16.2812 16.2859 16.2812 16.617V23.024C16.2812 23.355 16.5436 23.6234 16.8672 23.6234H23.1296C23.4532 23.6234 23.7156 23.355 23.7156 23.024V16.617C23.7156 16.286 23.4532 16.0176 23.1296 16.0176ZM19.4124 22.4245H17.4531V17.2165H19.4124V22.4245ZM22.5437 22.4245H20.5843V17.2165H22.5437V22.4245Z"/>
<path d="M23.1296 5.76636H16.8672C16.5436 5.76636 16.2812 6.03475 16.2812 6.3658V12.7727C16.2812 13.1038 16.5436 13.3722 16.8672 13.3722H23.1296C23.4532 13.3722 23.7156 13.1038 23.7156 12.7727V6.3658C23.7156 6.03475 23.4532 5.76636 23.1296 5.76636ZM19.4124 12.1733H17.4531V6.96524H19.4124V12.1733ZM22.5437 12.1733H20.5843V6.96524H22.5437V12.1733Z"/>
<path d="M35.0302 16.0176H26.2627C25.9391 16.0176 25.6768 16.2859 25.6768 16.617V23.024C25.6768 23.355 25.9391 23.6234 26.2627 23.6234H35.0302C35.3538 23.6234 35.6161 23.355 35.6161 23.024V16.617C35.6161 16.2859 35.3538 16.0176 35.0302 16.0176ZM30.0605 22.4245H26.8486V17.2165H30.0605V22.4245ZM34.4443 22.4245H31.2324V17.2165H34.4443V22.4245Z"/>
<path d="M13.7382 16.0176H4.97069C4.6471 16.0176 4.38477 16.2859 4.38477 16.617V23.024C4.38477 23.355 4.6471 23.6234 4.97069 23.6234H13.7382C14.0618 23.6234 14.3241 23.355 14.3241 23.024V16.617C14.3241 16.2859 14.0618 16.0176 13.7382 16.0176ZM8.76852 22.4245H5.55662V17.2165H8.76852V22.4245ZM13.1523 22.4245H9.94037V17.2165H13.1523V22.4245Z"/>
<path d="M39.8463 12.3676L33.1115 4.85118V2.48034H33.1518C33.4754 2.48034 33.7378 2.21195 33.7378 1.88089C33.7378 1.54976 33.4754 1.28145 33.1518 1.28145H29.3943C29.0707 1.28145 28.8084 1.54976 28.8084 1.88089C28.8084 2.21195 29.0707 2.48034 29.3943 2.48034H29.4347V4.48496H26.8491V3.80295C26.8491 3.57588 26.7237 3.36831 26.5252 3.26681L20.2627 0.0633012C20.0978 -0.0211004 19.9036 -0.0211004 19.7386 0.0633012L13.4762 3.26681C13.2777 3.36839 13.1523 3.57588 13.1523 3.80295V4.48496H10.5666V2.48034H10.607C10.9306 2.48034 11.1929 2.21195 11.1929 1.88089C11.1929 1.54976 10.9306 1.28145 10.607 1.28145H6.84933C6.52574 1.28145 6.2634 1.54976 6.2634 1.88089C6.2634 2.21195 6.52574 2.48034 6.84933 2.48034H6.88964V4.85118L0.154989 12.3676C-0.00203939 12.5428 -0.0429762 12.7964 0.050616 13.0141C0.144208 13.2317 0.354517 13.3721 0.586857 13.3721H1.25341V34.5562C1.25341 34.8872 1.51575 35.1556 1.83934 35.1556C2.16292 35.1556 2.42526 34.8872 2.42526 34.5562V13.3721H13.7381C14.0617 13.3721 14.324 13.1038 14.324 12.7727V4.17348L20.0006 1.2697L25.6771 4.17348V12.7727C25.6771 13.1038 25.9395 13.3721 26.2631 13.3721H37.5759V14.054C37.5759 14.385 37.8383 14.6534 38.1618 14.6534C38.4854 14.6534 38.7478 14.385 38.7478 14.054V13.3721H39.4143C39.6467 13.3721 39.857 13.2317 39.9506 13.0141C40.0442 12.7964 40.0032 12.5428 39.8463 12.3676ZM8.06157 2.48034H9.39468V4.48496H8.06157V2.48034ZM13.1522 12.1733H1.91887L7.73338 5.68384H13.1522V12.1733ZM30.6066 2.48034H31.9397V4.48496H30.6066V2.48034ZM26.8489 12.1733V5.68384H32.2678L38.0823 12.1733H26.8489Z"/>
</svg>
