<svg width="40" height="40" viewBox="0 0 40 40" xmlns="http://www.w3.org/2000/svg">
<path d="M5.33366 10.6666H15.3337C15.7017 10.6666 16.0003 10.3686 16.0003 9.99992C16.0003 9.63125 15.7017 9.33325 15.3337 9.33325H5.33366C4.96566 9.33325 4.66699 9.63125 4.66699 9.99992C4.66699 10.3686 4.96566 10.6666 5.33366 10.6666Z"/>
<path d="M5.33366 8.66658H11.3337C11.7017 8.66658 12.0003 8.36859 12.0003 7.99992C12.0003 7.63125 11.7017 7.33325 11.3337 7.33325H5.33366C4.96566 7.33325 4.66699 7.63125 4.66699 7.99992C4.66699 8.36859 4.96566 8.66658 5.33366 8.66658Z"/>
<path d="M16.0003 11.9999C16.0003 11.6313 15.7017 11.3333 15.3337 11.3333H5.33366C4.96566 11.3333 4.66699 11.6313 4.66699 11.9999C4.66699 12.3686 4.96566 12.6666 5.33366 12.6666H15.3337C15.7017 12.6666 16.0003 12.3686 16.0003 11.9999Z"/>
<path d="M40 2.66667H20.6667V0.666667C20.6667 0.298 20.368 0 20 0C19.632 0 19.3333 0.298 19.3333 0.666667V2.66667H0V30.6667H18.3907L10.1953 38.862C9.93467 39.1227 9.93467 39.544 10.1953 39.8047C10.3253 39.9347 10.496 40 10.6667 40C10.8373 40 11.008 39.9347 11.138 39.8047L19.3333 31.6093V38C19.3333 38.3687 19.632 38.6667 20 38.6667C20.368 38.6667 20.6667 38.3687 20.6667 38V31.6093L28.862 39.8047C28.992 39.9347 29.1627 40 29.3333 40C29.504 40 29.6747 39.9347 29.8047 39.8047C30.0653 39.544 30.0653 39.1227 29.8047 38.862L21.6093 30.6667H40V2.66667ZM38.6667 29.3333H1.33333V4H38.6667V29.3333Z"/>
<path d="M27.3332 13.3333H30.3905L22.3998 21.324L16.8712 15.7953C16.6105 15.5347 16.1892 15.5347 15.9285 15.7953L7.52851 24.1953C7.26784 24.456 7.26784 24.8773 7.52851 25.138C7.65851 25.268 7.82917 25.3333 7.99984 25.3333C8.17051 25.3333 8.34117 25.268 8.47117 25.138L16.3998 17.2093L21.9285 22.738C22.0585 22.868 22.2292 22.9333 22.3998 22.9333C22.5705 22.9333 22.7412 22.868 22.8712 22.738L31.3332 14.276V17.3333C31.3332 17.702 31.6312 18 31.9998 18C32.3685 18 32.6665 17.702 32.6665 17.3333V12.6667C32.6665 12.58 32.6492 12.4933 32.6152 12.412C32.5478 12.2487 32.4178 12.1187 32.2545 12.0513C32.1732 12.0173 32.0865 12 31.9998 12H27.3332C26.9652 12 26.6665 12.298 26.6665 12.6667C26.6665 13.0353 26.9652 13.3333 27.3332 13.3333Z"/>
</svg>
