<svg width="40" height="41" viewBox="0 0 40 41" xmlns="http://www.w3.org/2000/svg">
<path d="M39.3334 1H0.666642C0.298672 1 0 1.29352 0 1.65522V38.3449C0 38.7072 0.298672 39 0.666642 39H39.3334C39.702 39 40 38.7072 40 38.3449V1.65522C40.0001 1.29352 39.7021 1 39.3334 1ZM38.6667 37.6896H1.33336V2.31037H38.6668L38.6667 37.6896Z"/>
<path d="M11.334 16.7241C8.02602 16.7241 5.33398 19.3697 5.33398 22.6207C5.33398 25.8723 8.02602 28.5172 11.334 28.5172C14.642 28.5172 17.334 25.8723 17.334 22.6207C17.334 19.3697 14.642 16.7241 11.334 16.7241ZM11.334 27.2069C8.76063 27.2069 6.66735 25.149 6.66735 22.6207C6.66735 20.0924 8.76071 18.0346 11.334 18.0346C13.9074 18.0346 16.0006 20.0924 16.0006 22.6207C16.0006 25.149 13.9073 27.2069 11.334 27.2069Z"/>
<path d="M8.19507 24.1235L4.8623 27.3988L5.80507 28.3253L9.13784 25.05L8.19507 24.1235Z"/>
<path d="M11.333 20.6552C10.2304 20.6552 9.33301 21.537 9.33301 22.6207C9.33301 23.7043 10.2304 24.5862 11.333 24.5862C12.4357 24.5862 13.333 23.7043 13.333 22.6207C13.333 21.537 12.4357 20.6552 11.333 20.6552ZM11.333 23.2759C10.9657 23.2759 10.6664 22.9824 10.6664 22.6207C10.6664 22.2591 10.9657 21.9656 11.333 21.9656C11.7004 21.9656 11.9997 22.2591 11.9997 22.6207C11.9997 22.9824 11.7004 23.2759 11.333 23.2759Z"/>
<path d="M16.8611 16.9171L13.5283 20.1924L14.4711 21.1189L17.8039 17.8436L16.8611 16.9171Z"/>
<path d="M14.4692 24.1251L13.5264 25.0516L16.8591 28.3269L17.802 27.4004L14.4692 24.1251Z"/>
<path d="M5.80317 16.9157L4.86035 17.8422L8.19312 21.1175L9.13594 20.191L5.80317 16.9157Z"/>
<path d="M11.334 3.62073C8.02602 3.62073 5.33398 6.26634 5.33398 9.51727C5.33398 12.7682 8.02602 15.4138 11.334 15.4138C14.642 15.4138 17.334 12.7682 17.334 9.51727C17.334 6.26634 14.642 3.62073 11.334 3.62073ZM11.334 14.1034C8.76063 14.1034 6.66735 12.0462 6.66735 9.51727C6.66735 6.98836 8.76071 4.9311 11.334 4.9311C13.9074 4.9311 16.0006 6.98836 16.0006 9.51727C16.0006 12.0462 13.9073 14.1034 11.334 14.1034Z"/>
<path d="M8.19507 11.0227L4.8623 14.298L5.80513 15.2246L9.13789 11.9493L8.19507 11.0227Z"/>
<path d="M11.333 7.55176C10.2304 7.55176 9.33301 8.43363 9.33301 9.51727C9.33301 10.6009 10.2304 11.4828 11.333 11.4828C12.4357 11.4828 13.333 10.6009 13.333 9.51727C13.333 8.43363 12.4357 7.55176 11.333 7.55176ZM11.333 10.1724C10.9657 10.1724 10.6664 9.87828 10.6664 9.51727C10.6664 9.15626 10.9657 8.86213 11.333 8.86213C11.7004 8.86213 11.9997 9.15626 11.9997 9.51727C11.9997 9.87828 11.7004 10.1724 11.333 10.1724Z"/>
<path d="M16.8621 3.81571L13.5293 7.091L14.4721 8.01756L17.8049 4.74227L16.8621 3.81571Z"/>
<path d="M14.4711 11.019L13.5283 11.9456L16.8611 15.2209L17.8039 14.2943L14.4711 11.019Z"/>
<path d="M5.80513 3.81233L4.8623 4.73889L8.19507 8.01419L9.13789 7.08763L5.80513 3.81233Z"/>
<path d="M28.667 16.7241C25.3583 16.7241 22.667 19.3697 22.667 22.6207C22.667 25.8723 25.3583 28.5172 28.667 28.5172C31.9757 28.5172 34.667 25.8723 34.667 22.6207C34.667 19.3697 31.9757 16.7241 28.667 16.7241ZM28.667 27.2069C26.0943 27.2069 24.0004 25.149 24.0004 22.6207C24.0004 20.0924 26.0943 18.0346 28.667 18.0346C31.2397 18.0346 33.3337 20.0924 33.3337 22.6207C33.3337 25.149 31.2397 27.2069 28.667 27.2069Z"/>
<path d="M25.5261 24.1245L22.1934 27.3998L23.1362 28.3264L26.469 25.0511L25.5261 24.1245Z"/>
<path d="M28.666 20.6552C27.5634 20.6552 26.666 21.537 26.666 22.6207C26.666 23.7043 27.5634 24.5862 28.666 24.5862C29.7687 24.5862 30.666 23.7043 30.666 22.6207C30.666 21.537 29.7687 20.6552 28.666 20.6552ZM28.666 23.2759C28.298 23.2759 27.9994 22.9824 27.9994 22.6207C27.9994 22.2591 28.298 21.9656 28.666 21.9656C29.034 21.9656 29.3327 22.2591 29.3327 22.6207C29.3327 22.9824 29.0341 23.2759 28.666 23.2759Z"/>
<path d="M34.1951 16.9175L30.8623 20.1927L31.8051 21.1193L35.1378 17.844L34.1951 16.9175Z"/>
<path d="M31.8051 24.1229L30.8623 25.0494L34.1951 28.3247L35.1378 27.3982L31.8051 24.1229Z"/>
<path d="M23.1362 16.9179L22.1934 17.8445L25.5261 21.1198L26.4689 20.1932L23.1362 16.9179Z"/>
<path d="M28.667 3.62073C25.3583 3.62073 22.667 6.26634 22.667 9.51727C22.667 12.7682 25.3583 15.4138 28.667 15.4138C31.9757 15.4138 34.667 12.7682 34.667 9.51727C34.667 6.26634 31.9757 3.62073 28.667 3.62073ZM28.667 14.1034C26.0943 14.1034 24.0004 12.0462 24.0004 9.51727C24.0004 6.98836 26.0943 4.9311 28.667 4.9311C31.2397 4.9311 33.3337 6.98836 33.3337 9.51727C33.3337 12.0462 31.2397 14.1034 28.667 14.1034Z"/>
<path d="M25.5261 11.0205L22.1934 14.2958L23.1362 15.2223L26.4689 11.947L25.5261 11.0205Z"/>
<path d="M28.666 7.55176C27.5634 7.55176 26.666 8.43363 26.666 9.51727C26.666 10.6009 27.5634 11.4828 28.666 11.4828C29.7687 11.4828 30.666 10.6009 30.666 9.51727C30.666 8.43363 29.7687 7.55176 28.666 7.55176ZM28.666 10.1724C28.298 10.1724 27.9994 9.87828 27.9994 9.51727C27.9994 9.15626 28.298 8.86213 28.666 8.86213C29.034 8.86213 29.3327 9.15626 29.3327 9.51727C29.3327 9.87828 29.0341 10.1724 28.666 10.1724Z"/>
<path d="M34.1951 3.81345L30.8623 7.08875L31.8051 8.01531L35.1379 4.74001L34.1951 3.81345Z"/>
<path d="M31.8051 11.0195L30.8623 11.9461L34.1951 15.2214L35.1379 14.2948L31.8051 11.0195Z"/>
<path d="M23.1362 3.81331L22.1934 4.73987L25.5261 8.01516L26.4689 7.0886L23.1362 3.81331Z"/>
<path d="M26.666 32.4482C25.5634 32.4482 24.666 33.3301 24.666 34.4138C24.666 35.4974 25.5634 36.3793 26.666 36.3793C27.7687 36.3793 28.666 35.4974 28.666 34.4138C28.666 33.3301 27.7688 32.4482 26.666 32.4482ZM26.666 35.069C26.298 35.069 25.9994 34.7755 25.9994 34.4138C25.9994 34.0522 26.298 33.7587 26.666 33.7587C27.034 33.7587 27.3327 34.0522 27.3327 34.4138C27.3327 34.7755 27.0341 35.069 26.666 35.069Z"/>
<path d="M20 32.4482C18.8973 32.4482 18 33.3301 18 34.4138C18 35.4974 18.8973 36.3793 20 36.3793C21.1027 36.3793 22 35.4974 22 34.4138C22 33.3301 21.1027 32.4482 20 32.4482ZM20 35.069C19.6327 35.069 19.3334 34.7755 19.3334 34.4138C19.3334 34.0522 19.6327 33.7587 20 33.7587C20.368 33.7587 20.6666 34.0522 20.6666 34.4138C20.6666 34.7755 20.368 35.069 20 35.069Z"/>
<path d="M33.334 32.4482C32.2313 32.4482 31.334 33.3301 31.334 34.4138C31.334 35.4974 32.2313 36.3793 33.334 36.3793C34.4366 36.3793 35.334 35.4974 35.334 34.4138C35.334 33.3301 34.4366 32.4482 33.334 32.4482ZM33.334 35.069C32.966 35.069 32.6673 34.7755 32.6673 34.4138C32.6673 34.0522 32.966 33.7587 33.334 33.7587C33.702 33.7587 34.0006 34.0522 34.0006 34.4138C34.0006 34.7755 33.702 35.069 33.334 35.069Z"/>
<path d="M6.66602 32.4482C5.56336 32.4482 4.66602 33.3301 4.66602 34.4138C4.66602 35.4974 5.56336 36.3793 6.66602 36.3793C7.76868 36.3793 8.66602 35.4974 8.66602 34.4138C8.66602 33.3301 7.76868 32.4482 6.66602 32.4482ZM6.66602 35.069C6.29867 35.069 5.99938 34.7755 5.99938 34.4138C5.99938 34.0522 6.29867 33.7587 6.66602 33.7587C7.03336 33.7587 7.33266 34.0522 7.33266 34.4138C7.33266 34.7755 7.03336 35.069 6.66602 35.069Z"/>
<path d="M13.334 32.4482C12.2313 32.4482 11.334 33.3301 11.334 34.4138C11.334 35.4974 12.2313 36.3793 13.334 36.3793C14.4366 36.3793 15.334 35.4974 15.334 34.4138C15.334 33.3301 14.4366 32.4482 13.334 32.4482ZM13.334 35.069C12.9666 35.069 12.6673 34.7755 12.6673 34.4138C12.6673 34.0522 12.9666 33.7587 13.334 33.7587C13.7013 33.7587 14.0006 34.0522 14.0006 34.4138C14.0006 34.7755 13.7013 35.069 13.334 35.069Z"/>
<path d="M39.3337 29.8276H0.666992V31.1379H39.3337V29.8276Z"/>
</svg>
