<svg width="40" height="40" viewBox="0 0 40 40" xmlns="http://www.w3.org/2000/svg">
<path d="M19.9997 3.56992C20.3221 3.56992 20.5834 3.30758 20.5834 2.98398V0.585938C20.5834 0.262344 20.3221 0 19.9997 0C19.6773 0 19.416 0.262344 19.416 0.585938V2.98398C19.416 3.30758 19.6773 3.56992 19.9997 3.56992Z"/>
<path d="M6.9725 13.0117H4.58368C4.26126 13.0117 4 13.274 4 13.5976C4 13.9212 4.26126 14.1835 4.58368 14.1835H6.97243C7.29485 14.1835 7.55611 13.9212 7.55611 13.5976C7.55619 13.274 7.29485 13.0117 6.9725 13.0117Z"/>
<path d="M8.24262 2.52849C8.01459 2.29967 7.64508 2.29967 7.41705 2.52849C7.18911 2.75732 7.18911 3.12834 7.41705 3.35709L9.10623 5.05279C9.22025 5.16717 9.36967 5.22443 9.51901 5.22443C9.66836 5.22443 9.81778 5.16724 9.9318 5.05279C10.1597 4.82396 10.1597 4.45295 9.9318 4.2242L8.24262 2.52849Z"/>
<path d="M29.2005 9.50095C29.2005 7.94955 27.9432 6.68744 26.3977 6.68744H17.2001C16.8777 6.68744 16.6164 6.94978 16.6164 7.27338C16.6164 7.59697 16.8777 7.85931 17.2001 7.85931H26.3977C27.2994 7.85931 28.0331 8.59572 28.0331 9.50095C28.0331 10.4062 27.2994 11.1426 26.3977 11.1426H13.6026C12.7008 11.1426 11.9672 10.4062 11.9672 9.50095C11.9672 8.59572 12.7008 7.85931 13.6026 7.85931H14.5106C14.8331 7.85931 15.0943 7.59697 15.0943 7.27338C15.0943 6.94978 14.8331 6.68744 14.5106 6.68744H13.6026C12.0571 6.68744 10.7998 7.94955 10.7998 9.50095C10.7998 10.4069 11.2289 11.2136 11.8934 11.7285C11.2289 12.2435 10.7998 13.0503 10.7998 13.9561C10.7998 14.862 11.2289 15.6688 11.8934 16.1837C11.2289 16.6986 10.7998 17.5053 10.7998 18.4113C10.7998 19.9627 12.0571 21.2248 13.6026 21.2248H13.6438V24.1711C12.5127 24.2846 11.6266 25.2456 11.6266 26.4104V30.0416C11.6266 32.126 13.198 33.848 15.2139 34.0786L15.7231 35.7046C15.9663 36.4816 16.4707 37.1154 17.1219 37.5223C17.3352 38.9367 18.5386 40 20.0001 40C21.4617 40 22.6651 38.9367 22.8782 37.5224C23.5295 37.1156 24.0338 36.4817 24.2771 35.7048L24.7859 34.0799C25.8851 33.9563 26.8769 33.3927 27.5561 32.491C27.7505 32.2328 27.6997 31.8654 27.4426 31.6702C27.1851 31.475 26.8193 31.5261 26.6249 31.7843C26.0798 32.508 25.2523 32.9253 24.3513 32.9334L24.3497 32.9335C24.3414 32.9335 24.3332 32.9342 24.325 32.9342H15.6753C15.6683 32.9342 15.6613 32.9337 15.6543 32.9336C15.6521 32.9336 15.6499 32.9335 15.6477 32.9335C14.0717 32.9185 12.7941 31.6274 12.7941 30.0418V28.225H27.2063V29.5349C27.2063 29.8585 27.4675 30.1208 27.79 30.1208C28.1124 30.1208 28.3736 29.8585 28.3736 29.5349V26.4105C28.3736 25.2456 27.4875 24.2847 26.3564 24.1712V21.2249H26.3977C27.9431 21.2249 29.2005 19.9627 29.2005 18.4113C29.2005 17.5054 28.7713 16.6987 28.1069 16.1838C28.7713 15.6688 29.2005 14.862 29.2005 13.9562C29.2005 13.0503 28.7713 12.2435 28.1069 11.7286C28.7713 11.2136 29.2005 10.4069 29.2005 9.50095ZM20.0001 38.8281C19.3719 38.8281 18.8246 38.4994 18.5174 38.0013C18.6322 38.0134 18.7484 38.0202 18.866 38.0202H21.1343C21.2519 38.0202 21.368 38.0134 21.4828 38.0013C21.1757 38.4994 20.6283 38.8281 20.0001 38.8281ZM23.554 34.1059L23.1634 35.3533C22.9852 35.9224 22.5896 36.3718 22.0851 36.624C22.0775 36.6275 22.0698 36.6308 22.0624 36.6346C21.78 36.7717 21.4649 36.8482 21.1343 36.8482H18.866C18.5372 36.8482 18.2237 36.7724 17.9425 36.6368C17.9298 36.6302 17.9168 36.6243 17.9036 36.6186C17.4045 36.3654 17.0136 35.9181 16.8368 35.3533L16.4462 34.1059H23.554ZM27.2063 26.4105V27.0532H12.794V26.4105C12.794 25.8156 13.276 25.3317 13.8686 25.3317H26.1317C26.7242 25.3317 27.2063 25.8156 27.2063 26.4105ZM14.8112 24.1599V21.2249H17.511V24.1599H14.8112ZM18.6784 24.1599V21.2249H21.3219V24.1599H18.6784ZM22.4892 24.1599V21.2249H25.189V24.1599H22.4892ZM26.3977 20.053H13.6026C12.7008 20.053 11.9672 19.3166 11.9672 18.4113C11.9672 17.5061 12.7008 16.7697 13.6026 16.7697H26.3977C27.2994 16.7697 28.0331 17.5061 28.0331 18.4113C28.0331 19.3166 27.2994 20.053 26.3977 20.053ZM26.3977 15.5978H13.6026C12.7008 15.5978 11.9672 14.8613 11.9672 13.9561C11.9672 13.0509 12.7008 12.3145 13.6026 12.3145H26.3977C27.2994 12.3145 28.0331 13.0509 28.0331 13.9561C28.0331 14.8613 27.2994 15.5978 26.3977 15.5978Z"/>
<path d="M35.4168 13.0117H33.028C32.7056 13.0117 32.4443 13.274 32.4443 13.5976C32.4443 13.9212 32.7056 14.1835 33.028 14.1835H35.4168C35.7392 14.1835 36.0004 13.9212 36.0004 13.5976C36.0004 13.274 35.7391 13.0117 35.4168 13.0117Z"/>
<path d="M32.5821 2.52849C32.3542 2.29967 31.9847 2.29967 31.7566 2.52849L30.0674 4.2242C29.8395 4.45302 29.8395 4.82404 30.0674 5.05279C30.1815 5.16724 30.3308 5.22443 30.4802 5.22443C30.6296 5.22443 30.779 5.16724 30.893 5.05279L32.5822 3.35709C32.81 3.12834 32.81 2.75732 32.5821 2.52849Z"/>
</svg>
