<svg width="40" height="40" viewBox="0 0 40 40" xmlns="http://www.w3.org/2000/svg">
<path d="M6.64605 35.5414C6.50081 35.396 6.29924 35.3125 6.09377 35.3125C5.8883 35.3125 5.68673 35.396 5.54141 35.5414C5.3961 35.6868 5.3125 35.8883 5.3125 36.0938C5.3125 36.2992 5.39602 36.5008 5.54141 36.646C5.68673 36.7913 5.8883 36.875 6.09377 36.875C6.29924 36.875 6.50081 36.7914 6.64605 36.646C6.79137 36.5008 6.87504 36.2992 6.87504 36.0938C6.87504 35.8883 6.79144 35.6867 6.64605 35.5414Z"/>
<path d="M36.6823 14.292C36.5369 14.1466 36.3362 14.0631 36.1299 14.0631C35.9244 14.0631 35.7229 14.1466 35.5775 14.292C35.4323 14.4373 35.3486 14.6389 35.3486 14.8444C35.3486 15.0498 35.4322 15.2514 35.5775 15.3966C35.7229 15.5419 35.9244 15.6256 36.1299 15.6256C36.3362 15.6256 36.5369 15.542 36.6823 15.3966C36.8283 15.2514 36.9119 15.0498 36.9119 14.8444C36.9119 14.6389 36.8283 14.4373 36.6823 14.292Z"/>
<path d="M39.7712 0.228828C39.6246 0.0823436 39.4258 0 39.2186 0L19.9998 0.00101562C19.5684 0.00101562 19.2186 0.350859 19.2186 0.782264V3.0164L11.813 5.00069C11.3962 5.11241 11.1489 5.54077 11.2606 5.95749L15.0987 20.2811L11.7784 23.6013C11.3558 22.9843 10.6463 22.5785 9.84369 22.5785H2.34373C1.05135 22.5785 0 23.6299 0 24.9221V37.6562C0 38.9485 1.05135 39.9999 2.34373 39.9999H9.84377C10.9417 39.9999 11.8653 39.2409 12.1184 38.2202L13.0474 39.0303C13.7645 39.6556 14.6833 40 15.6348 40H39.2187C39.6501 40 40 39.6502 40 39.2188V0.781249C39.9998 0.574061 39.9177 0.375312 39.7712 0.228828ZM10.6249 37.6563C10.6249 38.087 10.2744 38.4375 9.84361 38.4375H2.34365C1.91286 38.4375 1.56238 38.087 1.56238 37.6563V24.9222C1.56238 24.4914 1.91286 24.141 2.34365 24.141H5.3124V33.1406C5.3124 33.572 5.66225 33.9218 6.09367 33.9218C6.52509 33.9218 6.87494 33.572 6.87494 33.1406V24.141H9.84369C10.2745 24.141 10.625 24.4914 10.625 24.9222L10.6249 37.6563ZM12.972 6.30772L19.2186 4.63398V7.52889L18.695 7.6692C18.4948 7.72288 18.3242 7.85373 18.2206 8.03319C18.117 8.21264 18.0889 8.42584 18.1426 8.626C18.4428 9.74639 17.7755 10.9021 16.6551 11.2023C16.4547 11.2561 16.2839 11.3872 16.1803 11.567C16.0768 11.7468 16.0489 11.9604 16.1031 12.1607L19.1484 23.4371H17.5804L16.7723 20.2758C16.7466 20.1752 16.7016 20.0825 16.6414 20.0018L12.972 6.30772ZM19.2186 11.1116V17.7039L17.7937 12.4277C18.3889 12.1204 18.876 11.6605 19.2186 11.1116ZM30.4426 38.4374H15.6346C15.0608 38.4374 14.5066 38.2298 14.0741 37.8527L12.1874 36.2073V25.4021L15.5983 21.9913L16.2169 24.4116C16.3053 24.7575 16.6168 24.9993 16.9738 24.9993L32.3339 25.0003C32.937 25.0003 33.4276 25.4909 33.4276 26.094C33.4276 26.6971 32.937 27.1878 32.3339 27.1878H24.4634C24.0319 27.1878 23.6821 27.5376 23.6821 27.969C23.6821 28.4004 24.0319 28.7503 24.4634 28.7503H34.7792C35.3824 28.7503 35.873 29.2409 35.873 29.844C35.873 30.4471 35.3824 30.9378 34.7792 30.9378H24.4634C24.0319 30.9378 23.6821 31.2876 23.6821 31.719C23.6821 32.1504 24.0319 32.5003 24.4634 32.5003H33.1076C33.7107 32.5003 34.2013 32.9909 34.2013 33.594C34.2013 34.1971 33.7107 34.6877 33.1076 34.6877H24.4634C24.0319 34.6877 23.6821 35.0376 23.6821 35.469C23.6821 35.9004 24.0319 36.2502 24.4634 36.2502H30.4426C31.0458 36.2502 31.5364 36.7409 31.5364 37.344C31.5363 37.9468 31.0457 38.4374 30.4426 38.4374ZM38.4375 38.4374H32.8623C33.0138 38.1036 33.0989 37.7335 33.0989 37.3437C33.0989 36.9538 33.0138 36.5838 32.8623 36.2499H33.1076C34.5722 36.2499 35.7638 35.0584 35.7638 33.5938C35.7638 33.1666 35.6618 32.7629 35.4818 32.4049C36.6066 32.096 37.4354 31.0652 37.4354 29.8439C37.4354 29.2514 37.2402 28.7036 36.9111 28.2614V18.3599C36.9111 17.9285 36.5612 17.5786 36.1298 17.5786C35.6984 17.5786 35.3486 17.9285 35.3486 18.3599V27.2499C35.165 27.2096 34.9746 27.1878 34.7791 27.1878H34.7535C34.9049 26.8539 34.99 26.4839 34.99 26.094C34.99 24.6293 33.7984 23.4378 32.3338 23.4378H31.0779C32.4114 22.866 33.348 21.5405 33.348 20C33.348 17.9383 31.6708 16.2611 29.6091 16.2611C27.5475 16.2611 25.8702 17.9383 25.8702 20C25.8702 21.5405 26.8069 22.866 28.1403 23.4378H23.8697V8.58303C25.2653 8.27889 26.3666 7.17772 26.6707 5.78202H32.5475C32.8515 7.17772 33.9528 8.27889 35.3485 8.58303V11.0119C35.3485 11.4433 35.6983 11.7932 36.1297 11.7932C36.5612 11.7932 36.911 11.4433 36.911 11.0119V7.88553C36.911 7.45413 36.5612 7.10428 36.1297 7.10428C34.9698 7.10428 34.0263 6.16061 34.0263 5.00077C34.0263 4.56937 33.6764 4.21952 33.245 4.21952H25.9732C25.5418 4.21952 25.192 4.56937 25.192 5.00077C25.192 6.16069 24.2484 7.10428 23.0885 7.10428C22.6571 7.10428 22.3072 7.45413 22.3072 7.88553V23.4378H20.7812V1.56336L38.4375 1.5625V38.4374ZM29.6093 22.1764C28.4092 22.1764 27.4329 21.2 27.4329 20C27.4329 18.8 28.4092 17.8236 29.6093 17.8236C30.8093 17.8236 31.7857 18.8 31.7857 20C31.7857 21.2 30.8094 22.1764 29.6093 22.1764Z"/>
</svg>
