<svg width="40" height="40" viewBox="0 0 40 40" xmlns="http://www.w3.org/2000/svg">
<path d="M36.6641 4.57064C36.622 4.27455 36.3939 4.03158 36.0866 3.95549L20.1995 0.0242577C20.0688 -0.0080859 19.9313 -0.0080859 19.8006 0.0242577L3.91345 3.95549C3.6062 4.03158 3.37813 4.27439 3.33601 4.57064C3.29471 4.86025 2.34397 11.753 3.83784 19.5896C4.72079 24.2216 6.28247 28.207 8.4795 31.4354C11.2518 35.5092 15.0391 38.3763 19.7359 39.9569C19.8213 39.9855 19.9106 40 20 40C20.0894 40 20.1788 39.9856 20.2642 39.9569C24.9611 38.3763 28.7483 35.5092 31.5206 31.4354C33.7176 28.2072 35.2792 24.2216 36.1622 19.5896C37.656 11.7529 36.7052 4.86025 36.6641 4.57064ZM34.619 19.3295C33.7724 23.7703 32.2857 27.576 30.2 30.6407C27.6713 34.3565 24.2406 36.9922 20 38.4781C15.765 36.9943 12.3382 34.3639 9.81061 30.6564C7.72491 27.597 6.23677 23.7977 5.38764 19.3642C4.15157 12.9106 4.64627 6.95891 4.83171 5.25275L20 1.49933L35.1685 5.25275C35.354 6.95407 35.8483 12.8801 34.619 19.3295Z"/>
<path d="M19.9998 7.66589C13.3432 7.66589 7.92773 12.7581 7.92773 19.0172C7.92773 25.2763 13.3432 30.3684 19.9998 30.3684C26.6564 30.3684 32.0719 25.2763 32.0719 19.0172C32.0719 12.7581 26.6564 7.66589 19.9998 7.66589ZM19.9998 28.8943C16.8937 28.8943 14.0985 27.6196 12.1737 25.5978C12.8079 24.2676 13.8089 23.1281 15.0923 22.2847C16.5351 21.3366 18.2322 20.8354 19.9998 20.8354C21.7674 20.8354 23.4645 21.3366 24.9074 22.2848C26.1907 23.128 27.1916 24.2677 27.8258 25.5979C25.901 27.6196 23.106 28.8943 19.9998 28.8943ZM16.3853 15.9624C16.3853 14.0883 18.0067 12.5637 19.9998 12.5637C21.9929 12.5637 23.6144 14.0883 23.6144 15.9624C23.6144 17.8365 21.9928 19.3612 19.9998 19.3612C18.0068 19.3612 16.3853 17.8365 16.3853 15.9624ZM25.8055 21.0765C24.9814 20.5348 24.0869 20.1179 23.1474 19.83C24.3832 18.9386 25.1821 17.5369 25.1821 15.9626C25.1821 13.2756 22.8574 11.0897 19.9998 11.0897C17.1422 11.0897 14.8175 13.2756 14.8175 15.9626C14.8175 17.537 15.6164 18.9386 16.8522 19.83C15.9127 20.1179 15.0182 20.535 14.194 21.0765C12.9099 21.9204 11.8649 23.0158 11.119 24.2864C10.0914 22.7604 9.49556 20.9531 9.49556 19.0172C9.49556 13.5709 14.2078 9.14003 19.9999 9.14003C25.792 9.14003 30.5041 13.5709 30.5041 19.0172C30.5041 20.9531 29.9082 22.7604 28.8806 24.2864C28.1346 23.0157 27.0897 21.9203 25.8055 21.0765Z"/>
</svg>
