<svg width="40" height="41" viewBox="0 0 40 41" xmlns="http://www.w3.org/2000/svg">
<path d="M33.7502 23.75H32.5C32.1548 23.75 31.875 24.0298 31.875 24.375C31.875 24.7202 32.1548 25 32.5 25H33.7502C34.0953 25 34.3752 24.7202 34.3752 24.375C34.3752 24.0298 34.0953 23.75 33.7502 23.75Z"/>
<path d="M26.25 30H13.75C12.7162 30 11.875 30.8412 11.875 31.875C11.875 32.9088 12.7162 33.75 13.75 33.75H26.25C27.2838 33.75 28.125 32.9088 28.125 31.875C28.125 30.8412 27.2838 30 26.25 30ZM26.25 32.5H13.75C13.4054 32.5 13.125 32.2196 13.125 31.875C13.125 31.5304 13.4054 31.25 13.75 31.25H26.25C26.5946 31.25 26.875 31.5304 26.875 31.875C26.875 32.2196 26.5946 32.5 26.25 32.5Z"/>
<path d="M6.875 20C7.22016 20 7.5 19.7202 7.5 19.375V8.75H32.5V19.375C32.5 19.7202 32.7798 20 33.125 20C33.4702 20 33.75 19.7202 33.75 19.375V8.75C33.75 8.06078 33.1892 7.5 32.5 7.5V6.25C32.5 5.56078 31.9392 5 31.25 5V3.75C31.25 3.06078 30.6892 2.5 30 2.5V1.25C30 0.560781 29.4392 0 28.75 0H11.25C10.5608 0 10 0.560781 10 1.25V2.5C9.31078 2.5 8.75 3.06078 8.75 3.75V5C8.06078 5 7.5 5.56078 7.5 6.25V7.5C6.81078 7.5 6.25 8.06078 6.25 8.75V19.375C6.25 19.7202 6.52984 20 6.875 20ZM11.25 1.25H28.75V2.5H11.25V1.25ZM10 3.75H30V5H10V3.75ZM8.75 6.25H31.25V7.5H8.75V6.25Z"/>
<path d="M39.9915 22.9485C39.9775 22.7993 39.9458 22.6553 39.8988 22.5183L37.4891 11.5623C37.336 10.6558 36.5618 10 35.6403 10H35.625C35.2798 10 35 10.2798 35 10.625C35 10.9702 35.2798 11.25 35.625 11.25H35.6403C35.9498 11.25 36.2094 11.4719 36.2577 11.7775C36.2596 11.7898 36.2619 11.8021 36.2645 11.8143L38.3427 21.263C38.2713 21.2548 38.1987 21.25 38.125 21.25H1.875C1.80133 21.25 1.72875 21.2548 1.65727 21.263L3.73539 11.8143C3.73805 11.8021 3.74031 11.7898 3.74227 11.7775C3.79063 11.4719 4.05023 11.25 4.35969 11.25H4.375C4.72016 11.25 5 10.9702 5 10.625C5 10.2798 4.72016 10 4.375 10H4.35969C3.4382 10 2.66391 10.6558 2.51094 11.5623L0.101328 22.5183C0.0542969 22.6553 0.0225781 22.7993 0.00859375 22.9485C0.00171875 22.9914 -0.000625 23.034 0.00125 23.0759C0.00078125 23.0923 0 23.1085 0 23.125V38.125C0 39.1589 0.841094 40 1.875 40H38.125C39.1589 40 40 39.1589 40 38.125V23.125C40 23.1085 39.9992 23.0923 39.9987 23.0759C40.0007 23.034 39.9983 22.9914 39.9915 22.9485ZM38.75 38.125C38.75 38.4696 38.4696 38.75 38.125 38.75H1.875C1.53039 38.75 1.25 38.4696 1.25 38.125V25.625C1.25 25.2804 1.53039 25 1.875 25H29.9999C30.3451 25 30.6249 24.7202 30.6249 24.375C30.6249 24.0298 30.3451 23.75 29.9999 23.75H1.875C1.65594 23.75 1.44562 23.7881 1.25 23.8575V23.125C1.25 23.1205 1.25055 23.1163 1.2507 23.1118L1.30297 22.8742C1.39984 22.6542 1.61961 22.5 1.87508 22.5H38.1251C38.3805 22.5 38.6003 22.6542 38.6972 22.8742L38.7495 23.1118C38.7495 23.1163 38.7502 23.1205 38.7502 23.125V23.8575C38.5545 23.7881 38.3442 23.75 38.1252 23.75H36.2502C35.905 23.75 35.6252 24.0298 35.6252 24.375C35.6252 24.7202 35.905 25 36.2502 25H38.1252C38.4698 25 38.7502 25.2804 38.7502 25.625L38.75 38.125Z"/>
<path d="M18.125 15C18.4702 15 18.75 14.7202 18.75 14.375C18.75 14.0298 18.4702 13.75 18.125 13.75H13.125C12.7798 13.75 12.5 14.0298 12.5 14.375C12.5 14.7202 12.7798 15 13.125 15H18.125Z"/>
<path d="M22.5 11.875C22.5 11.5298 22.2202 11.25 21.875 11.25H13.125C12.7798 11.25 12.5 11.5298 12.5 11.875C12.5 12.2202 12.7798 12.5 13.125 12.5H21.875C22.2202 12.5 22.5 12.2202 22.5 11.875Z"/>
<path d="M10 12.5H10.625C10.9702 12.5 11.25 12.2202 11.25 11.875C11.25 11.5298 10.9702 11.25 10.625 11.25H10C9.65484 11.25 9.375 11.5298 9.375 11.875C9.375 12.2202 9.65484 12.5 10 12.5Z"/>
<path d="M10 15H10.625C10.9702 15 11.25 14.7202 11.25 14.375C11.25 14.0298 10.9702 13.75 10.625 13.75H10C9.65484 13.75 9.375 14.0298 9.375 14.375C9.375 14.7202 9.65484 15 10 15Z"/>
<path d="M10 18.75C9.65484 18.75 9.375 19.0298 9.375 19.375C9.375 19.7202 9.65484 20 10 20H15.625C15.9702 20 16.25 19.7202 16.25 19.375C16.25 19.0298 15.9702 18.75 15.625 18.75H10Z"/>
<path d="M20.625 16.875C20.625 16.5298 20.3452 16.25 20 16.25H10C9.65484 16.25 9.375 16.5298 9.375 16.875C9.375 17.2202 9.65484 17.5 10 17.5H20C20.3452 17.5 20.625 17.2202 20.625 16.875Z"/>
<path d="M30 16.25H26.875C26.5298 16.25 26.25 16.5298 26.25 16.875C26.25 17.2202 26.5298 17.5 26.875 17.5H30C30.3452 17.5 30.625 17.2202 30.625 16.875C30.625 16.5298 30.3452 16.25 30 16.25Z"/>
<path d="M22.5 20H30C30.3452 20 30.625 19.7202 30.625 19.375C30.625 19.0298 30.3452 18.75 30 18.75H22.5C22.1548 18.75 21.875 19.0298 21.875 19.375C21.875 19.7202 22.1548 20 22.5 20Z"/>
</svg>
