<svg width="40" height="40" viewBox="0 0 40 40" xmlns="http://www.w3.org/2000/svg">
<path d="M12.9239 1C11.0731 1 9.56738 2.45104 9.56738 4.23456C9.56738 6.01815 11.0731 7.46919 12.9239 7.46919C14.7746 7.46919 16.2804 6.01815 16.2804 4.23456C16.2804 2.45104 14.7746 1 12.9239 1ZM12.9239 5.96334C11.9346 5.96334 11.1299 5.18779 11.1299 4.23448C11.1299 3.28118 11.9346 2.5057 12.9239 2.5057C13.9131 2.5057 14.7179 3.28125 14.7179 4.23448C14.7179 5.18771 13.9131 5.96334 12.9239 5.96334Z"/>
<path d="M28.1436 1C26.2928 1 24.7871 2.45104 24.7871 4.23456C24.7871 6.01815 26.2929 7.46919 28.1436 7.46919C29.9943 7.46919 31.5001 6.01815 31.5001 4.23456C31.5001 2.45104 29.9944 1 28.1436 1ZM28.1436 5.96334C27.1544 5.96334 26.3496 5.18779 26.3496 4.23448C26.3496 3.28118 27.1544 2.5057 28.1436 2.5057C29.1328 2.5057 29.9376 3.28125 29.9376 4.23448C29.9376 5.18771 29.1328 5.96334 28.1436 5.96334Z"/>
<path d="M39.2188 37.4942H35.2148L35.1791 21.3664C35.1781 20.9511 34.8286 20.6151 34.3978 20.6151H34.3962C33.9648 20.616 33.6157 20.9538 33.6166 21.3696L33.6523 37.4941H28.8021L28.7663 19.8739C28.7663 19.8287 28.7613 19.7847 28.7533 19.7417V18.8899C28.7533 18.1435 28.6362 17.4123 28.4057 16.7081C29.2331 16.2676 30.1634 16.0355 31.1288 16.0334C31.1331 16.0334 31.1371 16.0334 31.1414 16.0334C32.6181 16.0334 34.0063 16.5683 35.0508 17.5404C36.0919 18.5092 36.6669 19.7972 36.6699 21.1682L36.6824 24.5307C36.684 24.9456 37.0334 25.2808 37.4636 25.2808H37.4665C37.8979 25.2793 38.2464 24.9411 38.2449 24.5252L38.2324 21.1639C38.2285 19.383 37.4841 17.7115 36.1362 16.4572C35.4049 15.7768 34.543 15.265 33.6045 14.9396C34.281 14.2655 34.6526 13.3806 34.6505 12.4408C34.646 10.4663 32.9779 8.86306 30.9301 8.86306C30.9274 8.86306 30.9247 8.86306 30.922 8.86306C28.8706 8.86735 27.2052 10.4791 27.2095 12.4561C27.2116 13.4138 27.6006 14.3134 28.3048 14.9892C28.328 15.0114 28.352 15.0323 28.3756 15.0538C28.1743 15.134 27.9767 15.2232 27.7832 15.3212C26.8298 13.6789 25.2734 12.458 23.4322 11.8596C24.2202 11.1368 24.713 10.1175 24.713 8.9888C24.713 6.80233 22.8672 5.02356 20.5984 5.02356C18.3297 5.02356 16.4839 6.80233 16.4839 8.9888C16.4839 10.1753 17.0282 11.241 17.888 11.9683C16.1904 12.5963 14.7583 13.7631 13.8581 15.3018C13.5846 15.1653 13.3029 15.0464 13.0145 14.9454C13.6664 14.2993 14.0691 13.4183 14.0691 12.448C14.0691 10.471 12.4001 8.86261 10.3486 8.86261C8.29711 8.86261 6.62812 10.471 6.62812 12.448C6.62812 13.4707 7.07539 14.3939 7.79047 15.0477C5.24109 16.0567 3.44719 18.4248 3.44719 21.1785V24.541C3.44719 24.9568 3.79703 25.2939 4.22844 25.2939C4.65984 25.2939 5.00969 24.9568 5.00969 24.541V21.1785C5.00969 18.3415 7.49031 16.0334 10.5395 16.0334C11.4916 16.0334 12.4112 16.2577 13.2316 16.6853C12.996 17.3966 12.8764 18.1355 12.8764 18.8899V37.4941H8.16516V21.3747C8.16516 20.9589 7.81531 20.6218 7.38391 20.6218C6.9525 20.6218 6.60266 20.9589 6.60266 21.3747V37.4942H0.78125C0.349844 37.4942 0 37.8313 0 38.2471C0 38.6629 0.349844 39 0.78125 39H39.2188C39.6502 39 40 38.6629 40 38.2471C40 37.8313 39.6502 37.4942 39.2188 37.4942ZM30.9254 10.3688H30.93C32.1177 10.3688 33.0854 11.2989 33.088 12.444C33.0892 12.9995 32.8659 13.5222 32.4592 13.9158C32.0525 14.3095 31.511 14.5269 30.9346 14.5281H30.9298C30.3552 14.5281 29.8147 14.313 29.4073 13.9222C28.9988 13.5302 28.7733 13.0085 28.772 12.453C28.7695 11.3063 29.7355 10.3713 30.9254 10.3688ZM10.3486 14.5277C9.15875 14.5277 8.19062 13.5948 8.19062 12.4481C8.19062 11.3014 9.15867 10.3685 10.3486 10.3685C11.5384 10.3685 12.5066 11.3014 12.5066 12.4481C12.5066 13.5948 11.5384 14.5277 10.3486 14.5277ZM20.5984 6.52941C22.0056 6.52941 23.1505 7.63269 23.1505 8.98887C23.1505 10.345 22.0056 11.4483 20.5984 11.4483C19.1913 11.4483 18.0464 10.345 18.0464 8.98887C18.0464 7.63269 19.1913 6.52941 20.5984 6.52941ZM16.4551 37.4941H14.4389V28.2232C15.0102 28.6274 15.7027 28.8869 16.4551 28.9459V37.4941ZM24.5091 18.3595C24.0777 18.3595 23.7278 18.6966 23.7278 19.1124V37.4942H21.4808V28.4035C21.4808 27.9877 21.1309 27.6506 20.6995 27.6506C20.2681 27.6506 19.9183 27.9877 19.9183 28.4035V37.4941H18.0177V19.1124C18.0177 18.6965 17.6678 18.3595 17.2364 18.3595C16.805 18.3595 16.4552 18.6965 16.4552 19.1124V27.4324C15.3174 27.2847 14.439 26.379 14.439 25.2867V18.89C14.439 18.1194 14.5957 17.3692 14.9045 16.6603L14.9063 16.6559C15.8887 14.407 18.2077 12.954 20.8149 12.954C23.4349 12.954 25.7584 14.4169 26.7345 16.6808C27.0373 17.3834 27.1909 18.1267 27.1909 18.8899V25.2866C27.1909 26.3417 26.3714 27.2225 25.2903 27.4147V19.1124C25.2903 18.6967 24.9405 18.3595 24.5091 18.3595ZM25.2902 37.4941V28.9355C26.0112 28.8586 26.673 28.5966 27.2208 28.2011L27.2397 37.4941H25.2902Z"/>
<path d="M37.4639 28.2419C37.8953 28.2419 38.2451 27.9048 38.2451 27.489C38.2451 27.0732 37.8953 26.7361 37.4639 26.7361C37.0324 26.7361 36.6826 27.0732 36.6826 27.489C36.6826 27.9048 37.0324 28.2419 37.4639 28.2419Z"/>
<path d="M4.22852 28.2419C4.65999 28.2419 5.00977 27.9048 5.00977 27.489C5.00977 27.0732 4.65999 26.7361 4.22852 26.7361C3.79704 26.7361 3.44727 27.0732 3.44727 27.489C3.44727 27.9048 3.79704 28.2419 4.22852 28.2419Z"/>
</svg>
