<svg width="40" height="40" viewBox="0 0 40 40" xmlns="http://www.w3.org/2000/svg">
<path d="M17.2637 19.5793C17.2637 18.0702 18.4915 16.8424 20.0006 16.8424C21.5097 16.8424 22.7376 18.0702 22.7376 19.5793V20.8424C22.7376 21.1913 22.4547 21.474 22.106 21.474C21.7571 21.474 21.4744 21.1913 21.4744 20.8424V19.5793C21.4744 18.7667 20.8132 18.1056 20.0007 18.1056C19.1881 18.1056 18.527 18.7668 18.527 19.5793V26.7372C18.527 27.0862 18.2442 27.3688 17.8954 27.3688C17.5466 27.3688 17.2638 27.0862 17.2638 26.7372L17.2637 19.5793Z"/>
<path d="M22.106 22.7373C22.4548 22.7373 22.7376 23.02 22.7376 23.3689V28.8426C22.7376 30.3518 21.5097 31.5795 20.0006 31.5795C18.4915 31.5795 17.2637 30.3518 17.2637 28.8426C17.2637 28.4937 17.5465 28.211 17.8952 28.211C18.2441 28.211 18.5268 28.4938 18.5268 28.8426C18.5268 29.6552 19.188 30.3163 20.0005 30.3163C20.8131 30.3163 21.4742 29.6551 21.4742 28.8426V23.3689C21.4744 23.02 21.7572 22.7373 22.106 22.7373Z"/>
<path d="M27.6519 6.97294L23.3105 2.63166C22.428 1.74915 21.2524 1.26306 20.0003 1.26306C18.7483 1.26306 17.5727 1.74908 16.6901 2.63166L2.63178 16.69C1.74926 17.5725 1.26315 18.7481 1.26315 20.0001C1.26315 21.2521 1.74926 22.4277 2.63178 23.3102L14.0332 34.7116C14.2799 34.9583 14.2799 35.3581 14.0332 35.6048C13.7866 35.8514 13.3866 35.8514 13.1401 35.6048L1.73863 24.2035C0.617436 23.0822 0 21.5895 0 20.0001C0 18.4108 0.617436 16.9179 1.73863 15.7968L15.7971 1.73853C16.9183 0.617426 18.4111 0 20.0005 0C21.5899 0 23.0827 0.617426 24.2038 1.73853L28.5452 6.07981C28.7918 6.32653 28.7918 6.72638 28.5452 6.97302C28.2986 7.21951 27.8986 7.21951 27.6519 6.97294Z"/>
<path d="M20.0006 9.26339C21.5097 9.26339 22.7376 10.4911 22.7376 12.0003C22.7376 13.5094 21.5097 14.7371 20.0006 14.7371C18.4915 14.7371 17.2637 13.5094 17.2637 12.0002C17.2637 10.4911 18.4915 9.26339 20.0006 9.26339ZM20.0006 13.4739C20.8132 13.4739 21.4743 12.8127 21.4743 12.0002C21.4743 11.1877 20.8131 10.5265 20.0006 10.5265C19.188 10.5265 18.5269 11.1877 18.5269 12.0002C18.5269 12.8127 19.188 13.4739 20.0006 13.4739Z"/>
<path d="M38.2607 24.2035L24.2022 38.2618C21.8845 40.5794 18.1132 40.5795 15.7954 38.2617L14.8227 37.2889C14.576 37.0423 14.5761 36.6424 14.8227 36.3958C15.0694 36.1492 15.4692 36.1492 15.7159 36.3959L16.6886 37.3686C18.5138 39.1938 21.4837 39.1937 23.3089 37.3686L37.3674 23.3103C38.2501 22.4278 38.7362 21.2522 38.7362 20.0002C38.7362 18.7482 38.2501 17.5727 37.3675 16.6901L29.3346 8.65723C29.088 8.41051 29.088 8.01067 29.3346 7.76403C29.4579 7.64074 29.6196 7.5791 29.7812 7.5791C29.9428 7.5791 30.1045 7.64074 30.2278 7.76403L38.2607 15.7969C39.3819 16.918 39.9993 18.4108 39.9993 20.0002C39.9993 21.5896 39.3819 23.0823 38.2607 24.2035Z"/>
<path d="M22.133 4.67484L35.7595 18.3012C36.2127 18.7545 36.4623 19.3578 36.4623 20C36.4623 20.6423 36.2127 21.2457 35.7594 21.6989L21.7009 35.7573C21.2477 36.2104 20.6444 36.46 20.0021 36.46C19.3599 36.46 18.7565 36.2104 18.3034 35.7572L4.24482 21.699C3.79161 21.2457 3.54199 20.6425 3.54199 20.0002C3.54199 19.3579 3.79161 18.7546 4.2449 18.3014L18.3034 4.24304C18.7566 3.78991 19.3599 3.5403 20.0021 3.54022C20.3509 3.54022 20.6336 3.82288 20.6337 4.17171C20.6337 4.52054 20.3511 4.80328 20.0022 4.80336C19.6973 4.80344 19.4111 4.92156 19.1965 5.13625L5.13805 19.1945C4.92343 19.4092 4.80515 19.6952 4.80515 20C4.80515 20.3049 4.92335 20.5911 5.13805 20.8056L19.1966 34.8641C19.4112 35.0787 19.6973 35.1969 20.0021 35.1969C20.307 35.1969 20.5932 35.0787 20.8078 34.8641L34.8662 20.8057C35.0809 20.5911 35.1991 20.305 35.1991 20.0002C35.1991 19.6953 35.0809 19.4092 34.8662 19.1946L21.2398 5.56821C20.9932 5.32149 20.9932 4.92164 21.2398 4.675C21.4864 4.42836 21.8864 4.42836 22.133 4.67484Z"/>
</svg>
