<svg width="40" height="40" viewBox="0 0 40 40" xmlns="http://www.w3.org/2000/svg">
<path d="M22.6489 28.125C22.4879 28.125 22.3267 28.0636 22.2041 27.9419C21.958 27.6974 21.958 27.3025 22.2041 27.0581L22.6489 26.6162C22.895 26.3717 23.2925 26.3717 23.5386 26.6162C23.7846 26.8606 23.7846 27.2555 23.5386 27.5L23.0937 27.9419C22.9712 28.0636 22.8099 28.125 22.6489 28.125Z"/>
<path d="M23.0954 27.683C23.0382 27.683 22.9802 27.6754 22.923 27.6592C22.5888 27.5649 22.3946 27.2192 22.4902 26.8874L23.1967 24.4192C23.291 24.0874 23.6382 23.8924 23.9736 23.9892C24.3076 24.0838 24.502 24.4292 24.4065 24.7613L23.6999 27.2292C23.6213 27.5036 23.3691 27.683 23.0954 27.683Z"/>
<path d="M23.0943 27.6829C22.82 27.6829 22.5684 27.5035 22.4897 27.2285C22.3954 26.8962 22.5883 26.5504 22.9226 26.4567L25.4081 25.756C25.743 25.6599 26.0901 25.8543 26.1854 26.186C26.2797 26.5187 26.0864 26.8641 25.7525 26.9578L23.2666 27.6585C23.2095 27.6753 23.1514 27.6829 23.0943 27.6829Z"/>
<path d="M26.2095 26.3573C26.0482 26.3573 25.8872 26.2963 25.7646 26.1742L23.9853 24.4067C23.7393 24.1625 23.7393 23.7673 23.9853 23.5232C24.2314 23.2787 24.6289 23.2787 24.875 23.5232L26.6543 25.2905C26.9001 25.5349 26.9001 25.9298 26.6543 26.1742C26.5314 26.2963 26.3704 26.3573 26.2095 26.3573Z"/>
<path d="M33.5861 19.0274C33.4251 19.0274 33.2642 18.9664 33.1416 18.8443L31.3623 17.0761C31.1162 16.832 31.1162 16.4368 31.3623 16.1926C31.6084 15.9482 32.0059 15.9482 32.2519 16.1926L34.0309 17.9605C34.277 18.2049 34.277 18.5998 34.0309 18.8443C33.9077 18.967 33.7474 19.0274 33.5861 19.0274Z"/>
<path d="M23.8003 25.2153C23.6393 25.2153 23.478 25.1539 23.3554 25.0319C23.1094 24.7877 23.1094 24.3925 23.3554 24.1484L36.7777 10.8137C37.0237 10.5696 37.4213 10.5696 37.6673 10.8137C37.9134 11.0582 37.9134 11.4534 37.6673 11.6975L24.2451 25.0319C24.1222 25.1539 23.9612 25.2153 23.8003 25.2153Z"/>
<path d="M25.5796 26.9824C25.4183 26.9824 25.2573 26.9214 25.1347 26.7993C24.8887 26.5549 24.8887 26.16 25.1347 25.9155L38.557 12.5818C38.8027 12.3376 39.2005 12.3376 39.4466 12.5818C39.6924 12.8262 39.6924 13.2211 39.4466 13.4656L26.0244 26.7993C25.9015 26.9214 25.7405 26.9824 25.5796 26.9824Z"/>
<path d="M39.0025 13.6486C38.8412 13.6486 38.6803 13.5876 38.5577 13.4655C38.3116 13.2211 38.3109 12.8262 38.557 12.5818C38.8021 12.3376 38.8028 11.9418 38.5577 11.6973C38.3128 11.4544 37.9119 11.4534 37.6673 11.6975C37.4213 11.9407 37.0238 11.9418 36.7778 11.6973C36.5323 11.4526 36.5323 11.0574 36.7784 10.8129C37.5144 10.0842 38.711 10.0842 39.4473 10.8129C40.1834 11.545 40.1827 12.7344 39.4466 13.4656C39.3237 13.5876 39.1635 13.6486 39.0025 13.6486Z"/>
<path d="M39.0025 16.3001C38.8412 16.3001 38.6802 16.2388 38.5577 16.117C38.3116 15.8726 38.3116 15.4777 38.5577 15.2332C38.6759 15.1151 38.742 14.9583 38.742 14.7913C38.742 14.6238 38.6766 14.4675 38.5577 14.3501C38.3116 14.1056 38.3122 13.7106 38.5577 13.4655C38.8034 13.2211 39.2005 13.2224 39.4466 13.4656C39.8027 13.8193 40.0003 14.2899 40.0003 14.7913C40.0003 15.2918 39.8034 15.7633 39.4473 16.117C39.3244 16.2388 39.1635 16.3001 39.0025 16.3001Z"/>
<path d="M34.7385 20.5362C34.5775 20.5362 34.4166 20.4748 34.2937 20.3531C34.0479 20.1086 34.0479 19.7137 34.2937 19.4693L38.5577 15.2332C38.8034 14.9888 39.2012 14.9887 39.4473 15.2331C39.6931 15.4776 39.6931 15.8726 39.4473 16.117L35.1833 20.3531C35.0608 20.4758 34.8998 20.5362 34.7385 20.5362Z"/>
<path d="M39.0019 14.5326C38.8407 14.5326 38.6802 14.4718 38.5577 14.3501L36.333 12.1394C36.0869 11.8953 36.0869 11.5001 36.333 11.2556C36.5791 11.0115 36.9766 11.0115 37.2226 11.2556L39.4466 13.4656C39.6924 13.71 39.6925 14.105 39.4468 14.3495C39.3239 14.4713 39.1629 14.5326 39.0019 14.5326Z"/>
<path d="M28.941 38.125H2.51684C2.16878 38.125 1.8877 37.8458 1.8877 37.5V0.625C1.8877 0.279236 2.16878 0 2.51684 0H25.1661C25.3336 0 25.4933 0.0656128 25.611 0.183105L29.3859 3.93311C29.5035 4.04999 29.5702 4.20868 29.5702 4.375V19.483C29.5702 19.8288 29.2891 20.108 28.941 20.108C28.593 20.108 28.3119 19.8288 28.3119 19.483V4.63379L24.9056 1.25H3.14599V36.875H28.3119V23.0182C28.3119 22.6724 28.593 22.3932 28.941 22.3932C29.2891 22.3932 29.5702 22.6724 29.5702 23.0182V37.5C29.5702 37.8458 29.2891 38.125 28.941 38.125Z"/>
<path d="M25.1653 5C24.8172 5 24.5361 4.72076 24.5361 4.375V0.625C24.5361 0.279236 24.8181 0 25.1661 0C25.5142 0 25.7944 0.279236 25.7944 0.625V4.375C25.7944 4.72076 25.5133 5 25.1653 5Z"/>
<path d="M28.9402 5H25.1653C24.8172 5 24.5361 4.72076 24.5361 4.375C24.5361 4.02924 24.8172 3.75 25.1653 3.75H28.9402C29.2882 3.75 29.5702 4.02924 29.5702 4.375C29.5702 4.72076 29.2882 5 28.9402 5Z"/>
<path d="M23.9069 13.125H7.54907C7.20101 13.125 6.91992 12.8458 6.91992 12.5C6.91992 12.1542 7.20101 11.875 7.54907 11.875H23.9069C24.255 11.875 24.536 12.1542 24.536 12.5C24.536 12.8458 24.255 13.125 23.9069 13.125Z"/>
<path d="M23.9069 16.875H7.54907C7.20101 16.875 6.91992 16.5958 6.91992 16.25C6.91992 15.9042 7.20101 15.625 7.54907 15.625H23.9069C24.255 15.625 24.536 15.9042 24.536 16.25C24.536 16.5958 24.255 16.875 23.9069 16.875Z"/>
<path d="M23.9069 20.625H7.54907C7.20101 20.625 6.91992 20.3458 6.91992 20C6.91992 19.6542 7.20101 19.375 7.54907 19.375H23.9069C24.255 19.375 24.536 19.6542 24.536 20C24.536 20.3458 24.255 20.625 23.9069 20.625Z"/>
<path d="M15.728 24.375H7.54907C7.20101 24.375 6.91992 24.0958 6.91992 23.75C6.91992 23.4042 7.20101 23.125 7.54907 23.125H15.728C16.076 23.125 16.3571 23.4042 16.3571 23.75C16.3571 24.0958 16.076 24.375 15.728 24.375Z"/>
<path d="M23.9072 31.25H19.5032C19.1551 31.25 18.874 30.9708 18.874 30.625C18.874 30.2792 19.1551 30 19.5032 30H23.9072C24.2553 30 24.5363 30.2792 24.5363 30.625C24.5363 30.9708 24.2553 31.25 23.9072 31.25Z"/>
<path d="M22.6497 32.5C22.3016 32.5 22.0205 32.2208 22.0205 31.875V29.375C22.0205 29.0292 22.3016 28.75 22.6497 28.75C22.9977 28.75 23.2788 29.0292 23.2788 29.375V31.875C23.2788 32.2208 22.9977 32.5 22.6497 32.5Z"/>
<path d="M22.6497 32.5C22.4577 32.5 22.2692 32.4136 22.1454 32.25L20.258 29.75C20.0491 29.4745 20.1056 29.0826 20.3836 28.8757C20.6604 28.6682 21.0548 28.7237 21.2637 29.0005L23.1512 31.5005C23.3601 31.7761 23.3035 32.1683 23.0255 32.3749C22.9128 32.4594 22.7811 32.5 22.6497 32.5Z"/>
<path d="M20.761 32.5C20.4129 32.5 20.1318 32.2208 20.1318 31.875V29.375C20.1318 29.0292 20.4129 28.75 20.761 28.75C21.109 28.75 21.3901 29.0292 21.3901 29.375V31.875C21.3901 32.2208 21.109 32.5 20.761 32.5Z"/>
<path d="M27.053 40C26.7049 40 26.4238 39.7208 26.4238 39.375V37.5C26.4238 37.1542 26.7049 36.875 27.053 36.875C27.401 36.875 27.6821 37.1542 27.6821 37.5V39.375C27.6821 39.7208 27.401 40 27.053 40Z"/>
<path d="M27.053 40H0.629147C0.281089 40 0 39.7208 0 39.375C0 39.0292 0.281089 38.75 0.629147 38.75H27.0533C27.4014 38.75 27.6821 39.0292 27.6821 39.375C27.6821 39.7208 27.401 40 27.053 40Z"/>
<path d="M0.629147 40C0.281089 40 0 39.7208 0 39.375V2.5C0 2.15424 0.281089 1.875 0.629147 1.875C0.977206 1.875 1.25829 2.15424 1.25829 2.5V39.375C1.25829 39.7208 0.977206 40 0.629147 40Z"/>
<path d="M2.51659 3.125H0.629147C0.281089 3.125 0 2.84576 0 2.5C0 2.15424 0.281089 1.875 0.629147 1.875H2.51659C2.86465 1.875 3.14574 2.15424 3.14574 2.5C3.14574 2.84576 2.86465 3.125 2.51659 3.125Z"/>
</svg>
