<svg width="40" height="40" viewBox="0 0 40 40" xmlns="http://www.w3.org/2000/svg">
<path d="M10.7598 6.25942C5.92967 6.25942 2 10.1751 2 14.9881C2 19.8011 5.92959 23.7168 10.7598 23.7168C15.5899 23.7168 19.5196 19.8011 19.5196 14.9881C19.5196 10.1751 15.59 6.25942 10.7598 6.25942ZM10.7598 22.5426C6.57948 22.5426 3.17841 19.1536 3.17841 14.9881C3.17841 10.8225 6.57932 7.43364 10.7598 7.43364C14.9402 7.43364 18.3412 10.8225 18.3412 14.9881C18.3412 19.1536 14.9402 22.5426 10.7598 22.5426Z"/>
<path fill-rule="evenodd" clip-rule="evenodd" d="M9.71289 16.7273V16.4767H11.4326C12.2588 16.4767 12.8916 16.2417 13.333 15.772C13.7773 15.2981 14 14.6243 14 13.7507C14 12.9224 13.7725 12.2569 13.3184 11.7542C12.8672 11.2514 12.2412 11 11.4424 11H9.1543C8.93066 11 8.75 11.1919 8.75 11.4286V16.7273H8.40918C8.18359 16.7273 8 16.9104 8 17.1364C8 17.3623 8.18359 17.5455 8.40918 17.5455H8.75V19.5714C8.75 19.8081 8.93066 20 9.1543 20H9.30859C9.53223 20 9.71289 19.8081 9.71289 19.5714V17.5455H10.5908C10.8164 17.5455 11 17.3623 11 17.1364C11 16.9104 10.8164 16.7273 10.5908 16.7273H9.71289ZM11.4424 15.5062H9.71289V11.9767H11.498C11.9756 11.989 12.3516 12.1559 12.626 12.4773C12.9004 12.7987 13.0371 13.2273 13.0371 13.7631C13.0371 14.1106 12.9854 14.4081 12.8818 14.6557C12.8164 14.8103 12.7314 14.9455 12.626 15.0612C12.3516 15.3578 11.957 15.5062 11.4424 15.5062Z"/>
<path d="M20.1874 28.7271C20.5128 28.7271 20.7766 28.4642 20.7766 28.1399V24.3823C20.7766 24.0581 20.5128 23.7952 20.1874 23.7952H3.84617C3.5208 23.7952 3.25697 24.0581 3.25697 24.3823V27.5528H2.5892C2.26383 27.5528 2 27.8157 2 28.1399V31.8976C2 32.2218 2.26383 32.4847 2.5892 32.4847H3.25697V35.0681H2.5892C2.26383 35.0681 2 35.331 2 35.6552V39.4128C2 39.7371 2.26383 40 2.5892 40H18.9304C19.2558 40 19.5196 39.7371 19.5196 39.4128V36.2423H20.1874C20.5128 36.2423 20.7766 35.9794 20.7766 35.6552V31.8975C20.7766 31.5733 20.5128 31.3104 20.1874 31.3104H19.5196V28.7271H20.1874ZM3.17833 31.3104V28.7271H18.3411V31.3104H3.17833ZM18.3411 38.8257H3.17833V36.2424H18.3411V38.8257ZM19.5982 32.4847V35.0681H4.43537V32.4847H19.5982ZM4.43537 27.5528V24.9694H19.5982V27.5528H4.43537Z"/>
<path d="M38.8684 19.7486L30.0693 30.3953C29.8372 30.676 29.3916 30.676 29.1595 30.3953L20.3605 19.7486C20.0499 19.3728 20.3278 18.7882 20.8154 18.7882H24.6257V0.587111C24.6257 0.262892 24.8895 0 25.2149 0H34.014C34.3394 0 34.6032 0.262892 34.6032 0.587111V3.05305C34.6032 3.37727 34.3394 3.64016 34.014 3.64016C33.6886 3.64016 33.4248 3.37727 33.4248 3.05305V1.17422H25.8042V19.3753C25.8042 19.6996 25.5404 19.9624 25.215 19.9624H22.064L29.6145 29.0984L37.165 19.9624H34.0141C33.6887 19.9624 33.4249 19.6996 33.4249 19.3753V5.83212C33.4249 5.5079 33.6887 5.24501 34.0141 5.24501C34.3394 5.24501 34.6033 5.5079 34.6033 5.83212V18.7882H38.4136C38.901 18.7882 39.1791 19.3728 38.8684 19.7486Z"/>
<path d="M34.0143 32.563H25.2152C24.8898 32.563 24.626 32.8259 24.626 33.1501C24.626 33.4743 24.8898 33.7372 25.2152 33.7372H34.0143C34.3396 33.7372 34.6035 33.4743 34.6035 33.1501C34.6035 32.8259 34.3397 32.563 34.0143 32.563Z"/>
<path d="M34.0143 35.6944H25.2152C24.8898 35.6944 24.626 35.9572 24.626 36.2815C24.626 36.6057 24.8898 36.8686 25.2152 36.8686H34.0143C34.3396 36.8686 34.6035 36.6057 34.6035 36.2815C34.6035 35.9572 34.3397 35.6944 34.0143 35.6944Z"/>
<path d="M34.0143 38.8258H25.2152C24.8898 38.8258 24.626 39.0887 24.626 39.4129C24.626 39.7371 24.8898 40 25.2152 40H34.0143C34.3396 40 34.6035 39.7371 34.6035 39.4129C34.6035 39.0887 34.3397 38.8258 34.0143 38.8258Z"/>
</svg>
