<svg width="40" height="40" viewBox="0 0 40 40" xmlns="http://www.w3.org/2000/svg">
<path d="M28.2776 27.026L26.282 26.0156C24.7171 25.1021 22.6756 25.5769 21.7221 27.076C21.7 27.1107 21.6786 27.1459 21.6579 27.1814L20.7493 28.4871C16.4845 25.6855 12.8033 22.1456 9.89494 18.0493L11.2578 17.1866C12.2394 16.5493 13.6915 15.096 12.3692 12.5934L11.4201 10.8447C10.0166 8.35762 7.94797 8.66073 6.83657 9.07264L2.2044 10.8291C1.2372 11.137 0.477068 11.8622 0.151965 12.7877C-0.164723 14.0515 0.0172991 15.3829 0.663045 16.526C5.40798 25.5074 13.0259 32.8003 22.4042 37.3394C23.2202 37.7463 24.1213 37.9721 25.0408 38.0001C26.4655 38.0075 27.751 37.1824 28.2857 35.9172V35.8628L30.1272 31.4094C30.5491 30.3446 30.8655 28.3628 28.2776 27.026ZM29.0239 30.9897L27.223 35.3964C26.9779 35.9647 26.5085 36.4172 25.9169 36.6555C24.9148 36.9161 23.8451 36.7729 22.9559 36.2591C13.7992 31.8289 6.36058 24.7104 1.72577 15.9431C1.24551 15.0758 1.09898 14.0744 1.31204 13.1141C1.52894 12.5241 2.02593 12.0682 2.65058 11.8861L7.28275 10.1296C7.61039 10.0025 7.95963 9.93398 8.31302 9.92757C9.22668 9.98945 10.022 10.5487 10.3573 11.3654L11.2903 13.1141C11.7365 13.9535 12.1502 15.197 10.5845 16.2229L8.71053 17.412C8.44982 17.5882 8.37549 17.9274 8.54017 18.1892C11.7149 22.7983 15.829 26.7452 20.6357 29.7928C20.909 29.9506 21.263 29.8794 21.447 29.6296L22.6882 27.8343C23.2023 26.8376 24.4623 26.4289 25.5027 26.9214C25.587 26.9613 25.6685 27.0067 25.7465 27.0571L27.726 28.0519C28.6021 28.5027 29.6892 29.3032 29.0239 30.9897Z"/>
<path d="M35.0596 8.91709C34.6783 5.03108 30.4761 2 25.3247 2C19.9462 2 15.5898 5.35751 15.5898 9.48445C15.6491 11.7144 16.8309 13.7792 18.7618 15.0259V19.6347C18.7618 19.9566 19.0342 20.2176 19.3701 20.2177C19.5235 20.2177 19.6714 20.1621 19.7839 20.0622L23.4589 16.8445C23.7509 16.8912 24.0348 16.9223 24.3269 16.9456C25.5275 19.3471 28.5048 20.9326 31.8876 20.9326C32.3955 20.933 32.9026 20.8966 33.4046 20.8238L36.3819 23.4352C36.6283 23.6541 37.0132 23.6402 37.2417 23.4042C37.346 23.2964 37.404 23.1548 37.404 23.0077V19.2772C38.9916 18.2294 39.9573 16.5149 40 14.6684C40 12.158 38.0287 9.88859 35.0596 8.91709ZM25.2192 15.8109C24.5988 15.81 23.9798 15.7554 23.3696 15.6476C23.1832 15.613 22.9907 15.6648 22.8504 15.7875L19.9786 18.3057V14.7228C19.9782 14.5295 19.8781 14.3491 19.7109 14.2409C17.977 13.2246 16.8874 11.4459 16.8067 9.49999C16.8067 6.01813 20.6357 3.18135 25.3409 3.18135C30.0461 3.18135 33.8752 6.01813 33.8752 9.49999C33.8716 9.86644 33.8254 10.2314 33.7372 10.5881C33.3658 11.8269 32.6241 12.9345 31.6037 13.7746C29.7852 15.1399 27.529 15.8595 25.2192 15.8109ZM36.4468 18.4689C36.2797 18.5771 36.1795 18.7575 36.1791 18.9508V21.6632L34.005 19.759C33.8924 19.6591 33.7447 19.6036 33.5912 19.6036H33.4776C32.9424 19.6979 32.3993 19.7448 31.8552 19.7435C29.4719 19.8259 27.1926 18.8049 25.7303 17C28.2033 16.913 30.5813 16.0656 32.5123 14.5829C33.7254 13.5838 34.5773 12.2426 34.946 10.7513C34.946 10.5881 35.019 10.4404 35.0352 10.3005V10.2072C37.3148 11.0388 38.7831 12.7798 38.7831 14.6684C38.7185 16.2303 37.8412 17.6573 36.4468 18.4689Z"/>
</svg>
