<svg width="40" height="40" viewBox="0 0 40 40" xmlns="http://www.w3.org/2000/svg">
<path d="M38.3267 18H36V13.8213C36 12.8173 35.1827 12 34.1787 12H33.3333V0H6.66667V1.33333H4.66667V2.66667H2.66667V7.33333H1.82133C0.817333 7.33333 0 8.15067 0 9.15467V38.2793H0.004C0.000666667 38.6547 0.117333 39.022 0.352 39.3293C0.678667 39.756 1.17333 40 1.71 40H31.5493C32.3207 40 32.9993 39.48 33.182 38.7913L40 20.0993V19.9813C40 18.8333 39.296 18 38.3267 18ZM34.1787 13.3333C34.448 13.3333 34.6667 13.552 34.6667 13.8213V18H33.3333V13.3333H34.1787ZM32 1.33333V18H8.48733C8.332 18 8.18267 18.026 8.038 18.0653C8.026 18.0687 8.012 18.0673 8 18.0707V1.33333H32ZM6.66667 2.66667V19.7233L6 21.5507V2.66667H6.66667ZM4 4H4.66667V25.2067L4 27.034V4ZM1.33333 9.15467C1.33333 8.88533 1.55267 8.66667 1.82133 8.66667H2.66667V30.6287L1.33333 34.2653V9.15467ZM31.912 38.3893C31.8687 38.5527 31.7193 38.6667 31.5493 38.6667H1.71C1.548 38.6667 1.45333 38.574 1.41133 38.5187C1.36933 38.464 1.30467 38.348 1.32933 38.2467L6.66667 23.614V23.616L7.95467 20.082L8 19.9587L8.10667 19.666L8.124 19.6113C8.168 19.448 8.318 19.3333 8.48733 19.3333H38.3267C38.5793 19.3333 38.6447 19.6973 38.6607 19.8793L31.912 38.3893Z"/>
<path d="M11.9997 11.3333H27.9997C28.3677 11.3333 28.6663 11.0353 28.6663 10.6667C28.6663 10.298 28.3677 10 27.9997 10H11.9997C11.6317 10 11.333 10.298 11.333 10.6667C11.333 11.0353 11.6317 11.3333 11.9997 11.3333Z"/>
<path d="M11.9997 6.66671H18.6663C19.0343 6.66671 19.333 6.36871 19.333 6.00004C19.333 5.63137 19.0343 5.33337 18.6663 5.33337H11.9997C11.6317 5.33337 11.333 5.63137 11.333 6.00004C11.333 6.36871 11.6317 6.66671 11.9997 6.66671Z"/>
<path d="M11.9997 16H27.9997C28.3677 16 28.6663 15.702 28.6663 15.3333C28.6663 14.9646 28.3677 14.6666 27.9997 14.6666H11.9997C11.6317 14.6666 11.333 14.9646 11.333 15.3333C11.333 15.702 11.6317 16 11.9997 16Z"/>
</svg>
