<svg width="40" height="40" viewBox="0 0 40 40" xmlns="http://www.w3.org/2000/svg">
<path fill-rule="evenodd" clip-rule="evenodd" d="M20 1.72072C11.5248 1.72072 4.7 8.55985 4.7 16.9398C4.7 22.2727 7.4576 26.9758 11.6557 29.6986C12.9259 30.5224 14.7842 32.3287 16.4269 34.0246C17.7747 35.4161 19.0841 36.8469 20 37.8646C20.9159 36.8469 22.2253 35.4161 23.5731 34.0246C25.2158 32.3287 27.0741 30.5224 28.3443 29.6986C32.5424 26.9758 35.3 22.2727 35.3 16.9398C35.3 8.55985 28.4752 1.72072 20 1.72072ZM29.2615 31.1474C33.9199 28.126 37 22.8913 37 16.9398C37 7.58421 29.3888 0 20 0C10.6112 0 3 7.58421 3 16.9398C3 22.8913 6.08008 28.126 10.7385 31.1474C12.8974 32.5476 17.6379 37.7773 19.3593 39.7117C19.7014 40.0961 20.2986 40.0961 20.6407 39.7117C22.3621 37.7773 27.1026 32.5476 29.2615 31.1474Z"/>
<path fill-rule="evenodd" clip-rule="evenodd" d="M20 25.8108C24.6944 25.8108 28.5 21.9589 28.5 17.2072C28.5 12.4556 24.6944 8.60361 20 8.60361C15.3056 8.60361 11.5 12.4556 11.5 17.2072C11.5 21.9589 15.3056 25.8108 20 25.8108ZM20 27.5316C25.6333 27.5316 30.2 22.9092 30.2 17.2072C30.2 11.5053 25.6333 6.88289 20 6.88289C14.3667 6.88289 9.8 11.5053 9.8 17.2072C9.8 22.9092 14.3667 27.5316 20 27.5316Z"/>
</svg>
