<svg width="40" height="40" viewBox="0 0 40 40" xmlns="http://www.w3.org/2000/svg">
<path d="M30.2858 13.5783C29.97 13.2533 29.4568 13.2533 29.1411 13.5783L18.3809 24.655L12.4762 18.5783C12.1605 18.2533 11.6472 18.2533 11.3315 18.5783C11.0158 18.9033 11.0158 19.4317 11.3315 19.7567L17.8077 26.4234C17.9664 26.585 18.1736 26.6667 18.3808 26.6667C18.5881 26.6667 18.7953 26.5851 18.9524 26.4234L30.2857 14.7567C30.6015 14.4316 30.6015 13.9033 30.2858 13.5783Z"/>
<path d="M36.422 5.03498L20.2315 0.0349805C20.0794 -0.0116602 19.9191 -0.0116602 19.7669 0.0349805L3.57641 5.03498C3.23474 5.13998 3 5.46498 3 5.83334V24.1667C3 31.5367 13.9156 38.0917 19.7604 39.9634C19.8381 39.9884 19.9191 40 20 40C20.0809 40 20.1619 39.9884 20.2396 39.9634C26.0844 38.09 37 31.5366 37 24.1666V5.83334C37 5.46498 36.7653 5.14162 36.422 5.03498ZM35.381 24.1666C35.381 30.0183 26.3742 36.1716 20 38.2933C13.6258 36.1716 4.61902 30.0183 4.61902 24.1666V6.45334L20 1.70334L35.381 6.45334V24.1666Z"/>
</svg>
