<svg width="46" height="40" viewBox="0 0 46 40" xmlns="http://www.w3.org/2000/svg">
<path d="M14.8362 14.0471C14.245 14.527 13.9072 15.2377 13.9072 15.9852V18.2464C13.9072 18.754 14.3201 19.1601 14.8362 19.1601C15.3524 19.1601 15.7652 18.754 15.7652 18.2464V15.9852C15.7652 15.7822 15.8591 15.5884 16.0186 15.4592C18.0268 13.844 20.1945 12.7642 20.6167 12.5611C20.9827 12.3858 21.2267 12.0074 21.2267 11.6105V8.4264C21.2267 8.12183 21.0672 7.83572 20.8138 7.66959C20.6543 7.55884 20.551 7.38348 20.551 7.18966V3.88556C20.551 2.75035 21.4894 1.82741 22.6437 1.82741H23.3662C24.5204 1.82741 25.4588 2.75035 25.4588 3.88556V7.18966C25.4588 7.38348 25.365 7.55884 25.1961 7.66959C24.9333 7.83572 24.7832 8.12183 24.7832 8.4264V11.6105C24.7832 12.0166 25.0178 12.3858 25.3838 12.5611C25.7967 12.7642 27.9737 13.844 29.9819 15.4592C30.1414 15.5884 30.2353 15.7822 30.2353 15.9852V18.2464C30.2353 18.754 30.6481 19.1601 31.1643 19.1601C31.6804 19.1601 32.0933 18.754 32.0933 18.2464V15.9852C32.0933 15.2284 31.7555 14.5178 31.1643 14.0471C29.4001 12.6258 27.5233 11.5921 26.6412 11.1398V8.84172C27.0729 8.39871 27.3169 7.80803 27.3169 7.18043V3.88556C27.3169 1.74435 25.5433 0 23.3662 0H22.6437C20.4666 0 18.693 1.74435 18.693 3.88556V7.18966C18.693 7.81726 18.937 8.40794 19.3687 8.85095V11.1398C18.4772 11.5921 16.6004 12.6258 14.8362 14.0471Z"/>
<path d="M45.0709 40C45.587 40 45.9999 39.594 45.9999 39.0863V36.8251C45.9999 36.0683 45.6621 35.3577 45.0709 34.887C43.3067 33.4657 41.4299 32.432 40.5478 31.9797V29.6816C40.9795 29.2386 41.2235 28.6479 41.2235 28.0204V24.7162C41.2235 22.575 39.4499 20.8307 37.2729 20.8307H36.5503C34.3732 20.8307 32.5997 22.575 32.5997 24.7162V28.0204C32.5997 28.6479 32.8436 29.2386 33.2753 29.6816V31.9797C32.3932 32.432 30.5164 33.4657 28.7523 34.887C28.1611 35.3669 27.8232 36.0683 27.8232 36.8251V39.0863C27.8232 39.594 28.2361 40 28.7523 40C29.2684 40 29.6813 39.594 29.6813 39.0863V36.8251C29.6813 36.6221 29.7751 36.4283 29.9346 36.2991C31.9428 34.6747 34.1105 33.5949 34.5327 33.4011C34.8987 33.2257 35.1333 32.8473 35.1333 32.4504V29.2663C35.1333 28.9617 34.9738 28.6756 34.7204 28.5095C34.5609 28.3988 34.4577 28.2234 34.4577 28.0296V24.7255C34.4577 23.5903 35.3961 22.6673 36.5503 22.6673H37.2729C38.4271 22.6673 39.3655 23.5903 39.3655 24.7255V28.0296C39.3655 28.2234 39.2716 28.3988 39.1027 28.5095C38.84 28.6756 38.6898 28.9617 38.6898 29.2663V32.4504C38.6898 32.8565 38.9244 33.2257 39.2904 33.4011C39.7033 33.6041 41.8804 34.6839 43.8885 36.2991C44.048 36.4283 44.1419 36.6221 44.1419 36.8251V39.0863C44.1419 39.594 44.5642 40 45.0709 40Z"/>
<path d="M17.2477 34.887C15.4835 33.4657 13.6067 32.432 12.7246 31.9797V29.6816C13.1563 29.2386 13.4002 28.6479 13.4002 28.0204V24.7162C13.4002 22.575 11.6267 20.8307 9.44961 20.8307H8.72705C6.54998 20.8307 4.77642 22.575 4.77642 24.7162V28.0204C4.77642 28.6479 5.0204 29.2386 5.45206 29.6816V31.9797C4.56997 32.432 2.69319 33.4657 0.929009 34.887C0.337821 35.3669 0 36.0683 0 36.8251V39.0863C0 39.594 0.412893 40 0.929009 40C1.44512 40 1.85802 39.594 1.85802 39.0863V36.8251C1.85802 36.6221 1.95186 36.4283 2.11138 36.2991C4.11954 34.6747 6.28723 33.5949 6.70951 33.4011C7.07548 33.2257 7.31008 32.8473 7.31008 32.4504V29.2663C7.31008 28.9617 7.15055 28.6756 6.89718 28.5095C6.73766 28.3988 6.63443 28.2234 6.63443 28.0296V24.7255C6.63443 23.5903 7.57283 22.6673 8.72705 22.6673H9.44961C10.6038 22.6673 11.5422 23.5903 11.5422 24.7255V28.0296C11.5422 28.2234 11.4484 28.3988 11.2795 28.5095C11.0167 28.6756 10.8666 28.9617 10.8666 29.2663V32.4504C10.8666 32.8565 11.1012 33.2257 11.4672 33.4011C11.88 33.6041 14.0571 34.6747 16.0653 36.2991C16.2248 36.4283 16.3186 36.6221 16.3186 36.8251V39.0863C16.3186 39.594 16.7315 40 17.2477 40C17.7638 40 18.1767 39.594 18.1767 39.0863V36.8251C18.1767 36.0683 17.8388 35.3577 17.2477 34.887Z"/>
<path d="M28.2838 29.4324C28.434 29.5155 28.5935 29.5524 28.7437 29.5524C29.0627 29.5524 29.3818 29.3863 29.5507 29.091C29.804 28.6572 29.6539 28.0942 29.2129 27.845L24.0048 24.8916V18.9756C24.0048 18.468 23.5919 18.0619 23.0758 18.0619C22.5596 18.0619 22.1468 18.468 22.1468 18.9756V24.8916L16.9387 27.8542C16.4976 28.1034 16.3381 28.6664 16.6009 29.1002C16.7698 29.3955 17.0888 29.5617 17.4079 29.5617C17.5674 29.5617 17.7269 29.5247 17.8677 29.4417L23.0758 26.4791L28.2838 29.4324Z"/>
</svg>
