<svg width="40" height="41" viewBox="0 0 40 41" xmlns="http://www.w3.org/2000/svg">
<path d="M35.9232 2.66663H4.07692C2.93186 2.66663 2 3.56397 2 4.66663V38C2 39.1026 2.93186 40 4.07692 40H35.9231C37.0681 40 38 39.1026 38 38V4.66663C38.0001 3.56397 37.0682 2.66663 35.9232 2.66663ZM36.6154 38C36.6154 38.3673 36.3053 38.6666 35.9232 38.6666H4.07692C3.6948 38.6666 3.38464 38.3673 3.38464 38V4.66663C3.38464 4.29928 3.6948 3.99999 4.07692 3.99999H35.9231C36.3052 3.99999 36.6154 4.29928 36.6154 4.66663L36.6154 38Z"/>
<path d="M16.5387 0H6.84646C5.70139 0 4.76953 0.897344 4.76953 2V3.33336C4.76953 3.70133 5.07896 4 5.46181 4H17.9234C18.3062 4 18.6156 3.70133 18.6156 3.33336V2C18.6156 0.897344 17.6838 0 16.5387 0ZM17.2311 2.66664H6.15409V2C6.15409 1.63266 6.46425 1.33336 6.84637 1.33336H16.5387C16.9208 1.33336 17.231 1.63266 17.231 2L17.2311 2.66664Z"/>
<path d="M33.153 0H23.4607C22.3156 0 21.3838 0.897344 21.3838 2V3.33336C21.3838 3.70133 21.6932 4 22.0761 4H34.5376C34.9205 4 35.2299 3.70133 35.2299 3.33336V2C35.2299 0.897344 34.298 0 33.153 0ZM33.8453 2.66664H22.7684V2C22.7684 1.63266 23.0785 1.33336 23.4606 1.33336H33.153C33.5351 1.33336 33.8453 1.63266 33.8453 2L33.8453 2.66664Z"/>
<path d="M35.9232 2.66663H4.07692C2.93186 2.66663 2 3.56397 2 4.66663V11.3333C2 11.7012 2.30943 11.9999 2.69228 11.9999H37.3077C37.6906 11.9999 38 11.7012 38 11.3333V4.66663C38.0001 3.56397 37.0682 2.66663 35.9232 2.66663ZM36.6154 10.6666H3.38464V4.66663C3.38464 4.29928 3.6948 3.99999 4.07692 3.99999H35.9231C36.3052 3.99999 36.6154 4.29928 36.6154 4.66663L36.6154 10.6666Z"/>
<path d="M23.462 5.33337H16.539C16.1561 5.33337 15.8467 5.63205 15.8467 6.00002V8.66666C15.8467 9.03462 16.1561 9.3333 16.539 9.3333H23.462C23.8449 9.3333 24.1543 9.03462 24.1543 8.66666V6.00002C24.1543 5.63205 23.8449 5.33337 23.462 5.33337ZM22.7697 8.00002H17.2312V6.66666H22.7697V8.00002Z"/>
<path d="M13.7701 5.33337H11.0009C10.618 5.33337 10.3086 5.63205 10.3086 6.00002V8.66666C10.3086 9.03462 10.618 9.3333 11.0009 9.3333H13.7701C14.1529 9.3333 14.4624 9.03462 14.4624 8.66666V6.00002C14.4624 5.63205 14.1529 5.33337 13.7701 5.33337ZM13.0778 8.00002H11.6932V6.66666H13.0778V8.00002Z"/>
<path d="M8.23102 5.33337H5.46181C5.07896 5.33337 4.76953 5.63205 4.76953 6.00002V8.66666C4.76953 9.03462 5.07896 9.3333 5.46181 9.3333H8.23102C8.61387 9.3333 8.9233 9.03462 8.9233 8.66666V6.00002C8.92338 5.63205 8.61387 5.33337 8.23102 5.33337ZM7.53874 8.00002H6.15409V6.66666H7.53874V8.00002Z"/>
<path d="M34.5386 5.33337H31.7694C31.3866 5.33337 31.0771 5.63205 31.0771 6.00002V8.66666C31.0771 9.03462 31.3866 9.3333 31.7694 9.3333H34.5386C34.9215 9.3333 35.2309 9.03462 35.2309 8.66666V6.00002C35.2309 5.63205 34.9215 5.33337 34.5386 5.33337ZM33.8464 8.00002H32.4617V6.66666H33.8464V8.00002Z"/>
<path d="M28.9996 5.33337H26.2304C25.8475 5.33337 25.5381 5.63205 25.5381 6.00002V8.66666C25.5381 9.03462 25.8475 9.3333 26.2304 9.3333H28.9996C29.3824 9.3333 29.6919 9.03462 29.6919 8.66666V6.00002C29.6919 5.63205 29.3824 5.33337 28.9996 5.33337ZM28.3073 8.00002H26.9226V6.66666H28.3073V8.00002Z"/>
<path d="M33.8466 13.3334H6.15419C5.77134 13.3334 5.46191 13.632 5.46191 14V18C5.46191 18.368 5.77134 18.6667 6.15419 18.6667H33.8465C34.2293 18.6667 34.5388 18.368 34.5388 18V14C34.5389 13.632 34.2294 13.3334 33.8466 13.3334ZM33.1542 17.3334H6.84656V14.6667H33.1543L33.1542 17.3334Z"/>
<path d="M33.8466 17.3334H6.15419C5.77134 17.3334 5.46191 17.632 5.46191 18V34C5.46191 34.368 5.77134 34.6667 6.15419 34.6667H33.8465C34.2293 34.6667 34.5388 34.368 34.5388 34V18C34.5389 17.632 34.2294 17.3334 33.8466 17.3334ZM33.1542 33.3334H6.84656V18.6667H33.1543L33.1542 33.3334Z"/>
<path d="M13.0766 36H9.61501C8.46994 36 7.53809 36.8973 7.53809 38V39.3334C7.53809 39.7013 7.84751 40 8.23037 40H14.4611C14.844 40 15.1534 39.7013 15.1534 39.3334V38C15.1535 36.8973 14.2216 36 13.0766 36ZM13.7689 38.6666H8.92273V38C8.92273 37.6327 9.23289 37.3334 9.61501 37.3334H13.0766C13.4587 37.3334 13.7689 37.6327 13.7689 38V38.6666Z"/>
<path d="M12.874 20.1953C12.6033 19.9347 12.1657 19.9347 11.8951 20.1953L8.43352 23.5287C8.16279 23.7894 8.16279 24.2107 8.43352 24.4714C8.56852 24.6014 8.74579 24.6667 8.92297 24.6667C9.10024 24.6667 9.27743 24.6014 9.41243 24.4714L12.874 21.138C13.1447 20.8774 13.1447 20.456 12.874 20.1953Z"/>
<path d="M16.336 20.1953C16.0653 19.9347 15.6278 19.9347 15.3571 20.1953L13.2802 22.1953C13.0095 22.456 13.0095 22.8774 13.2802 23.138C13.4152 23.268 13.5925 23.3333 13.7697 23.3333C13.9469 23.3333 14.1241 23.268 14.2591 23.138L16.336 21.138C16.6068 20.8774 16.6068 20.456 16.336 20.1953Z"/>
<path d="M10.7971 25.5287C10.5263 25.268 10.0888 25.268 9.81816 25.5287L8.43352 26.862C8.16279 27.1227 8.16279 27.544 8.43352 27.8047C8.56852 27.9347 8.74579 28 8.92297 28C9.10024 28 9.27743 27.9347 9.41243 27.8047L10.7971 26.4713C11.0678 26.2107 11.0678 25.7893 10.7971 25.5287Z"/>
<path d="M12.8742 23.5287C12.6035 23.268 12.1659 23.268 11.8953 23.5287L11.203 24.1953C10.9323 24.456 10.9323 24.8773 11.203 25.138C11.338 25.268 11.5153 25.3333 11.6924 25.3333C11.8697 25.3333 12.0469 25.268 12.1819 25.138L12.8742 24.4713C13.1449 24.2107 13.1449 23.7893 12.8742 23.5287Z"/>
</svg>
