<svg width="40" height="40" viewBox="0 0 40 40" xmlns="http://www.w3.org/2000/svg">
<path d="M8.7512 31.4474C8.12595 30.8173 7.29468 30.4704 6.41059 30.4704C5.88831 30.4704 5.38486 30.5924 4.93102 30.8214C0.47128 24.4539 0.455811 15.7283 4.96875 9.34548C5.21907 8.99134 5.13719 8.49973 4.78578 8.24739C4.43436 7.99505 3.94653 8.07757 3.69614 8.43171C1.20677 11.9526 -0.0702978 16.1103 0.00298557 20.4553C0.0727532 24.5903 1.36107 28.5127 3.73465 31.8426C2.7915 33.1464 2.90315 34.9889 4.06998 36.165C4.71531 36.8152 5.56291 37.1404 6.41059 37.1404C7.25827 37.1404 8.10587 36.8152 8.7512 36.165C10.0418 34.8643 10.0418 32.7481 8.7512 31.4474ZM7.64625 35.0514C6.96475 35.7381 5.8562 35.7381 5.17485 35.0514C4.49343 34.3647 4.49343 33.2474 5.17485 32.5608C5.50494 32.2281 5.94378 32.0449 6.41051 32.0449C6.87724 32.0449 7.31616 32.2281 7.64617 32.5608C8.32767 33.2475 8.32768 34.3648 7.64625 35.0514Z"/>
<path d="M31.8726 35.3643C31.6202 35.0119 31.1319 34.9325 30.782 35.1872C28.5485 36.8136 26.0377 37.8911 23.3193 38.3897C22.6895 38.5053 22.0471 38.3351 21.557 37.923C21.0705 37.5139 20.7915 36.9129 20.7915 36.2741V30.5032H20.8597C21.7643 30.5032 22.5003 29.7615 22.5003 28.8498V27.5205C25.1467 26.5025 27.0317 23.918 27.0317 20.8978V17.1702C28.2908 16.8236 29.2193 15.6615 29.2193 14.2843C29.2193 12.7681 28.094 11.5126 26.6411 11.3191V6.411C26.6411 5.1086 25.5896 4.04901 24.2973 4.04901C23.0049 4.04901 21.9534 5.1086 21.9534 6.411V11.2924H18.0471V6.411C18.0471 5.1086 16.9956 4.04901 15.7033 4.04901C14.4109 4.04901 13.3594 5.1086 13.3594 6.411V11.3191C11.9065 11.5126 10.7812 12.768 10.7812 14.2843C10.7812 15.6615 11.7097 16.8236 12.9688 17.1702V20.8978C12.9688 23.918 14.8538 26.5025 17.5002 27.5205V28.8499C17.5002 29.7616 18.2362 30.5032 19.1409 30.5032H19.2289V36.2742C19.2289 37.3813 19.7126 38.423 20.5559 39.1321C21.229 39.6981 22.0677 40 22.9293 40C23.1519 40 23.376 39.9798 23.5991 39.9389C26.5486 39.3978 29.2731 38.2286 31.6969 36.4636C32.0467 36.2089 32.1253 35.7167 31.8726 35.3643ZM23.5161 6.411C23.5161 5.97686 23.8665 5.62367 24.2973 5.62367C24.7281 5.62367 25.0786 5.97686 25.0786 6.411V11.2924H23.5161V6.411ZM14.9221 6.411C14.9221 5.97686 15.2726 5.62367 15.7033 5.62367C16.1341 5.62367 16.4846 5.97686 16.4846 6.411V11.2924H14.9221V6.411ZM12.3439 14.2843C12.3439 13.5029 12.9748 12.8671 13.7502 12.8671H26.2505C27.0259 12.8671 27.6568 13.5029 27.6568 14.2843C27.6568 15.0657 27.0259 15.7015 26.2505 15.7015H13.7502C12.9748 15.7015 12.3439 15.0657 12.3439 14.2843ZM14.5314 20.8978V17.2761H25.4692V20.8978C25.4692 23.9368 23.0159 26.4091 20.0003 26.4091C16.9848 26.4091 14.5314 23.9368 14.5314 20.8978ZM20.03 28.9286C20.0234 28.9284 20.0169 28.9276 20.0103 28.9276C20.0038 28.9276 19.9973 28.9284 19.9907 28.9286H19.1411C19.0978 28.9286 19.0628 28.8932 19.0628 28.8499V27.9206C19.3696 27.9621 19.6825 27.9838 20.0003 27.9838C20.3182 27.9838 20.6311 27.9621 20.9379 27.9206V28.8499C20.9379 28.8932 20.9029 28.9286 20.8597 28.9286H20.03Z"/>
<path d="M34.1246 33.2304C33.815 32.939 33.3326 32.9503 33.0365 33.2519C33.0305 33.2581 33.0244 33.2644 33.0187 33.2704C32.7243 33.5883 32.7414 34.0865 33.0568 34.3832C33.2074 34.5249 33.3987 34.5949 33.5897 34.5949C33.7915 34.5949 33.9928 34.5166 34.1449 34.3617C34.151 34.3555 34.157 34.3492 34.1627 34.3432C34.4571 34.0252 34.44 33.5271 34.1246 33.2304Z"/>
<path d="M39.9469 18.6389C39.5988 13.8191 37.5373 9.28026 34.1422 5.85877C30.8053 2.49569 26.3476 0.437145 21.5906 0.0624557C16.8914 -0.307825 12.2147 0.977252 8.42018 3.68062C8.06783 3.93162 7.98416 4.423 8.23323 4.778C8.48222 5.13301 8.96989 5.21749 9.32216 4.96641C16.5781 -0.202952 26.7734 0.659251 33.0374 6.97221C39.5108 13.4961 40.2935 23.627 34.8984 31.0613C34.6437 31.4123 34.7196 31.9048 35.0679 32.1616C35.207 32.2641 35.3685 32.3135 35.5285 32.3135C35.7692 32.3135 36.0068 32.2017 36.1598 31.9908C38.9464 28.1507 40.2915 23.4089 39.9469 18.6389Z"/>
<path d="M6.86846 5.94983C6.56197 5.64379 6.06727 5.64584 5.76351 5.95479L5.75078 5.96786C5.44702 6.27665 5.44928 6.77518 5.7557 7.0813C5.90805 7.23341 6.10688 7.30938 6.30571 7.30938C6.50674 7.30938 6.70783 7.2316 6.86065 7.07633L6.87339 7.06326C7.17715 6.75447 7.17488 6.25594 6.86846 5.94983Z"/>
<path d="M21.7624 20.6064C21.6224 20.3643 21.3653 20.2155 21.0874 20.2155H20.5291L21.5574 18.9065C21.8252 18.5656 21.768 18.0704 21.4297 17.8006C21.0914 17.5306 20.6 17.5883 20.3322 17.9291L18.3015 20.5142C18.1156 20.7509 18.0803 21.074 18.2108 21.3458C18.3413 21.6175 18.6145 21.7902 18.9141 21.7902H19.7469L18.7902 23.4926C18.5775 23.8709 18.7096 24.3514 19.0849 24.5656C19.2066 24.635 19.3387 24.668 19.4693 24.668C19.7417 24.668 20.0062 24.5243 20.1499 24.2685L21.7672 21.3909C21.9043 21.1471 21.9024 20.8484 21.7624 20.6064Z"/>
</svg>
