<svg width="40" height="40" viewBox="0 0 40 40" xmlns="http://www.w3.org/2000/svg">
<path d="M27.9241 6.29388V3.23265C27.9241 1.4449 26.4789 0 24.6908 0H15.4889C13.7008 0 12.2556 1.4449 12.2556 3.23265V6.29388H0V17.6163C0 17.6163 0.971627 17.8531 1.44519 17.9592V40H38.7263V17.9102C39.0937 17.8286 40 17.6163 40 17.6163V6.29388H27.9241ZM13.8722 3.23265C13.8722 2.29388 14.6397 1.61633 15.4889 1.61633H24.6826C25.6216 1.61633 26.2992 2.38367 26.2992 3.23265V6.29388H13.8722V3.23265ZM1.78812 8H38.22V16.3429C36.2441 16.8163 30.0633 18.1061 24.6826 18.6939V16.5143H15.5787V18.7265C9.90406 18.0898 3.73954 16.751 1.78812 16.3429V8ZM22.8945 18.1306V23.5755H17.1872V18.1306H22.8945ZM37.1178 38.2939H3.07001V18.3184C5.94407 18.9469 10.9655 19.9429 15.5869 20.3755V25.2735H24.6908V20.3102C29.1896 19.7959 34.2845 18.8163 37.1178 18.2367V38.2939Z"/>
</svg>
