<svg width="40" height="41" viewBox="0 0 40 41" xmlns="http://www.w3.org/2000/svg">
<path d="M10.618 36.0974C10.3473 34.53 8.97727 33.3334 7.33328 33.3334C6.02062 33.3334 4.88328 34.096 4.33992 35.2013C4.23258 35.1247 4.11789 35.0567 3.99992 34.9953V24C3.99992 23.632 3.70125 23.3334 3.33328 23.3334C2.96531 23.3334 2.66664 23.632 2.66664 24V34.6667C1.19602 34.6667 0 35.8627 0 37.3334C0 38.8041 1.19602 40 2.66664 40H10C11.1027 40 12 39.1027 12 38C12 37.1127 11.4193 36.3587 10.618 36.0974ZM10 38.6667H2.66664C1.93133 38.6667 1.33328 38.0687 1.33328 37.3333C1.33328 36.5979 1.93133 36 2.66664 36C3.28867 36 3.84133 36.3613 4.04195 36.9C4.15461 37.202 4.46664 37.38 4.78531 37.3227C5.10266 37.2653 5.33328 36.9893 5.33328 36.6667C5.33328 35.564 6.23062 34.6667 7.33328 34.6667C8.43594 34.6667 9.33328 35.564 9.33328 36.6667C9.33328 37.0346 9.63195 37.3333 9.99992 37.3333C10.3673 37.3333 10.6666 37.6326 10.6666 37.9999C10.6666 38.3673 10.3673 38.6667 10 38.6667Z"/>
<path d="M39.3334 5.33336H26.6666C26.2987 5.33336 26 5.63203 26 6C26 6.36797 26.2987 6.66664 26.6666 6.66664H38.6666V21.0573L20.4713 2.86203C20.3406 2.73133 20.1693 2.66672 19.998 2.66672C19.8266 2.66672 19.6553 2.73141 19.5246 2.86203L1.33336 21.0566V6.66664H8.66672C9.03469 6.66664 9.33336 6.36797 9.33336 6V3.33336C9.33336 2.96539 9.03469 2.66672 8.66672 2.66672H8V1.33336H12V2.66672H11.3334C10.9654 2.66672 10.6667 2.96539 10.6667 3.33336V6C10.6667 6.36797 10.9654 6.66664 11.3334 6.66664H13.3334C13.7013 6.66664 14 6.36797 14 6C14 5.63203 13.7013 5.33336 13.3334 5.33336H12V4H12.6666C13.0346 4 13.3333 3.70133 13.3333 3.33336V0.666641C13.3333 0.298672 13.0346 0 12.6666 0H7.33336C6.96539 0 6.66672 0.298672 6.66672 0.666641V3.33328C6.66672 3.70125 6.96539 3.99992 7.33336 3.99992H8V5.33328H0.666641C0.49 5.33328 0.32 5.40328 0.195312 5.52859C0.07 5.65336 0 5.82336 0 6L0.00265625 22.6666C0.00265625 22.9366 0.165313 23.1793 0.414688 23.2827C0.497344 23.3166 0.583359 23.3334 0.669375 23.3334C0.843359 23.3334 1.01406 23.2654 1.1407 23.138L19.998 4.27398L38.862 23.138C38.9893 23.2653 39.1599 23.3333 39.3333 23.3333C39.4193 23.3333 39.5059 23.3166 39.5886 23.2826C39.8373 23.1792 39.9999 22.9359 39.9999 22.6666V6C40 5.63203 39.7013 5.33336 39.3334 5.33336Z"/>
<path d="M37.3334 34.6667V24C37.3334 23.632 37.0347 23.3334 36.6667 23.3334C36.2987 23.3334 36.0001 23.632 36.0001 24V34.9953C35.8821 35.0567 35.7674 35.1246 35.6601 35.2013C35.1167 34.096 33.9794 33.3334 32.6667 33.3334C31.0227 33.3334 29.6527 34.53 29.382 36.0974C28.5807 36.3587 28 37.1127 28 38C28 38.2353 28.048 38.4574 28.1234 38.6667H16.6666C16.2987 38.6667 16 38.9653 16 39.3333C16 39.7013 16.2987 39.9999 16.6666 39.9999H37.3333C38.804 40 40 38.804 40 37.3334C40 35.8627 38.804 34.6667 37.3334 34.6667ZM37.3334 38.6667H30C29.6327 38.6667 29.3334 38.3674 29.3334 38C29.3334 37.6327 29.6327 37.3334 30 37.3334C30.368 37.3334 30.6666 37.0347 30.6666 36.6667C30.6666 35.5641 31.564 34.6667 32.6666 34.6667C33.7693 34.6667 34.6666 35.5641 34.6666 36.6667C34.6666 36.9894 34.8973 37.2654 35.2146 37.3228C35.5313 37.3807 35.8453 37.202 35.958 36.9001C36.1586 36.3614 36.7113 36.0001 37.3333 36.0001C38.0686 36.0001 38.6666 36.5981 38.6666 37.3335C38.6666 38.0688 38.0687 38.6667 37.3334 38.6667Z"/>
<path d="M22.6663 13.3334C22.6663 11.8627 21.4703 10.6667 19.9996 10.6667C18.5289 10.6667 17.333 11.8628 17.333 13.3334C17.333 14.804 18.5289 16 19.9996 16C21.4704 16 22.6663 14.804 22.6663 13.3334ZM18.6663 13.3334C18.6663 12.5981 19.2643 12 19.9996 12C20.735 12 21.333 12.598 21.333 13.3334C21.333 14.0687 20.735 14.6667 19.9996 14.6667C19.2643 14.6667 18.6663 14.0687 18.6663 13.3334Z"/>
<path d="M32.6663 22.6666H27.3329C26.965 22.6666 26.6663 22.9653 26.6663 23.3333V30.6666H25.9996C25.6317 30.6666 25.333 30.9653 25.333 31.3333C25.333 31.7012 25.6317 31.9999 25.9996 31.9999H33.9996C34.3676 31.9999 34.6663 31.7012 34.6663 31.3333C34.6663 30.9653 34.3676 30.6666 33.9996 30.6666H33.333V23.3333C33.333 22.9653 33.0343 22.6666 32.6663 22.6666ZM31.9996 30.6666H27.9996V28H31.9996V30.6666ZM31.9996 26.6666H27.9996V24H31.9996V26.6666Z"/>
<path d="M26.6672 36.6666C26.6672 36.2986 26.3685 36 26.0005 36H24.0005V23.3333C24.0005 22.9654 23.7019 22.6667 23.3339 22.6667H16.6673C16.2993 22.6667 16.0006 22.9654 16.0006 23.3333V36H14.0006C13.6327 36 13.334 36.2986 13.334 36.6666V39.3332C13.334 39.7012 13.6327 39.9999 14.0006 39.9999C14.3686 39.9999 14.6673 39.7012 14.6673 39.3332V37.3332H26.0005C26.3685 37.3333 26.6672 37.0347 26.6672 36.6666ZM22.6672 29.3333H22.0005C21.6326 29.3333 21.3339 29.632 21.3339 30C21.3339 30.3679 21.6326 30.6666 22.0005 30.6666H22.6672V36H17.3338V24H22.6672V29.3333Z"/>
<path d="M12.6663 22.6666H7.33301C6.96504 22.6666 6.66637 22.9653 6.66637 23.3333V30.6666H5.99965C5.63168 30.6666 5.33301 30.9653 5.33301 31.3333C5.33301 31.7012 5.63168 32 5.99965 32H13.9996C14.3676 32 14.6663 31.7013 14.6663 31.3333C14.6663 30.9654 14.3676 30.6667 13.9996 30.6667H13.333V23.3333C13.333 22.9653 13.0343 22.6666 12.6663 22.6666ZM11.9996 30.6666H7.99965V28H11.9996V30.6666ZM11.9996 26.6666H7.99965V24H11.9996V26.6666Z"/>
</svg>
