<svg width="40" height="40" viewBox="0 0 40 40" xmlns="http://www.w3.org/2000/svg">
<path d="M26.0203 15.5429C25.875 15.3976 25.6734 15.314 25.4678 15.314C25.2624 15.314 25.0607 15.3975 24.9154 15.5429C24.7701 15.6882 24.6865 15.8897 24.6865 16.0953C24.6865 16.3008 24.7701 16.5024 24.9154 16.6476C25.0607 16.7929 25.2623 16.8766 25.4678 16.8766C25.6733 16.8766 25.8749 16.793 26.0203 16.6476C26.1656 16.5024 26.2492 16.3008 26.2492 16.0953C26.2492 15.8889 26.1656 15.6882 26.0203 15.5429Z"/>
<path d="M39.0229 0.44125C39.0141 0.434531 39.005 0.428437 38.996 0.422109C38.616 0.156484 38.1543 0 37.6564 0H15.7795C15.3128 0 14.878 0.137578 14.5123 0.373594C14.4833 0.390625 14.4552 0.409531 14.4282 0.430469C13.8283 0.855469 13.4355 1.55438 13.4355 2.34391V14.5325C13.4355 15.8249 14.487 16.8765 15.7795 16.8765H21.5613C21.9929 16.8765 22.3426 16.5266 22.3426 16.0952C22.3426 15.6638 21.9929 15.3138 21.5613 15.3138H16.5459L22.9583 7.82148L26.2607 10.2047C26.3972 10.3031 26.5575 10.3524 26.718 10.3524C26.878 10.3524 27.038 10.3034 27.1743 10.2053L30.4815 7.82602L36.8901 15.3138H28.9058C28.4743 15.3138 28.1245 15.6637 28.1245 16.0952C28.1245 16.5266 28.4742 16.8765 28.9058 16.8765H37.6565C38.949 16.8765 40.0005 15.825 40.0005 14.5325V2.34398C40.0004 1.56117 39.6142 0.867266 39.0229 0.44125ZM15.0162 14.6981C15.0047 14.6447 14.9982 14.5895 14.9982 14.5326V2.34398C14.9982 2.26039 15.0117 2.18 15.0362 2.10438L21.687 6.90406L15.0162 14.6981ZM26.7188 8.6082L16.9559 1.56266H36.5119L26.7188 8.6082ZM38.4377 14.5326C38.4377 14.5894 38.4312 14.6447 38.4197 14.6981L31.7543 6.91031L38.4059 2.12492C38.4263 2.19453 38.4377 2.26789 38.4377 2.34391V14.5326Z"/>
<path d="M34.9994 34.1498C34.8823 34.1498 34.7712 34.1756 34.6715 34.2217H34.2901C33.8586 34.2217 33.5088 34.5716 33.5088 35.0031C33.5088 35.4345 33.8586 35.7844 34.2901 35.7844H34.9995C35.431 35.7844 35.7808 35.4345 35.7808 35.0031V34.9311C35.7807 34.4997 35.431 34.1498 34.9994 34.1498Z"/>
<path d="M34.9991 30.2433C34.5676 30.2433 34.2178 30.5931 34.2178 31.0246V31.8059C34.2178 32.2374 34.5675 32.5873 34.9991 32.5873C35.4307 32.5873 35.7804 32.2374 35.7804 31.8059V31.0246C35.7804 30.5931 35.4307 30.2433 34.9991 30.2433Z"/>
<path d="M31.1652 34.2218H30.3839C29.9524 34.2218 29.6025 34.5716 29.6025 35.0031C29.6025 35.4345 29.9523 35.7845 30.3839 35.7845H31.1652C31.5968 35.7845 31.9465 35.4346 31.9465 35.0031C31.9465 34.5717 31.5967 34.2218 31.1652 34.2218Z"/>
<path d="M34.9991 18.5234C34.5676 18.5234 34.2178 18.8733 34.2178 19.3048V20.0861C34.2178 20.5175 34.5675 20.8674 34.9991 20.8674C35.4307 20.8674 35.7804 20.5176 35.7804 20.0861V19.3048C35.7804 18.8734 35.4307 18.5234 34.9991 18.5234Z"/>
<path d="M34.9991 22.4301C34.5676 22.4301 34.2178 22.7799 34.2178 23.2114V23.9927C34.2178 24.4241 34.5675 24.774 34.9991 24.774C35.4307 24.774 35.7804 24.4242 35.7804 23.9927V23.2114C35.7804 22.7799 35.4307 22.4301 34.9991 22.4301Z"/>
<path d="M34.9991 26.3365C34.5676 26.3365 34.2178 26.6864 34.2178 27.1179V27.8992C34.2178 28.3307 34.5675 28.6805 34.9991 28.6805C35.4307 28.6805 35.7804 28.3307 35.7804 27.8992V27.1179C35.7804 26.6865 35.4307 26.3365 34.9991 26.3365Z"/>
<path d="M5.77749 4.21924H4.99617C4.56469 4.21924 4.21484 4.56908 4.21484 5.00057C4.21484 5.43205 4.56469 5.78189 4.99617 5.78189H5.77749C6.20898 5.78189 6.55882 5.43205 6.55882 5.00057C6.55874 4.56908 6.20898 4.21924 5.77749 4.21924Z"/>
<path d="M9.68374 4.21924H8.90242C8.47094 4.21924 8.12109 4.56908 8.12109 5.00057C8.12109 5.43205 8.47094 5.78189 8.90242 5.78189H9.68374C10.1152 5.78189 10.4651 5.43205 10.4651 5.00057C10.4651 4.56908 10.1153 4.21924 9.68374 4.21924Z"/>
<path d="M4.99617 7.34436C4.56469 7.34436 4.21484 7.6942 4.21484 8.12569V8.90702C4.21484 9.3385 4.56469 9.68834 4.99617 9.68834C5.42765 9.68834 5.77749 9.3385 5.77749 8.90702V8.12569C5.77749 7.69428 5.42765 7.34436 4.99617 7.34436Z"/>
<path d="M4.99617 11.251C4.56469 11.251 4.21484 11.6008 4.21484 12.0323V12.8136C4.21484 13.2451 4.56469 13.595 4.99617 13.595C5.42765 13.595 5.77749 13.2451 5.77749 12.8136V12.0323C5.77749 11.6008 5.42765 11.251 4.99617 11.251Z"/>
<path d="M8.64039 31.6685C8.49507 31.5232 8.29351 31.4396 8.08797 31.4396C7.88172 31.4396 7.68086 31.5232 7.53477 31.6685C7.38945 31.8138 7.30664 32.0154 7.30664 32.2209C7.30664 32.4265 7.38945 32.6279 7.53477 32.7733C7.68086 32.9186 7.88242 33.0022 8.08797 33.0022C8.29351 33.0022 8.49421 32.9186 8.64039 32.7733C8.7857 32.628 8.86929 32.4265 8.86929 32.2209C8.86929 32.0154 8.7857 31.8139 8.64039 31.6685Z"/>
<path d="M24.3197 32.495L20.203 28.3783C19.0216 27.197 17.0992 27.1969 15.9176 28.3784L15.6494 28.6467C15.2769 29.0193 14.6706 29.0192 14.2981 28.6467L11.3534 25.702C11.1729 25.5215 11.0736 25.2816 11.0736 25.0263C11.0736 24.7711 11.1729 24.5312 11.3535 24.3507L11.6217 24.0824C12.8032 22.9009 12.8032 20.9785 11.6217 19.797L7.50489 15.6802C6.32341 14.4988 4.40092 14.4988 3.2196 15.6802L2.23452 16.6652C-0.744841 19.6447 -0.744841 24.4926 2.23452 27.472L4.92006 30.1575C5.22514 30.4625 5.7199 30.4625 6.02505 30.1575C6.33013 29.8524 6.33013 29.3577 6.02505 29.0525L3.33952 26.367C0.969371 23.9968 0.969371 20.1403 3.33952 17.7702L4.32451 16.7852C4.8967 16.2129 5.82771 16.2129 6.3999 16.7852L10.5166 20.9019C11.0889 21.4741 11.0889 22.4051 10.5166 22.9773L10.2484 23.2456C10.1499 23.3441 10.0611 23.4496 9.98137 23.5606L6.72974 20.3089C6.42466 20.0039 5.9299 20.0039 5.62474 20.3089C5.31967 20.614 5.31967 21.1088 5.62474 21.4139L9.52809 25.3172C9.59246 25.8796 9.84207 26.4004 10.2484 26.8067L13.1931 29.7514C14.1749 30.7331 15.7724 30.7332 16.7543 29.7513L17.0226 29.4831C17.5948 28.9108 18.5258 28.9108 19.098 29.4831L23.2148 33.5998C23.4919 33.877 23.6446 34.2456 23.6446 34.6374C23.6446 35.0293 23.4919 35.3979 23.2147 35.6751L22.6553 36.2345L18.9084 32.4875C18.6033 32.1825 18.1085 32.1825 17.8034 32.4875C17.4983 32.7926 17.4983 33.2874 17.8034 33.5925L21.4962 37.2853C19.1209 39.0071 15.7717 38.7992 13.6328 36.6602L11.6095 34.6369C11.3044 34.332 10.8096 34.3319 10.5046 34.6369C10.1995 34.942 10.1995 35.4367 10.5046 35.7419L12.5278 37.7652C14.0175 39.2551 15.9744 40 17.9313 40C19.8881 40 21.8449 39.2552 23.3347 37.7654L24.3196 36.7804C24.892 36.2081 25.2072 35.4472 25.2072 34.6377C25.2072 33.8283 24.8919 33.0674 24.3197 32.495Z"/>
</svg>
