<svg width="40" height="40" viewBox="0 0 40 40" xmlns="http://www.w3.org/2000/svg">
<path d="M39.3617 36.1702H3.82979V0.638298C3.82979 0.285787 3.54408 0 3.19149 0C2.83889 0 2.55319 0.285787 2.55319 0.638298V6.02834H0.638298C0.285702 6.02834 0 6.31413 0 6.66664C0 7.01915 0.285702 7.30494 0.638298 7.30494H2.55319V12.0567H0.638298C0.285702 12.0567 0 12.3425 0 12.695C0 13.0475 0.285702 13.3333 0.638298 13.3333H2.55319V18.0851H0.638298C0.285702 18.0851 0 18.3709 0 18.7234C0 19.0759 0.285702 19.3617 0.638298 19.3617H2.55319V24.1134H0.638298C0.285702 24.1134 0 24.3992 0 24.7517C0 25.1043 0.285702 25.39 0.638298 25.39H2.55319V30.1418H0.638298C0.285702 30.1418 0 30.4276 0 30.7801C0 31.1326 0.285702 31.4184 0.638298 31.4184H2.55319V36.8085C2.55319 37.161 2.83889 37.4468 3.19149 37.4468H12.6241V39.3617C12.6241 39.7142 12.9098 40 13.2624 40C13.615 40 13.9007 39.7142 13.9007 39.3617V37.4468H28.6525V39.3617C28.6525 39.7142 28.9382 40 29.2908 40C29.6434 40 29.9291 39.7142 29.9291 39.3617V37.4468H39.3617C39.7143 37.4468 40 37.161 40 36.8085C40 36.456 39.7143 36.1702 39.3617 36.1702Z"/>
<path d="M6.59533 34.8936C6.94793 34.8936 7.23363 34.6078 7.23363 34.2553V19.3617H12.6237V34.2553C12.6237 34.6078 12.9094 34.8936 13.262 34.8936C13.6146 34.8936 13.9003 34.6078 13.9003 34.2553V25.39H18.9358V34.2553C18.9358 34.6078 19.2215 34.8936 19.5741 34.8936C19.9266 34.8936 20.2124 34.6078 20.2124 34.2553V24.7517C20.2124 24.3992 19.9266 24.1134 19.5741 24.1134H13.9003V18.7234C13.9003 18.3709 13.6146 18.0851 13.262 18.0851H6.59533C6.24273 18.0851 5.95703 18.3709 5.95703 18.7234V34.2553C5.95703 34.6078 6.24273 34.8936 6.59533 34.8936Z"/>
<path d="M22.9781 34.8936C23.3307 34.8936 23.6164 34.6078 23.6164 34.2553V7.30492H28.6519V34.2553C28.6519 34.6078 28.9376 34.8936 29.2902 34.8936C29.6428 34.8936 29.9285 34.6078 29.9285 34.2553V13.3333H35.3186V34.2553C35.3186 34.6078 35.6043 34.8936 35.9569 34.8936C36.3095 34.8936 36.5952 34.6078 36.5952 34.2553V12.695C36.5952 12.3425 36.3095 12.0567 35.9569 12.0567H29.9285V6.66662C29.9285 6.31411 29.6428 6.02832 29.2902 6.02832H22.9781C22.6255 6.02832 22.3398 6.31411 22.3398 6.66662V34.2553C22.3398 34.6078 22.6255 34.8936 22.9781 34.8936Z"/>
</svg>
