<svg width="40" height="40" viewBox="0 0 40 40" xmlns="http://www.w3.org/2000/svg">
<rect width="40" height="40" fill-opacity="0"/><path d="M28 10C28.3682 10 28.6667 9.7015 28.6667 9.33333V2.66667C28.6667 1.19392 27.4727 0 26 0H8.66667C7.19392 0 6 1.19392 6 2.66667V36.6667C6.00217 38.5067 7.49333 39.9978 9.33333 40H25.3333C27.1733 39.9978 28.6645 38.5067 28.6667 36.6667V30.6667C28.6667 30.2985 28.3682 30 28 30C27.6318 30 27.3333 30.2985 27.3333 30.6667V34.6667H7.33333V5.33333H27.3333V9.33333C27.3333 9.7015 27.6318 10 28 10ZM27.3333 36V36.6667C27.3333 37.7713 26.4379 38.6667 25.3333 38.6667H9.33333C8.22875 38.6667 7.33333 37.7713 7.33333 36.6667V36H27.3333ZM7.33333 4V2.66667C7.33333 1.93025 7.93025 1.33333 8.66667 1.33333H26C26.7364 1.33333 27.3333 1.93025 27.3333 2.66667V4H7.33333Z"/>
<path d="M18.6663 36.6666H15.9997C15.6315 36.6666 15.333 36.9651 15.333 37.3333C15.333 37.7015 15.6315 38 15.9997 38H18.6663C19.0345 38 19.333 37.7015 19.333 37.3333C19.333 36.9651 19.0345 36.6666 18.6663 36.6666Z"/>
<path d="M21.9997 19.3334C21.2633 19.3334 20.6663 18.7365 20.6663 18C20.6663 17.2636 21.2633 16.6667 21.9997 16.6667C22.7361 16.6667 23.333 17.2636 23.333 18C23.333 18.3682 23.6315 18.6667 23.9997 18.6667C24.3678 18.6667 24.6663 18.3682 24.6663 18C24.6663 16.5273 23.4724 15.3334 21.9997 15.3334C20.5269 15.3334 19.333 16.5273 19.333 18C19.333 19.4728 20.5269 20.6667 21.9997 20.6667C22.7361 20.6667 23.333 21.2636 23.333 22C23.333 22.7365 22.7361 23.3334 21.9997 23.3334C21.2633 23.3334 20.6663 22.7365 20.6663 22C20.6663 21.6319 20.3678 21.3334 19.9997 21.3334C19.6315 21.3334 19.333 21.6319 19.333 22C19.333 23.4728 20.5269 24.6667 21.9997 24.6667C23.4724 24.6667 24.6663 23.4728 24.6663 22C24.6663 20.5273 23.4724 19.3334 21.9997 19.3334Z"/>
<path d="M35.3337 19.3334C34.5972 19.3334 34.0003 18.7365 34.0003 18C34.0003 17.2636 34.5972 16.6667 35.3337 16.6667C36.0701 16.6667 36.667 17.2636 36.667 18C36.667 18.3682 36.9655 18.6667 37.3337 18.6667C37.7018 18.6667 38.0003 18.3682 38.0003 18C38.0003 16.5273 36.8064 15.3334 35.3337 15.3334C33.8609 15.3334 32.667 16.5273 32.667 18C32.667 19.4728 33.8609 20.6667 35.3337 20.6667C36.0701 20.6667 36.667 21.2636 36.667 22C36.667 22.7365 36.0701 23.3334 35.3337 23.3334C34.5972 23.3334 34.0003 22.7365 34.0003 22C34.0003 21.6319 33.7018 21.3334 33.3337 21.3334C32.9655 21.3334 32.667 21.6319 32.667 22C32.667 23.4728 33.8609 24.6667 35.3337 24.6667C36.8064 24.6667 38.0003 23.4728 38.0003 22C38.0003 20.5273 36.8064 19.3334 35.3337 19.3334Z"/>
<path d="M29.9997 15.3333C29.5061 15.335 29.0308 15.5204 28.6664 15.8533C27.8539 15.1121 26.5944 15.1699 25.8532 15.9824C25.5165 16.3515 25.3309 16.8337 25.333 17.3333V23.9999C25.333 24.3681 25.6315 24.6666 25.9997 24.6666C26.3679 24.6666 26.6664 24.3681 26.6664 23.9999V17.3333C26.6664 16.9651 26.9649 16.6666 27.333 16.6666C27.7012 16.6666 27.9997 16.9651 27.9997 17.3333V23.9999C27.9997 24.3681 28.2982 24.6666 28.6664 24.6666C29.0345 24.6666 29.333 24.3681 29.333 23.9999V17.3333C29.333 16.9651 29.6315 16.6666 29.9997 16.6666C30.3679 16.6666 30.6664 16.9651 30.6664 17.3333V23.9999C30.6664 24.3681 30.9649 24.6666 31.333 24.6666C31.7012 24.6666 31.9997 24.3681 31.9997 23.9999V17.3333C31.9997 16.2287 31.1043 15.3333 29.9997 15.3333Z"/>
</svg>
