<svg width="31" height="40" viewBox="0 0 31 40" xmlns="http://www.w3.org/2000/svg">
<path d="M26.1046 3.33337H16.3151C15.4141 3.33337 14.6836 4.07954 14.6836 5.00001V15C14.6836 15.9204 15.4141 16.6666 16.3151 16.6666H26.1046C27.0057 16.6666 27.7361 15.9204 27.7361 15V5.00001C27.7361 4.07954 27.0057 3.33337 26.1046 3.33337ZM18.1262 15C18.7156 13.2603 20.5741 12.3381 22.2771 12.9402C23.2229 13.2746 23.9662 14.0339 24.2935 15H18.1262ZM19.5782 9.16663C19.5782 8.24617 20.3087 7.5 21.2098 7.5C22.1109 7.5 22.8414 8.24617 22.8414 9.16663C22.8414 10.0871 22.1109 10.8333 21.2099 10.8333C20.3088 10.8333 19.5782 10.0872 19.5782 9.16663ZM26.1046 15H25.9985C25.6904 13.5279 24.7495 12.2759 23.437 11.5916C24.7562 10.3375 24.8305 8.22828 23.6027 6.88062C22.375 5.53297 20.3101 5.45711 18.9909 6.71133C17.6716 7.96546 17.5973 10.0747 18.8251 11.4223C18.8784 11.4808 18.9337 11.5372 18.9909 11.5916C17.6752 12.274 16.731 13.5262 16.4211 15H16.3151V5.00001H26.1045L26.1046 15Z"/>
<path d="M28.9932 0.000169542C28.9877 9.14176e-05 28.9822 1.32929e-05 28.9767 1.32929e-05H7.34209C7.12527 -0.0012367 6.91686 0.0857161 6.7629 0.241653L0.236567 6.90834C0.0838366 7.06561 -0.00128548 7.2785 1.4678e-05 7.49998V37.9332C0.00445051 39.0727 0.907679 39.9953 2.02314 39.9998H28.9441C30.0659 40.0137 30.9862 39.0959 30.9997 37.95C30.9998 37.9444 30.9998 37.9388 30.9999 37.9332V2.1C31.0134 0.95415 30.115 0.0139976 28.9932 0.000169542ZM29.3683 37.9332C29.3683 38.1542 29.193 38.3332 28.9767 38.3332H2.05579C1.84027 38.3517 1.65099 38.1881 1.63294 37.968C1.63202 37.9564 1.63156 37.9449 1.63156 37.9332V7.8417L6.52628 2.84172V6.29171C6.52192 6.49694 6.36009 6.66225 6.15917 6.6667H4.07892V8.33334H6.52628C7.47096 8.14967 8.15522 7.30733 8.15782 6.32499V1.66665H28.9767C29.1929 1.66665 29.3682 1.84571 29.3682 2.06665L29.3683 37.9332Z"/>
<path d="M23.6581 19.9999H10.6055V21.6665H23.6581V19.9999Z"/>
<path d="M23.6575 24.1666H7.3418V25.8333H23.6575V24.1666Z"/>
<path d="M23.6575 28.3333H7.3418V29.9999H23.6575V28.3333Z"/>
<path d="M20.3944 32.4999H7.3418V34.1665H20.3944V32.4999Z"/>
<path d="M23.6579 32.4999H22.0264V34.1665H23.6579V32.4999Z"/>
</svg>
