<svg width="40" height="40" viewBox="0 0 40 40" xmlns="http://www.w3.org/2000/svg">
<path d="M39.4304 12.5299C39.116 12.5299 38.8611 12.7847 38.8611 13.0991V36.0313C38.8611 36.3336 38.6151 36.5795 38.3128 36.5795H22.7822C22.4677 36.5795 22.2129 36.8343 22.2129 37.1487C22.2129 37.463 22.4677 37.7179 22.7822 37.7179H38.3129C39.243 37.7179 39.9997 36.9613 39.9997 36.0314V13.0991C39.9997 12.7848 39.7449 12.5299 39.4304 12.5299Z"/>
<path d="M38.313 1H1.68687C0.756717 1 0 1.75657 0 2.68655V36.0312C0 36.9611 0.756717 37.7177 1.68687 37.7177H3.17484C3.48929 37.7177 3.74413 37.4629 3.74413 37.1485C3.74413 36.8342 3.48929 36.5793 3.17484 36.5793H1.68687C1.38453 36.5793 1.13851 36.3334 1.13851 36.0311V2.68655C1.13851 2.38426 1.38453 2.13829 1.68687 2.13829H38.313C38.6154 2.13829 38.8614 2.38426 38.8614 2.68655V9.53186C38.8614 9.84617 39.1163 10.101 39.4307 10.101C39.7452 10.101 40 9.84625 40 9.53186V2.68655C39.9999 1.75657 39.2432 1 38.313 1Z"/>
<path d="M22.4393 24.977C22.4393 24.1118 21.7354 23.4078 20.87 23.4078H4.73937C3.87398 23.4078 3.16992 24.1118 3.16992 24.977C3.16992 25.8422 3.87398 26.5461 4.73937 26.5461H5.73726L4.44961 38.5753C4.41101 38.9358 4.52265 39.2823 4.76414 39.5509C5.02062 39.8363 5.4014 40 5.80882 40H20.1479C20.5554 40 20.9361 39.8364 21.1926 39.5509C21.434 39.2824 21.5457 38.9359 21.5072 38.5753L20.2195 26.5461H20.87C21.7353 26.5461 22.4393 25.8422 22.4393 24.977ZM4.73937 25.4078C4.50172 25.4078 4.30844 25.2146 4.30844 24.977C4.30844 24.7395 4.50172 24.5461 4.73937 24.5461H5.95132L5.85906 25.4078H4.73937ZM5.80882 38.8616C5.72398 38.8616 5.65187 38.8355 5.61093 38.79C5.58703 38.7634 5.57773 38.7336 5.58164 38.6964L7.09632 24.5461H13.5049L14.2328 38.8616H5.80882ZM15.3727 38.8616L14.6448 24.5461H16.0572L17.1918 38.8616H15.3727ZM20.3751 38.6964C20.379 38.7336 20.3698 38.7634 20.3458 38.79C20.3049 38.8355 20.2328 38.8616 20.1479 38.8616H18.3339L17.1993 24.5461H18.8604L20.3751 38.6964ZM20.0976 25.4078L20.0054 24.5461H20.8699C21.1075 24.5461 21.3007 24.7394 21.3007 24.977C21.3007 25.2146 21.1075 25.4078 20.8699 25.4078H20.0976Z"/>
<path d="M29.3752 23.4078H26.4496C25.8393 23.4078 25.3428 23.9043 25.3428 24.5145V27.4395C25.3428 28.0497 25.8393 28.5461 26.4496 28.5461H29.3752C29.9855 28.5461 30.4821 28.0497 30.4821 27.4395V24.5145C30.4821 23.9043 29.9855 23.4078 29.3752 23.4078ZM29.3435 27.4078H26.4813V24.5462H29.3435V27.4078Z"/>
<path d="M35.7228 23.4078H32.7973C32.187 23.4078 31.6904 23.9043 31.6904 24.5145V27.4395C31.6904 28.0497 32.187 28.5461 32.7973 28.5461H35.7228C36.3332 28.5461 36.8297 28.0497 36.8297 27.4395V24.5145C36.8297 23.9043 36.3332 23.4078 35.7228 23.4078ZM35.6912 27.4078H32.8289V24.5462H35.6912V27.4078Z"/>
<path d="M29.3752 29.6201H26.4496C25.8393 29.6201 25.3428 30.1166 25.3428 30.7268V33.6518C25.3428 34.262 25.8393 34.7584 26.4496 34.7584H29.3752C29.9855 34.7584 30.4821 34.262 30.4821 33.6518V30.7268C30.4821 30.1165 29.9855 29.6201 29.3752 29.6201ZM29.3435 33.62H26.4813V30.7583H29.3435V33.62Z"/>
<path d="M35.7228 29.6201H32.7973C32.187 29.6201 31.6904 30.1166 31.6904 30.7268V33.6518C31.6904 34.262 32.187 34.7584 32.7973 34.7584H35.7228C36.3332 34.7584 36.8297 34.262 36.8297 33.6518V30.7268C36.8297 30.1165 36.3332 29.6201 35.7228 29.6201ZM35.6912 33.62H32.8289V30.7583H35.6912V33.62Z"/>
<path d="M36.8295 5.85737C36.8295 4.9538 36.0942 4.21863 35.1905 4.21863H4.80898C3.90523 4.21863 3.16992 4.9538 3.16992 5.85737V18.6839C3.16992 19.5875 3.90523 20.3227 4.80898 20.3227H35.1905C36.0942 20.3227 36.8295 19.5876 36.8295 18.6839V5.85737ZM35.691 18.6839C35.691 18.9599 35.4665 19.1844 35.1905 19.1844H4.80898C4.53297 19.1844 4.30844 18.9599 4.30844 18.6839V5.85737C4.30844 5.58141 4.53297 5.35692 4.80898 5.35692H35.1905C35.4665 5.35692 35.691 5.58141 35.691 5.85737V18.6839Z"/>
<path d="M14.6003 15.0727L12.8714 9.43381C12.7697 9.11028 12.3536 8.95312 11.9283 8.95312C11.503 8.95312 11.087 9.11028 10.9853 9.43381L9.26551 15.0727C9.25629 15.1097 9.24707 15.1467 9.24707 15.1744C9.24707 15.5164 9.77402 15.766 10.1718 15.766C10.4028 15.766 10.5878 15.6921 10.6432 15.4979L10.9575 14.3425H12.9084L13.2227 15.4979C13.2782 15.6921 13.4631 15.766 13.6942 15.766C14.0918 15.766 14.6189 15.5165 14.6189 15.1744C14.6189 15.1467 14.6096 15.1097 14.6003 15.0727ZM11.2533 13.2332L11.9283 10.7557L12.6033 13.2332H11.2533Z"/>
<path d="M21.3682 9.00854H17.374C17.0688 9.00854 16.9395 9.34129 16.9395 9.64639C16.9395 9.99765 17.0966 10.3027 17.374 10.3027H18.65V15.3222C18.65 15.618 19.0106 15.766 19.3712 15.766C19.7317 15.766 20.0923 15.618 20.0923 15.3222V10.3027H21.3682C21.6456 10.3027 21.8028 9.99765 21.8028 9.64639C21.8028 9.34129 21.6734 9.00854 21.3682 9.00854Z"/>
<path d="M30.0312 9.00854C29.5134 9.00854 29.2916 9.064 28.9124 9.72958L27.9602 11.3935L27.0078 9.72958C26.6288 9.064 26.4069 9.00854 25.8891 9.00854C25.5285 9.00854 25.168 9.20265 25.168 9.72958V15.3222C25.168 15.618 25.5285 15.766 25.8891 15.766C26.2497 15.766 26.6102 15.618 26.6102 15.3222V11.7633L27.4886 13.3718C27.5995 13.5844 27.7752 13.6398 27.9416 13.6398C28.1173 13.6398 28.3023 13.5752 28.4224 13.3718L29.31 11.8557V15.3222C29.31 15.618 29.6705 15.766 30.0312 15.766C30.3917 15.766 30.7523 15.618 30.7523 15.3222V9.72958C30.7523 9.20265 30.4009 9.00854 30.0312 9.00854Z"/>
</svg>
