<svg width="40" height="41" viewBox="0 0 40 41" xmlns="http://www.w3.org/2000/svg">
<path d="M39.7603 29.1474C39.4404 28.8294 38.9214 28.8294 38.6017 29.1474L30.4753 37.221V0.813998C30.4753 0.364535 30.1084 0 29.656 0C29.2036 0 28.8367 0.364535 28.8367 0.813998V37.2209L20.7101 29.1471C20.3903 28.8294 19.8714 28.8292 19.5515 29.1472C19.2315 29.4651 19.2315 29.9805 19.5516 30.2984L29.0767 39.7616C29.2366 39.9205 29.4464 40 29.656 40C29.8656 40 30.0753 39.9205 30.2352 39.7615L39.7603 30.2982C40.0803 29.9805 40.0803 29.4651 39.7603 29.1474Z"/>
<path d="M0.819308 1.628H25.4173C25.8697 1.628 26.2366 1.26346 26.2366 0.813998C26.2366 0.364535 25.8697 0 25.4173 0H0.819308C0.366914 0 0 0.364535 0 0.813998C0 1.26346 0.366914 1.628 0.819308 1.628Z"/>
<path d="M0.819308 11.1556H25.4173C25.8697 11.1556 26.2366 10.791 26.2366 10.3416C26.2366 9.89212 25.8697 9.52759 25.4173 9.52759H0.819308C0.366914 9.52759 0 9.89212 0 10.3416C0 10.791 0.366914 11.1556 0.819308 11.1556Z"/>
<path d="M0.819308 20.6832H25.4173C25.8697 20.6832 26.2366 20.3186 26.2366 19.8692C26.2366 19.4197 25.8697 19.0552 25.4173 19.0552H0.819308C0.366914 19.0552 0 19.4197 0 19.8692C0 20.3186 0.366914 20.6832 0.819308 20.6832Z"/>
<path d="M16.8616 28.5829H0.819308C0.366914 28.5829 0 28.9474 0 29.3969C0 29.8463 0.366914 30.2109 0.819308 30.2109H16.8616C17.314 30.2109 17.6809 29.8463 17.6809 29.3969C17.6809 28.9474 17.3142 28.5829 16.8616 28.5829Z"/>
<path d="M16.8616 38.1103H0.819308C0.366914 38.1103 0 38.4748 0 38.9243C0 39.3738 0.366914 39.7383 0.819308 39.7383H16.8616C17.314 39.7383 17.6809 39.3738 17.6809 38.9243C17.6809 38.4748 17.3142 38.1103 16.8616 38.1103Z"/>
</svg>
