<svg width="40" height="40" viewBox="0 0 40 40" xmlns="http://www.w3.org/2000/svg">
<path d="M38.781 10.4922L29.5058 1.21875C28.7165 0.429688 27.6773 0 26.5599 0H13.4401C12.3305 0 11.2835 0.429688 10.4942 1.21875L1.21899 10.5C0.429771 11.2891 0 12.3281 0 13.4453V26.5547C0 27.6719 0.429771 28.7188 1.21899 29.5078L10.5021 38.7812C11.2913 39.5703 12.3305 40 13.4479 40H26.5599C27.6773 40 28.7244 39.5703 29.5136 38.7812L38.781 29.5C39.5702 28.7109 40 27.6719 40 26.5547V13.4375C40 12.3281 39.5702 11.2812 38.781 10.4922ZM38.3512 26.5547C38.3512 27.2266 38.0934 27.8516 37.6167 28.3281L28.3415 37.6016C27.8648 38.0781 27.2397 38.3359 26.5677 38.3359H13.4479C12.7759 38.3359 12.1508 38.0781 11.6742 37.6016L2.39891 28.3281C1.92225 27.8516 1.66439 27.2266 1.66439 26.5547V13.4375C1.66439 12.7734 1.93006 12.1406 2.39891 11.6719L11.682 2.39844C12.1508 1.92188 12.7759 1.66406 13.4479 1.66406H26.5599C27.2319 1.66406 27.857 1.92969 28.3337 2.39844L37.6167 11.6719C38.0934 12.1484 38.3512 12.7734 38.3512 13.4453V26.5547Z"/>
<path d="M8.6892 19.2422L8.43915 19.1641C7.51709 18.9062 6.66537 18.4688 6.66537 17.0859C6.66537 15.9375 7.41551 15 8.33757 15C9.21274 15 9.94726 15.8516 9.99414 16.9453C10.0176 17.4062 10.377 17.8125 10.8693 17.7344C11.3303 17.7109 11.682 17.3203 11.6585 16.8594C11.5569 14.8906 10.0879 13.3438 8.32975 13.3438C6.48564 13.3438 4.99316 15.0234 4.99316 17.0938C4.99316 18.3828 5.5167 20.0703 7.97812 20.7734L8.22817 20.8437C9.15023 21.1094 10.002 21.5391 10.002 22.9219C10.002 24.0703 9.25181 25.0078 8.32975 25.0078C7.45458 25.0078 6.72788 24.1484 6.66537 23.0625C6.64192 22.6016 6.29811 22.2422 5.79019 22.2734C5.32917 22.2969 4.97754 22.6875 5.00098 23.1484C5.10256 25.1172 6.5716 26.6641 8.32975 26.6641C10.1739 26.6641 11.6663 24.9844 11.6663 22.9219C11.6663 21.0469 10.6661 19.8125 8.6892 19.2422Z"/>
<path d="M19.1675 13.3281H12.5021C12.0411 13.3281 11.666 13.7031 11.666 14.1641C11.666 14.625 12.0411 15 12.5021 15H19.1675C19.6285 15 20.0036 14.625 20.0036 14.1641C20.0036 13.7031 19.6285 13.3281 19.1675 13.3281Z"/>
<path d="M15.839 13.3281C15.378 13.3281 15.0029 13.7031 15.0029 14.1641V25.8281C15.0029 26.2891 15.378 26.6641 15.839 26.6641C16.3001 26.6641 16.6673 26.2969 16.6751 25.8281V14.1641C16.6751 13.7031 16.3001 13.3281 15.839 13.3281Z"/>
<path d="M23.3405 13.3281C21.4964 13.3281 20.0039 14.8281 20.0039 16.6641V23.3281C20.0039 25.1719 21.5042 26.6641 23.3405 26.6641C25.1768 26.6641 26.6693 25.1719 26.6771 23.3281V16.6641C26.6771 14.8203 25.1846 13.3281 23.3405 13.3281ZM25.0049 23.3281C25.0049 24.2422 24.2626 24.9922 23.3405 24.9922C22.4263 24.9922 21.6761 24.25 21.6761 23.3281V16.6641C21.6761 15.75 22.4184 15 23.3405 15C24.2547 15 25.0049 15.75 25.0049 16.6641V23.3281Z"/>
<path d="M32.5067 13.3281H29.1701C28.7091 13.3281 28.334 13.7031 28.334 14.1641V25.8281C28.334 26.2891 28.7091 26.6641 29.1701 26.6641C29.6311 26.6641 30.0062 26.2969 30.0062 25.8281V21.6641H32.5067C33.8819 21.6641 35.0072 20.5391 35.0072 19.1641V15.8281C35.0072 14.4531 33.8819 13.3281 32.5067 13.3281ZM33.3428 19.1641C33.3428 19.625 32.9677 20 32.5067 20H30.0062V14.9922H32.5067C32.9677 14.9922 33.3428 15.3672 33.3428 15.8281V19.1641Z"/>
</svg>
