<svg width="40" height="40" viewBox="0 0 40 40" xmlns="http://www.w3.org/2000/svg">
<path fill-rule="evenodd" clip-rule="evenodd" d="M20 38.5714C30.2567 38.5714 38.5714 30.2567 38.5714 20C38.5714 9.74328 30.2567 1.42857 20 1.42857C9.74328 1.42857 1.42857 9.74328 1.42857 20C1.42857 30.2567 9.74328 38.5714 20 38.5714ZM20 40C31.0457 40 40 31.0457 40 20C40 8.95431 31.0457 0 20 0C8.95431 0 0 8.95431 0 20C0 31.0457 8.95431 40 20 40Z"/>
<path fill-rule="evenodd" clip-rule="evenodd" d="M9.9993 32.8571C9.9993 32.4626 10.3191 32.1428 10.7136 32.1428H18.5707C18.9652 32.1428 19.285 32.4626 19.285 32.8571C19.285 33.2516 18.9652 33.5714 18.5707 33.5714H10.7136C10.3191 33.5714 9.9993 33.2516 9.9993 32.8571Z"/>
<path fill-rule="evenodd" clip-rule="evenodd" d="M7.14216 14.2857V22.8571H32.8564V14.2857H7.14216ZM6.42787 12.8571C6.03338 12.8571 5.71359 13.1769 5.71359 13.5714V23.5714C5.71359 23.9659 6.03338 24.2857 6.42787 24.2857H33.5707C33.9652 24.2857 34.285 23.9659 34.285 23.5714V13.5714C34.285 13.1769 33.9652 12.8571 33.5707 12.8571H6.42787Z"/>
<path fill-rule="evenodd" clip-rule="evenodd" d="M10 15.7143C10.3945 15.7143 10.7143 16.0341 10.7143 16.4286V20.7143C10.7143 21.1088 10.3945 21.4286 10 21.4286C9.60551 21.4286 9.28571 21.1088 9.28571 20.7143V16.4286C9.28571 16.0341 9.60551 15.7143 10 15.7143Z"/>
<path fill-rule="evenodd" clip-rule="evenodd" d="M12.8571 15.7143C13.2516 15.7143 13.5714 16.0341 13.5714 16.4286V20.7143C13.5714 21.1088 13.2516 21.4286 12.8571 21.4286C12.4627 21.4286 12.1429 21.1088 12.1429 20.7143V16.4286C12.1429 16.0341 12.4627 15.7143 12.8571 15.7143Z"/>
<path fill-rule="evenodd" clip-rule="evenodd" d="M17.1429 15.7143C17.5373 15.7143 17.8571 16.0341 17.8571 16.4286V20.7143C17.8571 21.1088 17.5373 21.4286 17.1429 21.4286C16.7484 21.4286 16.4286 21.1088 16.4286 20.7143V16.4286C16.4286 16.0341 16.7484 15.7143 17.1429 15.7143Z"/>
<path fill-rule="evenodd" clip-rule="evenodd" d="M20 15.7143C20.3945 15.7143 20.7143 16.0341 20.7143 16.4286V20.7143C20.7143 21.1088 20.3945 21.4286 20 21.4286C19.6055 21.4286 19.2857 21.1088 19.2857 20.7143V16.4286C19.2857 16.0341 19.6055 15.7143 20 15.7143Z"/>
<path fill-rule="evenodd" clip-rule="evenodd" d="M22.8571 15.7143C23.2516 15.7143 23.5714 16.0341 23.5714 16.4286V20.7143C23.5714 21.1088 23.2516 21.4286 22.8571 21.4286C22.4627 21.4286 22.1429 21.1088 22.1429 20.7143V16.4286C22.1429 16.0341 22.4627 15.7143 22.8571 15.7143Z"/>
<path fill-rule="evenodd" clip-rule="evenodd" d="M27.1429 15.7143C27.5373 15.7143 27.8571 16.0341 27.8571 16.4286V20.7143C27.8571 21.1088 27.5373 21.4286 27.1429 21.4286C26.7484 21.4286 26.4286 21.1088 26.4286 20.7143V16.4286C26.4286 16.0341 26.7484 15.7143 27.1429 15.7143Z"/>
<path fill-rule="evenodd" clip-rule="evenodd" d="M30 15.7143C30.3945 15.7143 30.7143 16.0341 30.7143 16.4286V20.7143C30.7143 21.1088 30.3945 21.4286 30 21.4286C29.6055 21.4286 29.2857 21.1088 29.2857 20.7143V16.4286C29.2857 16.0341 29.6055 15.7143 30 15.7143Z"/>
<path d="M22.8571 7.14286C22.8571 8.72081 21.578 10 20 10C18.422 10 17.1429 8.72081 17.1429 7.14286C17.1429 5.5649 18.422 4.28571 20 4.28571C21.578 4.28571 22.8571 5.5649 22.8571 7.14286Z"/>
<path fill-rule="evenodd" clip-rule="evenodd" d="M27.1429 32.8571C28.7208 32.8571 30 31.578 30 30C30 28.422 28.7208 27.1429 27.1429 27.1429C25.5649 27.1429 24.2857 28.422 24.2857 30C24.2857 31.578 25.5649 32.8571 27.1429 32.8571ZM27.1429 34.2857C29.5098 34.2857 31.4286 32.3669 31.4286 30C31.4286 27.6331 29.5098 25.7143 27.1429 25.7143C24.7759 25.7143 22.8571 27.6331 22.8571 30C22.8571 32.3669 24.7759 34.2857 27.1429 34.2857Z"/>
</svg>
