<svg width="18" height="20" viewBox="0 0 18 20" xmlns="http://www.w3.org/2000/svg">
<path d="M17.0268 18.5641C16.3569 19.2192 11.5336 23.3266 4.26738 13.7626C-3.39164 3.67932 1.20048 0.918137 3.19254 0.236846L3.19283 0.234677C3.22444 0.223881 3.25599 0.215608 3.28807 0.205266C3.34389 0.187156 3.39626 0.171315 3.44731 0.156282C3.46919 0.150329 3.49215 0.143014 3.51428 0.137062C3.79451 0.0591207 3.97301 0.0336952 3.97301 0.0336952C3.97301 0.0336952 3.97175 0.0381346 3.9708 0.0452981C5.29093 -0.150185 6.52905 0.292288 6.76593 1.27091L7.18232 3.49296C7.46548 4.66011 6.37239 6.06239 4.74119 6.62634L4.60922 6.6716C5.47228 9.20571 7.21512 12.1226 10.6314 14.7773L10.8827 14.5924C12.2117 13.6132 14.1837 13.4197 15.2886 14.158L17.2303 15.5854C18.3077 16.3061 18.2668 17.5903 17.0268 18.5641Z"/>
</svg>