<svg width="23" height="23" viewBox="0 0 23 23" xmlns="http://www.w3.org/2000/svg">
<circle cx="12" cy="11" r="9" fill="#F8902F"/>
<path d="M10.1964 7.5055C10.2385 7.5896 10.2805 7.67369 10.3226 7.73676C10.3646 7.79984 10.4277 7.86291 10.4697 7.92598C10.5328 7.98905 10.5959 8.05212 10.68 8.11519C10.743 8.15724 10.8271 8.22031 10.9323 8.24133C11.0164 8.28338 11.1004 8.30441 11.2056 8.32543C11.3107 8.34645 11.3948 8.34645 11.4789 8.34645C11.563 8.34645 11.6681 8.34645 11.7522 8.32543C11.8363 8.30441 11.9204 8.28338 11.9834 8.24133H12.0045C12.0886 8.19929 12.1727 8.15724 12.2568 8.09417C12.3198 8.05212 12.3829 7.98905 12.446 7.92598L12.467 7.90495C12.5301 7.84188 12.5721 7.77881 12.6142 7.71574C12.6562 7.65267 12.6983 7.5896 12.7193 7.5055C12.7193 7.48448 12.7193 7.48448 12.7403 7.46346C12.7824 7.37936 12.8034 7.27424 12.8244 7.19015C12.8454 7.10605 12.8454 7.00093 12.8454 6.91684C12.8454 6.83274 12.8454 6.72762 12.8244 6.64353C12.8034 6.55943 12.7824 6.47534 12.7403 6.37022C12.6772 6.22305 12.5931 6.09691 12.488 5.99179C12.467 5.97077 12.467 5.97077 12.446 5.94974C12.3829 5.88667 12.3198 5.84463 12.2357 5.78155C12.1516 5.73951 12.0886 5.69746 12.0045 5.65541C11.9204 5.61336 11.8363 5.59234 11.7522 5.57132C11.6471 5.55029 11.563 5.55029 11.4789 5.55029C11.3948 5.55029 11.2897 5.55029 11.2056 5.57132C11.1215 5.59234 11.0374 5.61336 10.9533 5.65541H10.9323C10.8482 5.69746 10.7641 5.73951 10.701 5.78155C10.6169 5.84463 10.5538 5.88667 10.4908 5.94974C10.4277 6.01282 10.3646 6.07589 10.3226 6.13896C10.2805 6.20203 10.2385 6.28612 10.1964 6.37022C10.1544 6.45431 10.1334 6.53841 10.1123 6.62251C10.0913 6.72762 10.0913 6.81172 10.0913 6.89581C10.0913 6.97991 10.0913 7.08503 10.1123 7.16912C10.1334 7.33731 10.1754 7.42141 10.1964 7.5055Z" />
<path d="M13.1189 15.2001H12.6353V10.0493C12.6353 9.75497 12.4041 9.50269 12.0887 9.50269H9.88121C9.58688 9.50269 9.33459 9.73395 9.33459 10.0493V11.1846C9.33459 11.4789 9.56586 11.7312 9.88121 11.7312H10.3227V15.2211H9.88121C9.58688 15.2211 9.33459 15.4524 9.33459 15.7678V16.9031C9.33459 17.1974 9.56586 17.4497 9.88121 17.4497H13.1189C13.4132 17.4497 13.6655 17.2184 13.6655 16.9031V15.7678C13.6655 15.4524 13.4132 15.2001 13.1189 15.2001Z" />
<path d="M11.5 0C5.15082 0 0 5.15082 0 11.5C0 17.8492 5.15082 23 11.5 23C17.8492 23 23 17.8492 23 11.5C23 5.15082 17.8492 0 11.5 0ZM11.5 21.4863C5.99177 21.4863 1.51371 17.0082 1.51371 11.5C1.51371 5.99177 5.99177 1.51371 11.5 1.51371C17.0082 1.51371 21.4863 5.99177 21.4863 11.5C21.4863 17.0082 17.0082 21.4863 11.5 21.4863Z" />
</svg>
