<svg width="22" height="23" viewBox="0 0 22 23" xmlns="http://www.w3.org/2000/svg">
<path d="M2.91451 8.70063L10.8975 2.93516C11.2552 2.67683 11.7399 2.68346 12.0904 2.95149L19.6075 8.69981C19.8549 8.88902 20 9.1827 20 9.49417V12C20 12.5523 19.5523 13 19 13H14.5C13.9477 13 13.5 13.4477 13.5 14V18C13.5 18.5523 13.0523 19 12.5 19H3.5C2.94772 19 2.5 18.5523 2.5 18V9.51131C2.5 9.19021 2.6542 8.88864 2.91451 8.70063Z" fill="#F8902F"/>
<path d="M21.9999 14.3904C21.9999 13.7089 21.4298 13.1545 20.7291 13.1545H18.6177V9.66151C18.6177 9.46401 18.5224 9.27801 18.3602 9.15908L9.69843 2.80657C9.46772 2.63739 9.14994 2.63739 8.91923 2.80657L0.257423 9.15908C0.0952974 9.27801 0 9.46401 0 9.66151V20.3569C0 20.7045 0.289682 20.9862 0.647024 20.9862H10.7316V21.7641C10.7316 22.4456 11.3018 23.0001 12.0025 23.0001H20.7291C21.4298 23.0001 21.9999 22.4456 21.9999 21.7641V20.1152C21.9999 19.8947 21.9395 19.6879 21.835 19.5085C21.9396 19.3291 21.9999 19.1223 21.9999 18.9018V17.2528C21.9999 17.0323 21.9395 16.8255 21.835 16.6461C21.9395 16.4666 21.9999 16.2599 21.9999 16.0394V14.3904ZM12.0256 20.1378H20.7058V21.7416H12.0256V20.1378ZM1.29405 9.97524L9.30883 4.09728L17.3236 9.97524V13.1545H12.0025C11.3018 13.1545 10.7316 13.7089 10.7316 14.3905V16.0395C10.7316 16.2601 10.7921 16.4668 10.8965 16.6462C10.7921 16.8257 10.7316 17.0324 10.7316 17.2529V18.902C10.7316 19.1225 10.7921 19.3292 10.8965 19.5087C10.8562 19.5779 10.8227 19.6512 10.7965 19.7278H1.29405V9.97524ZM20.7059 18.8792H12.0257V17.2754H20.7059V18.8792ZM20.7059 16.0169H12.0257V14.4131H20.7059V16.0169Z" />
<path d="M1.0367 7.48424L9.3089 1.41751L17.5811 7.48424C17.6978 7.56982 17.8346 7.61117 17.9702 7.61117C18.1663 7.61117 18.3601 7.52478 18.4873 7.36072C18.7025 7.08322 18.6456 6.68867 18.3603 6.4794L9.6985 0.126887C9.46779 -0.0422955 9.15001 -0.0422955 8.9193 0.126887L0.257493 6.4794C-0.0278445 6.68867 -0.0846902 7.08322 0.130492 7.36072C0.345581 7.63814 0.75145 7.69333 1.0367 7.48424Z" />
</svg>
