<svg width="16" height="16" viewBox="0 0 16 16" fill="none" xmlns="http://www.w3.org/2000/svg">
<ellipse cx="6.96375" cy="8.82759" rx="6.4286" ry="6.62068" fill="#ECEDEF"/>
<path d="M8.1322 1.90924C8.14243 1.90924 8.15238 1.90918 8.16255 1.90918C9.64148 1.90918 11.0273 2.49806 12.0673 3.56912C13.1159 4.64903 13.6894 6.08844 13.6823 7.62216C13.6808 7.96732 13.9512 8.24848 14.2863 8.25013C14.2873 8.25013 14.2883 8.25013 14.2893 8.25013C14.623 8.25013 14.8944 7.97226 14.896 7.6281C14.9047 5.75819 14.2049 4.00281 12.9255 2.68521C11.6562 1.37787 9.96591 0.65918 8.16273 0.65918C8.15165 0.65918 8.14049 0.659211 8.12938 0.659242C7.79421 0.660898 7.52382 0.942055 7.5254 1.28721C7.52701 1.63137 7.7984 1.90924 8.1322 1.90924Z" fill="#F8902F"/>
<path d="M15.5343 12.8923C15.5126 12.2734 15.2623 11.6958 14.8294 11.266C13.9819 10.4243 13.2718 9.93844 12.5947 9.73693C11.6617 9.45922 10.7976 9.71178 10.0264 10.4874C10.0253 10.4886 10.0241 10.4898 10.023 10.491L9.20168 11.3305C8.69158 11.0354 7.69996 10.3859 6.6154 9.2689L6.53553 9.18672C5.4581 8.07712 4.82347 7.05005 4.53472 6.52255L5.34911 5.67752C5.35026 5.67633 5.35138 5.67514 5.35253 5.67393C6.10569 4.87974 6.35089 3.9898 6.08126 3.02892C5.88561 2.33164 5.41386 1.60032 4.59659 0.727478C4.17922 0.281696 3.61841 0.0238829 3.01752 0.00157039C2.41675 -0.0207109 1.83923 0.194727 1.39169 0.608478L1.37428 0.624603C1.36617 0.632072 1.35828 0.63979 1.35061 0.647697C0.459727 1.56514 -0.00725781 2.84958 8.52826e-05 4.36211C0.0125261 6.93149 1.38371 9.8699 3.66796 12.2224C3.66987 12.2243 3.67175 12.2263 3.67367 12.2282C4.10309 12.6698 4.59064 13.1068 5.12293 13.5272C5.38889 13.7372 5.76982 13.6854 5.97378 13.4115C6.17772 13.1375 6.12744 12.7452 5.86145 12.5352C5.3688 12.1462 4.91956 11.7435 4.52622 11.3384C4.52434 11.3365 4.52246 11.3346 4.52055 11.3327C2.46069 9.20884 1.22468 6.60121 1.21379 4.35583C1.20815 3.19095 1.54839 2.21867 2.19786 1.54289L2.2025 1.53857C2.64363 1.13082 3.31149 1.15564 3.72294 1.59507C5.29415 3.27314 5.18037 4.06536 4.48611 4.79855L3.36116 5.96583C3.18474 6.1489 3.13562 6.42477 3.23751 6.6604C3.26606 6.72646 3.95692 8.29875 5.67754 10.0708L5.75741 10.1529C7.47781 11.9248 9.00448 12.6363 9.06863 12.6657C9.29741 12.7707 9.56529 12.72 9.74304 12.5383L10.8762 11.38C11.5883 10.6649 12.3575 10.5475 13.987 12.1658C14.4137 12.5895 14.4378 13.2773 14.0419 13.7315L14.0376 13.7364C13.3868 14.3999 12.4528 14.75 11.334 14.75C11.3248 14.75 11.3155 14.75 11.3063 14.7499C10.412 14.7453 9.37652 14.4929 8.31174 14.0199C8.004 13.8831 7.64689 14.0292 7.51413 14.3462C7.38138 14.6631 7.52327 15.0309 7.83101 15.1676C9.0618 15.7144 10.229 15.9944 11.3002 15.9999C11.3116 15.9999 11.3229 16 11.3343 16C12.7881 15.9999 14.0229 15.5194 14.9068 14.609C14.9145 14.6011 14.922 14.593 14.9293 14.5847L14.945 14.5666C15.3466 14.1058 15.5559 13.5112 15.5343 12.8923Z" fill="#F8902F"/>
<path d="M11.21 4.45458C10.559 3.78414 9.93428 3.60624 9.634 3.5207C9.31087 3.42867 8.97667 3.6238 8.88734 3.95652C8.79801 4.28921 8.98744 4.63349 9.31051 4.72549C9.55605 4.79543 9.92709 4.90111 10.3518 5.33846C10.7606 5.75949 10.8692 6.13958 10.9411 6.39112L10.9498 6.42171C11.0279 6.69349 11.2696 6.86949 11.5315 6.86949C11.5885 6.86952 11.6466 6.86115 11.704 6.84362C12.0254 6.74565 12.2088 6.3979 12.1137 6.06693L12.1054 6.03824C12.0118 5.71068 11.8376 5.10093 11.21 4.45458Z" fill="#F8902F"/>
</svg>
