<svg width="28" height="23" viewBox="0 0 28 23" xmlns="http://www.w3.org/2000/svg">
<path d="M14 19C14 20.1046 13.1046 21 12 21C10.8954 21 10 20.1046 10 19C10 17.8954 10.8954 17 12 17C13.1046 17 14 17.8954 14 19Z" fill="#F8902F"/>
<path d="M24 19C24 20.1046 23.1046 21 22 21C20.8954 21 20 20.1046 20 19C20 17.8954 20.8954 17 22 17C23.1046 17 24 17.8954 24 19Z" fill="#F8902F"/>
<path d="M26.1743 2H8.32574C7.66136 2 7.1817 2.6359 7.36422 3.27472L9.79279 11.7747C9.91545 12.204 10.3078 12.5 10.7543 12.5H23.7457C24.1922 12.5 24.5846 12.204 24.7072 11.7747L27.1358 3.27472C27.3183 2.6359 26.8387 2 26.1743 2Z" fill="#F8902F"/>
<path d="M7.54219 16.3152H23.045C23.3989 16.3152 23.7106 16.0836 23.8117 15.7458L26.9667 5.1937C27.0388 4.95259 26.9923 4.69174 26.8414 4.49004C26.6904 4.28833 26.4527 4.16952 26.2001 4.16952H5.8424L4.76598 0.569291C4.665 0.231541 4.35318 5.80076e-09 3.99933 5.80076e-09H0.799929C0.358173 -5.25216e-05 0 0.356661 0 0.796735C0 1.23676 0.358173 1.59352 0.799929 1.59352H3.40296L4.47426 5.17647C4.47753 5.18829 4.48095 5.2 4.48475 5.21156L7.33062 14.7296C5.70619 14.8385 4.41773 16.1887 4.41773 17.8339C4.41773 19.55 5.81936 20.9461 7.54214 20.9461H8.33627C8.68331 22.1313 9.78314 23 11.0836 23C12.384 23 13.4838 22.1313 13.8309 20.9461H18.0751C18.4221 22.1313 19.5219 23 20.8224 23C22.1227 23 23.2226 22.1313 23.5697 20.9461H24.6003C25.042 20.9461 25.4002 20.5893 25.4002 20.1493C25.4002 19.7093 25.042 19.3525 24.6003 19.3525H23.5697C23.2226 18.1673 22.1228 17.2986 20.8224 17.2986C19.5219 17.2986 18.4221 18.1673 18.0751 19.3525H13.8309C13.4838 18.1673 12.384 17.2986 11.0836 17.2986C9.78314 17.2986 8.68326 18.1673 8.33627 19.3525H7.54214C6.70145 19.3525 6.01753 18.6712 6.01753 17.8338C6.01753 16.9964 6.7015 16.3152 7.54219 16.3152ZM19.2769 5.76299H25.1273L24.0262 9.44552H19.2769V5.76299ZM19.2768 11.0391H23.5497L22.4486 14.7216H19.2768V11.0391ZM13.3579 5.76299H17.6771V9.44552H13.3579V5.76299ZM13.3578 11.0391H17.677V14.7216H13.3578V11.0391ZM11.7581 14.7216H8.99751L7.89646 11.0391H11.7581V14.7216ZM6.31896 5.76299H11.758V9.44552H7.42001L6.31896 5.76299ZM20.8224 18.8921C21.5184 18.8921 22.0845 19.456 22.0845 20.1492C22.0845 20.8424 21.5184 21.4064 20.8224 21.4064C20.1265 21.4064 19.5603 20.8424 19.5603 20.1492C19.5603 19.456 20.1265 18.8921 20.8224 18.8921ZM11.0836 18.8921C11.7796 18.8921 12.3457 19.456 12.3457 20.1492C12.3457 20.8424 11.7796 21.4064 11.0836 21.4064C10.3877 21.4064 9.82153 20.8424 9.82153 20.1492C9.82153 19.456 10.3877 18.8921 11.0836 18.8921Z" />
</svg>
