<svg width="27" height="34" viewBox="0 0 27 34" fill="none" xmlns="http://www.w3.org/2000/svg">
<path d="M19 1H2C1.44772 1 1 1.44772 1 2V32C1 32.5523 1.44772 33 2 33H24.5C25.0523 33 25.5 32.5523 25.5 32V7.5H20C19.4477 7.5 19 7.05228 19 6.5V1Z" fill="#F29100"/>
<path d="M9.75 10V15.8763H8.11653C7.27183 15.8763 6.80763 16.8587 7.34403 17.5113L12.7275 24.0603C13.1275 24.5469 13.8725 24.5469 14.2725 24.0603L19.656 17.5113C20.1924 16.8587 19.7282 15.8763 18.8835 15.8763H17.25V10C17.25 9.44772 16.8023 9 16.25 9H10.75C10.1977 9 9.75 9.44772 9.75 10Z" fill="white"/>
<path d="M17.5043 16.5333C17.3818 16.4416 17.2593 16.3499 17.1061 16.3193C16.9836 16.2888 16.8918 16.2582 16.7693 16.2582C16.7386 16.2582 16.708 16.2582 16.6774 16.2582H15.7893V12.8037C15.7893 12.3145 15.5749 11.856 15.2687 11.5197C14.9318 11.1834 14.503 11 13.9824 11H11.0425C10.5525 11 10.0931 11.214 9.75622 11.5197C9.41935 11.856 9.2356 12.284 9.2356 12.7731V16.2276H8.34749C7.97999 16.2276 7.64312 16.3805 7.39812 16.625C7.15312 16.8696 7 17.2059 7 17.5727C7 17.7256 7.03062 17.8784 7.09187 18.0007C7.09187 18.0007 7.09187 18.0313 7.1225 18.0313C7.18375 18.1842 7.27562 18.3064 7.3675 18.4287L9.41935 20.9355L11.4712 23.4729C11.5018 23.5035 11.5018 23.5341 11.5325 23.5646C11.7468 23.8092 12.0531 23.962 12.3899 23.9926C12.6962 24.0232 13.0331 23.962 13.3087 23.7481C13.3393 23.7175 13.3699 23.6869 13.4006 23.6563C13.4312 23.6258 13.4312 23.6258 13.4618 23.5952C13.4924 23.5646 13.5231 23.5341 13.5231 23.5035C13.5231 23.5035 13.5231 23.4729 13.5537 23.4729L15.6362 20.905L17.7186 18.337C17.933 18.0619 18.0249 17.695 17.9943 17.3587C17.9636 17.0836 17.8105 16.7473 17.5043 16.5333ZM14.5949 20.1407L12.5431 22.7086L10.4606 20.1407L8.40874 17.6033L8.37811 17.5727H9.93997C10.3075 17.5727 10.6137 17.267 10.6137 16.9002V12.8037C10.6137 12.6814 10.675 12.5591 10.7668 12.4674C10.8587 12.3757 10.9812 12.3145 11.1037 12.3145H14.0437C14.1662 12.3145 14.2887 12.3757 14.3805 12.4674C14.4724 12.5591 14.5337 12.6814 14.5337 12.8037V16.9002C14.5337 17.267 14.8399 17.5727 15.2074 17.5727H16.6774L14.5949 20.1407Z" fill="#012640"/>
<path d="M26.3291 6.78622L26.2937 6.75177V6.71733L19.5608 0.172239L19.5254 0.137791C19.5254 0.137791 19.4899 0.137791 19.4899 0.103343C19.4899 0.103343 19.4545 0.103343 19.4545 0.0688956C19.3482 0 19.2419 0 19.1001 0H2.40966C1.73638 0 1.13396 0.275583 0.708725 0.688956C0.28349 1.10233 1.35179e-07 1.72239 1.35179e-07 2.34245V31.6575C1.35179e-07 32.3121 0.28349 32.8977 0.708725 33.311C1.13396 33.7244 1.77181 34 2.40966 34H23.9903C24.6282 34 25.2306 33.7589 25.6558 33.3455L25.6913 33.311C26.1165 32.8977 26.4 32.2776 26.4 31.6575V7.1307C26.4 6.99291 26.3646 6.88956 26.3291 6.78622ZM19.7734 2.48024L23.7777 6.37285H20.8365C20.553 6.37285 20.2695 6.2695 20.0924 6.06282C19.9152 5.89058 19.7734 5.615 19.7734 5.33941V2.48024ZM24.8762 31.6575C24.8762 31.8987 24.7699 32.1054 24.5928 32.2776L24.5573 32.3121C24.4156 32.4498 24.1675 32.5532 23.9549 32.5532H2.40966C2.16161 32.5532 1.94899 32.4498 1.77181 32.3121C1.59463 32.1398 1.52376 31.9331 1.52376 31.692V2.308C1.52376 2.06687 1.63007 1.86018 1.77181 1.68794C1.94899 1.5157 2.16161 1.44681 2.40966 1.44681H18.2851V5.33941C18.2851 6.02837 18.5686 6.64843 19.0647 7.1307C19.5254 7.57852 20.1987 7.88855 20.9074 7.88855H24.8762V31.6575Z" fill="#012640"/>
</svg>
