<svg width="15" height="15" viewBox="0 0 15 15" fill="none" xmlns="http://www.w3.org/2000/svg">
<ellipse cx="7.92308" cy="7.03448" rx="6.92308" ry="7.03448" fill="#ECEDEF"/>
<path d="M0.980279 2.89445C1.11423 2.89445 1.24898 2.84986 1.35988 2.75848L2.97066 1.43171C3.22228 1.22447 3.25615 0.854974 3.04633 0.606449C2.8365 0.357924 2.46242 0.324437 2.2108 0.531713L0.600023 1.85854C0.348408 2.06578 0.314535 2.43528 0.524358 2.6838C0.641697 2.82273 0.81035 2.89445 0.980279 2.89445Z" fill="#F8902F"/>
<path d="M11.0297 1.43171L12.6405 2.75848C12.7514 2.84985 12.8861 2.89444 13.0201 2.89444C13.19 2.89444 13.3587 2.82273 13.476 2.68377C13.6858 2.43525 13.652 2.06575 13.4003 1.85851L11.7896 0.53171C11.538 0.324464 11.1639 0.357892 10.954 0.606446C10.7442 0.854972 10.7781 1.22443 11.0297 1.43171Z" fill="#F8902F"/>
<path d="M11.9498 3.19693C10.7614 2.02315 9.22088 1.32375 7.56359 1.19417V0.585938C7.56359 0.262324 7.29801 0 6.97037 0C6.64273 0 6.37715 0.262324 6.37715 0.585938V1.19921C4.74243 1.34068 3.22449 2.03719 2.0503 3.19696C0.728151 4.50281 -1.62934e-08 6.23909 -1.62934e-08 8.08588C-1.62934e-08 9.93267 0.728151 11.669 2.05027 12.9748C2.17289 13.0959 2.2993 13.212 2.42916 13.3229L1.95215 14.1143C1.78456 14.3923 1.8769 14.7519 2.15841 14.9175C2.25356 14.9734 2.35809 15 2.46131 15C2.66354 15 2.86064 14.8978 2.9716 14.7137L3.39309 14.0144C4.47097 14.6568 5.70876 14.9999 7 14.9999C8.28608 14.9999 9.52034 14.6607 10.6063 14.0133L11.0284 14.7137C11.1394 14.8978 11.3364 15 11.5387 15C11.6419 15 11.7465 14.9734 11.8416 14.9174C12.1231 14.7519 12.2154 14.3923 12.0479 14.1142L11.3063 12.8839C11.2207 12.7418 11.0782 12.6421 10.9141 12.6093C10.75 12.5766 10.5795 12.6138 10.4447 12.7119C9.4415 13.4421 8.25034 13.828 7 13.828C3.7944 13.828 1.18645 11.2521 1.18645 8.08588C1.18645 4.91962 3.7944 2.34375 7 2.34375C10.2056 2.34375 12.8136 4.91965 12.8136 8.08591C12.8136 9.05303 12.5657 10.0089 12.0969 10.8502C11.9389 11.1337 12.0436 11.49 12.3306 11.6461C12.6176 11.8021 12.9784 11.6988 13.1363 11.4153C13.7013 10.4013 14 9.25002 14 8.08588C14 6.23909 13.2719 4.50281 11.9498 3.19693Z" fill="#F8902F"/>
<path d="M6.97018 3.7793C6.64254 3.7793 6.37695 4.04162 6.37695 4.36523V8.08591C6.37695 8.24133 6.43945 8.39036 6.55071 8.50025L8.22858 10.1575C8.34441 10.2719 8.49621 10.3291 8.64805 10.3291C8.79988 10.3291 8.95169 10.2719 9.06752 10.1575C9.2992 9.92871 9.2992 9.5577 9.06752 9.32886L7.5634 7.84321V4.36523C7.5634 4.04162 7.29781 3.7793 6.97018 3.7793Z" fill="#F8902F"/>
</svg>
