<svg width="25" height="24" viewBox="0 0 25 24" xmlns="http://www.w3.org/2000/svg">
<path fill-rule="evenodd" clip-rule="evenodd" d="M20.9517 4.69165L24.1863 7.07495C24.698 7.4519 25 8.04956 25 8.68506V20C25 21.1046 24.1045 22 23 22H4C2.89551 22 2 21.1046 2 20V8.64301C2 8.03125 2.28003 7.45319 2.76001 7.07385L5 5.30365V12C5 12.5523 5.44775 13 6 13H20C20.5522 13 21 12.5523 21 12V5C21 4.8924 20.9832 4.78876 20.9517 4.69165ZM20.0129 4.00006L15.708 0.828308C14.9778 0.290222 14.0945 0 13.1875 0C12.2312 0 11.303 0.32251 10.5527 0.915405L6.64966 4H20C20.0044 4 20.0085 4.00006 20.0129 4.00006Z" fill="#F8902F"/>
<path d="M22.9284 7.72594L20.8091 6.1752C20.5764 6.0051 20.2497 6.0555 20.0807 6.29071C19.9106 6.52483 19.9617 6.85241 20.1955 7.02358L22.3148 8.57433C22.7165 8.8683 22.9565 9.35337 22.9565 9.87309V21.3752C22.9565 22.2435 22.295 22.9501 21.4821 22.9501H2.5179C1.70501 22.9501 1.04346 22.2435 1.04346 21.3752V9.87304C1.04346 9.35332 1.28348 8.86825 1.6852 8.5732L3.82642 7.0067C4.0591 6.83661 4.11129 6.50799 3.94122 6.27382C3.77218 6.0397 3.44661 5.98719 3.21286 6.15831L1.07164 7.72481C0.400696 8.21623 0 9.01944 0 9.87304V21.3752C0 22.822 1.12906 24 2.5179 24H21.4821C22.8699 24 24 22.822 24 21.3752V9.87304C24 9.01841 23.5994 8.2152 22.9284 7.72594Z" />
<path d="M16.5913 3.08623L15.1565 2.03631C13.2678 0.654565 10.7321 0.654565 8.84342 2.03631L7.39192 3.09883C7.15817 3.26892 7.10705 3.59754 7.2761 3.83274C7.37837 3.97448 7.53695 4.04904 7.69871 4.04904C7.80514 4.04904 7.9126 4.01543 8.00549 3.94825L9.45698 2.88464C10.9784 1.77172 13.0215 1.77172 14.5429 2.88464L15.9777 3.93457C16.2104 4.10363 16.5359 4.05323 16.7061 3.81906C16.8761 3.58494 16.825 3.25632 16.5913 3.08623Z" />
<path d="M21.8243 10.5849C21.6647 10.3424 21.3412 10.2783 21.1012 10.439L14.3488 14.9674C12.9214 15.9249 11.0765 15.9249 9.64903 14.9674L2.89662 10.439C2.65558 10.2783 2.33212 10.3434 2.17349 10.5849C2.01384 10.8264 2.07855 11.1519 2.31852 11.3125L9.07088 15.8409C9.96095 16.4384 10.9804 16.7365 11.9999 16.7365C13.0194 16.7365 14.0389 16.4373 14.9269 15.8409L21.6793 11.3125C21.9193 11.1519 21.984 10.8264 21.8243 10.5849Z" />
<path d="M20.3478 3.00098H3.65213C3.36413 3.00098 3.13037 3.23613 3.13037 3.52591V11.4005C3.13037 11.6903 3.36413 11.9255 3.65213 11.9255C3.94013 11.9255 4.17388 11.6903 4.17388 11.4005V4.0509H19.8261V11.4005C19.8261 11.6903 20.0598 11.9255 20.3478 11.9255C20.6358 11.9255 20.8696 11.6903 20.8696 11.4005V3.52591C20.8695 3.23613 20.6358 3.00098 20.3478 3.00098Z" />
<path d="M16.1738 13.5005H7.30423C7.01623 13.5005 6.78247 13.7357 6.78247 14.0255C6.78247 14.3153 7.01623 14.5505 7.30423 14.5505H16.1738C16.4618 14.5505 16.6955 14.3153 16.6955 14.0255C16.6955 13.7357 16.4618 13.5005 16.1738 13.5005Z" />
<path d="M18.2608 5.10107H16.1739C15.8859 5.10107 15.6521 5.33628 15.6521 5.62606C15.6521 5.91585 15.8859 6.15105 16.1739 6.15105H18.2608C18.5488 6.15105 18.7826 5.91585 18.7826 5.62606C18.7826 5.33628 18.5488 5.10107 18.2608 5.10107Z" />
<path d="M7.82602 11.4009H5.73904C5.45104 11.4009 5.21729 11.6361 5.21729 11.9259C5.21729 12.2157 5.45104 12.4509 5.73904 12.4509H7.82602C8.11402 12.4509 8.34777 12.2157 8.34777 11.9259C8.34777 11.6361 8.11402 11.4009 7.82602 11.4009Z" />
<path fill-rule="evenodd" clip-rule="evenodd" d="M10.3635 11.4466C10.3635 11.7522 10.6113 12 10.917 12C11.2227 12 11.4705 11.7522 11.4705 11.4466V10.9412H12.3796C12.6721 10.9412 12.9092 10.7042 12.9092 10.4118C12.9092 10.1194 12.6721 9.88235 12.3796 9.88235H11.4705V9.55698H12.4392C12.7456 9.55698 13.0173 9.4765 13.2542 9.31552C13.4922 9.15454 13.6755 8.93677 13.8044 8.66217C13.9348 8.3862 14 8.08319 14 7.75314C14 7.42984 13.936 7.13495 13.8086 6.86844C13.6821 6.60062 13.502 6.38892 13.2678 6.23334C13.0337 6.07779 12.7634 6 12.457 6H10.3635V9.90884C10.1523 9.97842 10 10.1773 10 10.4118C10 10.6462 10.1523 10.8451 10.3635 10.9147V11.4466ZM11.4705 6.88873H12.0288C12.5825 6.88873 12.8594 7.18228 12.8594 7.76935C12.8594 8.36862 12.5825 8.66824 12.0288 8.66824H11.4705V6.88873Z" />
</svg>
