<svg width="25" height="25" viewBox="0 0 25 25" xmlns="http://www.w3.org/2000/svg">
<circle cx="14.5" cy="10.5" r="9.5" fill="#F8902F"/>
<path d="M23 12.5C23 18.299 18.299 23 12.5 23V25C19.4036 25 25 19.4036 25 12.5H23ZM12.5 23C6.70101 23 2 18.299 2 12.5H0C0 19.4036 5.59644 25 12.5 25V23ZM2 12.5C2 6.70101 6.70101 2 12.5 2V0C5.59644 0 0 5.59644 0 12.5H2ZM12.5 2C18.299 2 23 6.70101 23 12.5H25C25 5.59644 19.4036 0 12.5 0V2ZM4.29289 5.70711L19.2929 20.7071L20.7071 19.2929L5.70711 4.29289L4.29289 5.70711Z" />
</svg>
