<svg width="15" height="17" viewBox="0 0 15 17" fill="none" xmlns="http://www.w3.org/2000/svg">
<ellipse cx="8.07737" cy="8.20685" rx="6.92308" ry="7.03448" fill="#ECEDEF"/>
<path d="M6.92308 0C3.10566 0 0 3.1438 0 7.00795C0 8.55169 0.486362 10.0159 1.40643 11.2422C2.23266 12.3435 3.38103 13.1842 4.66533 13.634L6.33334 16.5958C6.42985 16.84 6.66338 17 6.92308 17C7.18278 17 7.4163 16.84 7.51281 16.5958L9.18082 13.634C10.4651 13.1842 11.6135 12.3435 12.4397 11.2422C13.3598 10.0159 13.8462 8.55169 13.8462 7.00795C13.8462 3.1438 10.7405 0 6.92308 0ZM8.52277 12.4974C8.33601 12.5531 8.18478 12.6924 8.11244 12.8754L6.92308 15.2556L5.73371 12.8755C5.66144 12.6924 5.51015 12.5532 5.32339 12.4975C2.93694 11.7862 1.27026 9.52878 1.27026 7.00801C1.27026 3.85284 3.80612 1.28596 6.92308 1.28596C10.04 1.28596 12.5759 3.85284 12.5759 7.00801C12.5759 9.52872 10.9092 11.7861 8.52277 12.4974Z" fill="#F8902F"/>
<path d="M6.92368 3.1825C4.83982 3.1825 3.14453 4.89856 3.14453 7.00798C3.14453 9.11739 4.83982 10.8335 6.92368 10.8335C9.00755 10.8335 10.7028 9.11739 10.7028 7.00798C10.7028 4.89856 9.00755 3.1825 6.92368 3.1825ZM6.92368 9.54756C5.54033 9.54756 4.41486 8.40829 4.41486 7.00792C4.41486 5.6076 5.54027 4.46833 6.92368 4.46833C8.30703 4.46833 9.43251 5.60754 9.43251 7.00792C9.43251 8.40829 8.30703 9.54756 6.92368 9.54756Z" fill="#F8902F"/>
</svg>
