<svg width="17" height="23" viewBox="0 0 17 23" xmlns="http://www.w3.org/2000/svg">
<circle cx="10" cy="8" r="7" fill="#F8902F"/>
<path d="M13.1415 2.54666C11.7123 0.927343 9.65567 0 7.50001 0C5.34436 0 3.28776 0.927343 1.85851 2.55137C0.655684 3.90708 -0.00469188 5.67233 2.50958e-05 7.50819C0.00474207 9.34404 0.669835 11.1046 1.87738 12.4603C2.07549 12.6815 2.28776 12.8934 2.50945 13.0911C3.29719 13.7925 3.63209 14.4656 3.63209 15.3506L3.62266 16.2309C3.61794 16.6969 3.9953 17.0829 4.46228 17.0876C4.467 17.0876 4.467 17.0876 4.47172 17.0876C4.9387 17.0876 5.31605 16.7157 5.32077 16.2497L5.3302 15.3694V15.3647C5.33492 13.9808 4.79719 12.8604 3.64153 11.8295C3.47172 11.6789 3.30662 11.5094 3.15096 11.3399C1.20757 9.15575 1.20285 5.86062 3.13681 3.67172C4.2453 2.41486 5.83964 1.69464 7.50473 1.69464C9.17454 1.69464 10.7642 2.41486 11.8726 3.67172C13.8019 5.85591 13.7972 9.14634 11.8679 11.3258C11.7123 11.5047 11.5425 11.6695 11.3679 11.8295C10.2311 12.8416 9.69812 13.9525 9.69341 15.3176L9.68397 16.2403C9.67925 16.7063 10.0566 17.0923 10.5236 17.097C10.5283 17.097 10.5283 17.097 10.533 17.097C11 17.097 11.3774 16.7251 11.3821 16.2591L11.3915 15.3365C11.3868 15.3223 11.3868 15.3223 11.3915 15.3176C11.3962 14.4327 11.717 13.7831 12.5 13.0864C12.7264 12.884 12.9387 12.6674 13.1415 12.4415C14.3396 11.0858 15 9.32992 15 7.49406C15 5.66291 14.3396 3.90237 13.1415 2.54666Z" />
<path d="M10.5283 18.5044H4.47171C4.00473 18.5044 3.62265 18.8857 3.62265 19.3517C3.62265 19.8177 4.00473 20.199 4.47171 20.199H10.533C11 20.199 11.3774 19.8224 11.3774 19.3517C11.3774 18.8857 10.9953 18.5044 10.5283 18.5044Z" />
<path d="M9.13208 21.3052H5.86322C5.39624 21.3052 5.01416 21.6865 5.01416 22.1525C5.01416 22.6185 5.39624 22.9998 5.86322 22.9998H9.13208C9.59906 22.9998 9.98113 22.6185 9.98113 22.1525C9.98113 21.6865 9.59906 21.3052 9.13208 21.3052Z" />
<path d="M8.09906 9.93726L5.75473 7.59772C5.42454 7.26821 4.88681 7.26821 4.5519 7.59772C4.22171 7.92723 4.22171 8.46387 4.5519 8.79809L6.65095 10.8881C6.65095 12.1309 6.65095 16.2404 6.65095 16.2404C6.65095 16.7064 7.03303 17.0877 7.50001 17.0877C7.96699 17.0877 8.34906 16.7064 8.34906 16.2404V10.601C8.34906 10.2903 8.24057 10.0785 8.09906 9.93726Z" />
<path d="M10.4481 7.59284C10.118 7.26332 9.58022 7.26332 9.24531 7.59284L8.7972 8.04003C8.46701 8.36955 8.46701 8.90618 8.7972 9.2404C8.9623 9.40516 9.17928 9.48989 9.39626 9.48989C9.61324 9.48989 9.83022 9.40987 10 9.2404L10.4481 8.79321C10.7783 8.46369 10.7783 7.92706 10.4481 7.59284Z" />
</svg>
