<svg width="17" height="19" viewBox="0 0 17 19" fill="none" xmlns="http://www.w3.org/2000/svg">
<rect width="17" height="19" fill="black" fill-opacity="0"/>
<path d="M2 0C1.44727 0 1 0.447754 1 1V18C1 18.5522 1.44727 19 2 19H15C15.5527 19 16 18.5522 16 18V14.9584C16 14.0675 14.9228 13.6213 14.2929 14.2513L12.1562 16.3881C11.2656 17.2787 9.82227 17.2787 8.93164 16.3881C8.04102 15.4974 8.04102 14.0533 8.93164 13.1627L16 6.09412V5C16 4.44772 15.5523 4 15 4H13C12.5 4 12 4 12 3L12.1015 1.05201C12.1312 0.480071 11.6755 0 11.1028 0H2Z" fill="#F8902F"/>
<path d="M14.6251 13.8789C14.4201 13.8789 14.2539 14.0451 14.2539 14.25V17.8867C14.2539 18.0914 14.0874 18.2578 13.8827 18.2578H1.11366C0.908971 18.2578 0.742442 18.0914 0.742442 17.8867V11.1699C0.742442 10.965 0.576246 10.7988 0.371221 10.7988C0.166196 10.7988 0 10.965 0 11.1699V17.8867C0 18.5006 0.499589 19 1.11366 19H13.8827C14.4968 19 14.9964 18.5006 14.9964 17.8867V14.25C14.9964 14.0451 14.8302 13.8789 14.6251 13.8789Z" fill="white"/>
<path d="M16.0824 6.94496C15.7635 6.62619 15.3923 6.39132 14.9964 6.23869V4.00741C14.9961 4.00738 14.9967 4.00741 14.9964 4.00741C14.9964 3.91089 14.9586 3.81596 14.8877 3.74501L11.2501 0.108731C11.1792 0.0377774 11.0842 0.00100196 10.9877 0.000964846C10.9877 0.000630861 10.9877 0.00129883 10.9877 0.000964846L1.11366 0C0.499589 0 0 0.499419 0 1.11328V8.028C0 8.23295 0.166196 8.39909 0.371221 8.39909C0.576246 8.39909 0.742442 8.23295 0.742442 8.028V1.11325C0.742442 0.908625 0.908971 0.742152 1.11366 0.742152H10.6164V3.26522C10.6164 3.87909 11.116 4.37851 11.7301 4.37851H14.2539V6.05266C13.3257 5.93729 12.3556 6.23413 11.6446 6.94496L6.35389 12.2338C6.20893 12.3787 6.20893 12.6137 6.35389 12.7586C6.49885 12.9036 6.73391 12.9036 6.87891 12.7586L12.1696 7.46976C13.1036 6.53609 14.6234 6.53605 15.5574 7.46976C16.4914 8.40347 16.4914 9.92273 15.5574 10.8564L10.5955 15.8167C10.013 16.3989 9.06532 16.3989 8.48291 15.8167C8.20079 15.5346 8.04539 15.1597 8.04539 14.7608C8.04539 14.3619 8.20079 13.9869 8.48291 13.7049L13.469 8.72046C13.5789 8.61062 13.725 8.55009 13.8804 8.55009C14.0358 8.55009 14.1819 8.61058 14.2918 8.72046C14.4017 8.83031 14.4622 8.97637 14.4622 9.13171C14.4622 9.28705 14.4017 9.43311 14.2917 9.54296L9.798 14.0351C9.65304 14.18 9.65304 14.415 9.798 14.56C9.94296 14.7048 10.178 14.7048 10.323 14.56L14.8167 10.0678C15.0668 9.81775 15.2046 9.48529 15.2046 9.13171C15.2046 8.77813 15.0668 8.44567 14.8168 8.19566C14.5667 7.94562 14.2341 7.8079 13.8804 7.8079C13.5267 7.8079 13.1942 7.94562 12.944 8.19562L7.95793 13.18C7.08605 14.0516 7.08605 15.4699 7.95793 16.3415C8.39393 16.7773 8.96647 16.9952 9.53919 16.9952C10.1118 16.9951 10.6846 16.7772 11.1204 16.3415L16.0824 11.3812C17.3059 10.1582 17.3059 8.16801 16.0824 6.94496ZM11.7301 3.63632C11.5254 3.63632 11.3589 3.46984 11.3589 3.26522V1.26703L13.7289 3.63632H11.7301Z" fill="white"/>
<path d="M0.633674 9.35678C0.564627 9.28775 0.468852 9.24805 0.371221 9.24805C0.273218 9.24805 0.177815 9.28775 0.108396 9.35678C0.0393494 9.4258 0 9.52154 0 9.61914C0 9.71674 0.0393494 9.81248 0.108396 9.88151C0.177815 9.9509 0.273218 9.99024 0.371221 9.99024C0.468852 9.99024 0.564627 9.9509 0.633674 9.88151C0.702721 9.81248 0.742441 9.71674 0.742441 9.61914C0.742441 9.52154 0.702721 9.4258 0.633674 9.35678Z" fill="white"/>
<path d="M5.78877 13.5211L5.78142 13.4985C5.71812 13.3035 5.50872 13.1968 5.31372 13.26C5.11871 13.3233 5.01191 13.5327 5.07521 13.7276L5.08256 13.7503C5.13349 13.9072 5.27904 14.0069 5.43559 14.0069C5.47356 14.0069 5.51221 14.001 5.55026 13.9887C5.74526 13.9254 5.85206 13.7161 5.78877 13.5211Z" fill="white"/>
</svg>
