<svg width="233" height="50" viewBox="0 0 233 50" fill="none" xmlns="http://www.w3.org/2000/svg">
<path fill-rule="evenodd" clip-rule="evenodd" d="M7.18109 8.15845C2.37485 12.9443 0 19.2503 0 25.5001C0 31.7498 2.37485 38.0558 7.18109 42.8417C14.6449 50.2738 25.7275 51.9066 34.7746 47.7964L31.5516 41.9408L46.3661 47.1771L7.18109 8.15845Z" fill="#F8902F"/>
<path fill-rule="evenodd" clip-rule="evenodd" d="M41.185 41.8416C50.7975 32.2699 50.7975 16.7301 41.185 7.15838C33.7212 -0.273743 22.6386 -1.90656 13.5915 2.20363L16.8145 8.05924L2 2.82297L41.185 41.8416Z" fill="#024F85"/>
<path d="M13.9504 23.712L13.5494 25.6754H16.788C16.2482 27.4503 15.1224 28.9895 13.3489 28.9895C12.0689 28.9895 11.3287 28.1885 11.3287 26.7906H9C9 29.3037 10.172 31 12.9788 31C17.6053 31 19.5639 26.4136 19.5639 23.2251C19.5639 20.4136 17.8675 19 15.4463 19C12.0998 19 10.2492 21.356 9.78651 23.0366H12.1152C12.439 22.3456 13.1022 21.0105 15.0299 21.0105C15.986 21.0105 17.0964 21.5916 17.0964 23.712H13.9504Z" fill="white"/>
<path d="M31.1359 23.0366C31.1513 22.9267 31.1667 22.7225 31.1667 22.5497C31.1667 20.9319 30.1798 19 27.1417 19C21.8675 19 20.5566 24.6859 20.5566 26.8534C20.5566 29.5864 22.1451 31 24.6125 31C27.4193 31 29.3624 29.2723 30.3494 26.7906H28.0207C27.4501 28.1885 26.3706 28.9895 25.0752 28.9895C23.533 28.9895 22.9316 27.8429 22.9316 26.3665C22.9316 24.0105 24.2424 21.0105 26.7407 21.0105C28.6684 21.0105 28.761 22.3456 28.8072 23.0366H31.1359Z" fill="white"/>
<path d="M31.2202 30.7016H36.0318C40.9051 30.7016 41.3214 27.3717 41.3214 26.445C41.3214 25.6597 41.0284 24.9372 40.0877 24.5602C40.612 24.3874 42 23.4921 42 21.5759C42 20.5079 41.3831 19.2984 39.1161 19.2984H33.5952L31.2202 30.7016ZM34.5976 25.6754H37.5586C38.3142 25.6754 38.9773 25.9738 38.9773 26.7277C38.9773 28.0785 37.9441 28.7382 36.7875 28.7382H33.9499L34.5976 25.6754ZM35.5229 21.2618H38.1908C39.1161 21.2618 39.6867 21.4974 39.6867 22.1571C39.6867 23.288 38.7306 23.7592 37.7282 23.7592H34.9986L35.5229 21.2618Z" fill="white"/>
<path fill-rule="evenodd" clip-rule="evenodd" d="M233 4.39938H219.316L218.581 7.89022H223.388L220.673 20.3897H224.914L227.628 7.89022H232.265L233 4.39938ZM213.153 4.39938L209.76 20.3897H213.945L217.337 4.39938H213.153ZM205.237 14.7593C205.237 16.5047 203.993 17.0115 202.353 17.0115H200.091L200.94 13.0139H202.692C203.993 13.0702 205.237 13.2391 205.237 14.7593ZM209.365 14.4778C209.365 10.9869 207.046 9.74825 203.823 9.74825H201.675L202.806 4.39938H198.621L195.229 20.3897H202.07C203.654 20.3897 205.463 20.2771 206.82 19.3762C208.347 18.4191 209.365 16.5047 209.365 14.4778ZM189.857 14.7593C189.857 16.5047 188.613 17.0115 186.973 17.0115H183.581L184.429 13.0139H187.312C188.67 13.0702 189.857 13.2391 189.857 14.7593ZM194.607 4.39938H182.11L178.718 20.3897H186.747C188.33 20.3897 190.14 20.2771 191.497 19.3762C193.08 18.3628 194.041 16.4484 194.041 14.4215C194.041 10.9306 191.723 9.69195 188.5 9.69195H185.164L185.56 7.72131H193.872L194.607 4.39938ZM177.643 14.4778H173.459C173.007 16.3921 171.819 17.4056 170.123 17.4056C168.201 17.4056 167.07 15.998 167.07 13.5769C167.07 10.9869 168.314 7.38349 171.48 7.38349C173.346 7.38349 174.138 8.34065 174.194 10.0861H178.265V9.74825C178.265 6.25741 175.664 4.00525 171.65 4.00525C166.165 4.00525 162.885 8.28435 162.885 13.6332C162.885 18.1375 165.486 20.7838 169.84 20.7838C173.912 20.7838 176.795 18.5317 177.643 14.4778ZM153.725 7.38349C155.931 7.38349 156.779 8.96 156.779 10.9869C156.779 13.5206 155.422 17.4056 152.312 17.4056C150.276 17.4056 149.089 16.0543 149.089 13.7458C149.089 11.0432 150.446 7.38349 153.725 7.38349ZM161.02 10.8743C161.02 6.48262 158.136 4.06155 153.895 4.06155C148.297 4.06155 144.904 8.28435 144.904 13.6895C144.904 18.2502 147.562 20.8401 152.029 20.8401C157.74 20.8401 161.02 16.2795 161.02 10.8743ZM129.92 20.3897H134.161L136.819 7.89022H144.452L145.187 4.39938H133.313L129.92 20.3897ZM121.099 7.77761H123.474C124.775 7.77761 125.962 7.94653 125.962 9.52304C125.962 11.2685 124.718 11.7752 123.078 11.7752H120.251L121.099 7.77761ZM117.65 4.39938L114.258 20.3897H118.442L119.573 15.0408H122.739C124.322 15.0408 126.132 14.9282 127.489 14.0274C129.072 13.0139 130.033 11.0995 130.033 9.07261C130.033 5.58176 127.715 4.34307 124.492 4.34307H117.65V4.39938ZM114.71 4.39938H101.931L98.5384 20.3897H111.487L112.222 16.8989H103.458L104.136 13.7458H112.109L112.787 10.4802H104.815L105.38 7.72131H113.975L114.71 4.39938ZM98.6515 4.39938H94.4107L93.1667 10.1987H87.5689L88.8128 4.39938H84.572L81.1794 20.3897H85.4202L86.8338 13.8021H92.4316L91.018 20.3897H95.2588L98.6515 4.39938ZM80.614 11.1559C80.614 6.65154 78.0129 4.00525 73.659 4.00525C69.7575 4.00525 66.9868 6.03219 65.9691 9.63565H70.2099C70.7753 8.17174 71.8496 7.38349 73.3763 7.38349C75.1292 7.38349 76.2035 8.50957 76.4297 10.4802H71.2842L70.6057 13.7458H76.0904C75.525 15.6602 74.281 17.4056 72.0758 17.4056C70.2099 17.4056 69.4182 16.4484 69.3617 14.703H65.2905V15.0408C65.2905 18.5317 67.8916 20.7838 71.9062 20.7838C77.3344 20.7838 80.614 16.5047 80.614 11.1559Z" fill="#024F85"/>
<path fill-rule="evenodd" clip-rule="evenodd" d="M91.6179 27C88.0238 27 85.3977 28.54 83.6817 30.6845C81.9768 32.815 81.1757 35.5321 81.1757 37.9168C81.1757 40.5566 82.3728 42.1115 83.8556 42.9799C85.3024 43.8273 86.9794 44 87.9667 44C94.5602 44 98.4089 38.6578 98.4089 33.0832C98.4089 30.4434 97.2118 28.8887 95.729 28.0201C94.2823 27.1727 92.6053 27 91.6179 27ZM85.6071 37.3284C85.6071 35.6231 86.1486 33.9331 87.1006 32.6803C88.0476 31.4339 89.3852 30.6344 91.0093 30.6344C91.7181 30.6344 92.4592 30.8081 93.0139 31.251C93.5505 31.6797 93.9774 32.4116 93.9774 33.6716C93.9774 35.1041 93.5425 36.8013 92.6388 38.1266C91.7442 39.439 90.4102 40.3656 88.5752 40.3656C87.8665 40.3656 87.1254 40.1919 86.5707 39.749C86.0341 39.3203 85.6071 38.5884 85.6071 37.3284Z" fill="#024F85"/>
<path fill-rule="evenodd" clip-rule="evenodd" d="M76.1392 27.3994H67.6858L64 43.6008H71.6316C75.3018 43.6008 77.3873 42.4472 78.5412 41.0426C79.6786 39.6583 79.8425 38.1123 79.8425 37.4334C79.8425 36.8467 79.7229 36.2479 79.3827 35.7162C79.1907 35.4158 78.9364 35.1496 78.6146 34.9239C79.6114 34.2919 80.8341 33.017 80.8341 30.9187C80.8341 30.108 80.5765 29.2069 79.8155 28.513C79.0581 27.8222 77.8703 27.3994 76.1392 27.3994ZM70.7221 33.3676L71.2718 30.9707H74.7869C75.4424 30.9707 75.8953 31.05 76.169 31.1871C76.2978 31.2515 76.3721 31.3215 76.4163 31.39C76.4596 31.4571 76.4929 31.5514 76.4929 31.6963C76.4929 32.2839 76.2334 32.6765 75.826 32.9417C75.3968 33.2213 74.7834 33.3676 74.1107 33.3676H70.7221ZM69.1904 40.0293L69.9189 36.8759H73.8628C74.368 36.8759 74.7883 36.969 75.0654 37.1335C75.3155 37.2821 75.4561 37.4879 75.4561 37.8117C75.4561 38.5697 75.147 39.1038 74.6767 39.4605C74.1917 39.8283 73.503 40.0293 72.7359 40.0293H69.1904Z" fill="#024F85"/>
<path d="M115.66 27.3994H103.249L101.159 36.5737C100.786 38.2298 100.462 39.2279 100.078 39.8119C99.8941 40.0915 99.7086 40.2568 99.5132 40.3573C99.3161 40.4587 99.0725 40.5127 98.743 40.5127C98.3262 40.5127 98.0244 40.4531 97.9123 40.4139L97.4028 40.2358L96.6204 43.6208L97.0483 43.7484C97.6777 43.9362 98.4306 44 99.2163 44C100.982 44 102.329 43.2871 103.336 42.0466C104.324 40.8291 104.975 39.1183 105.432 37.1165L106.836 30.9707H110.471L107.586 43.6008H111.975L115.66 27.3994Z" fill="#024F85"/>
<path d="M130.459 27.3994H117.825L114.139 43.6008H118.526L121.411 30.9707H129.662L130.459 27.3994Z" fill="#024F85"/>
<path fill-rule="evenodd" clip-rule="evenodd" d="M139.583 27.3994H134.951L125.091 43.6008H129.797L131.668 40.4484H136.977L137.316 43.6008H142L139.583 27.3994ZM133.703 36.8771L136.107 32.7002L136.7 36.8771H133.703Z" fill="#024F85"/>
</svg>
