<svg width="60" height="60" viewBox="0 0 60 60" xmlns="http://www.w3.org/2000/svg">
<path d="M30.5 3C17.542 3 7 13.541 7 26.4973C7 31.6733 8.65093 36.5827 11.7741 40.6945C14.5787 44.3872 18.4767 47.2059 22.8362 48.714L28.4982 58.6449C28.8258 59.4634 29.6185 60 30.5 60C31.3815 60 32.1742 59.4634 32.5018 58.6449L38.1638 48.714C42.5233 47.2059 46.4213 44.3872 49.2259 40.6945C52.3491 36.5827 54 31.6733 54 26.4973C54 13.541 43.458 3 30.5 3ZM35.9301 44.9031C35.2961 45.0899 34.7828 45.557 34.5372 46.1705L30.5 54.1512L26.4628 46.1707C26.2174 45.557 25.7039 45.0901 25.0699 44.9034C16.9693 42.5184 11.3118 34.9494 11.3118 26.4975C11.3118 15.9183 19.9196 7.31175 30.5 7.31175C41.0803 7.31175 49.6882 15.9183 49.6882 26.4975C49.6882 34.9492 44.0307 42.5182 35.9301 44.9031Z" fill="#024F85"/>
<path d="M30.5 13.6711C23.4264 13.6711 17.6719 19.425 17.6719 26.4978C17.6719 33.5705 23.4264 39.3244 30.5 39.3244C37.5736 39.3244 43.3281 33.5705 43.3281 26.4978C43.3281 19.425 37.5736 13.6711 30.5 13.6711ZM30.5 35.0128C25.8043 35.0128 21.9839 31.1929 21.9839 26.4976C21.9839 21.8024 25.8041 17.9825 30.5 17.9825C35.1957 17.9825 39.0161 21.8022 39.0161 26.4976C39.0161 31.1929 35.1957 35.0128 30.5 35.0128Z" fill="#024F85"/>
</svg>
