<svg width="60" height="60" viewBox="0 0 60 60" xmlns="http://www.w3.org/2000/svg">
<ellipse cx="31.7227" cy="30.5172" rx="23.7618" ry="23.5862" fill="#F8902F"/>
<path d="M27.7618 3C14.6594 3 4 13.541 4 26.4973C4 31.6733 5.66932 36.5827 8.82723 40.6945C11.6631 44.3872 15.6046 47.2059 20.0126 48.714L25.7377 58.6449C26.0689 59.4634 26.8704 60 27.7618 60C28.6531 60 29.4547 59.4634 29.7859 58.6449L35.511 48.714C39.919 47.2059 43.8605 44.3872 46.6963 40.6945C49.8542 36.5827 51.5236 31.6733 51.5236 26.4973C51.5236 13.541 40.8641 3 27.7618 3ZM33.2523 44.9031C32.6113 45.0899 32.0923 45.557 31.844 46.1705L27.7618 54.1512L23.6796 46.1707C23.4315 45.557 22.9122 45.0901 22.2712 44.9034C14.0803 42.5184 8.35987 34.9495 8.35987 26.4975C8.35987 15.9183 17.0636 7.31175 27.7618 7.31175C38.46 7.31175 47.1637 15.9183 47.1637 26.4975C47.1637 34.9492 41.4432 42.5182 33.2523 44.9031Z" fill="#012640"/>
<path d="M27.762 13.6711C20.6097 13.6711 14.791 19.425 14.791 26.4977C14.791 33.5704 20.6097 39.3243 27.762 39.3243C34.9144 39.3243 40.7331 33.5704 40.7331 26.4977C40.7331 19.425 34.9144 13.6711 27.762 13.6711ZM27.762 35.0128C23.014 35.0128 19.1511 31.1929 19.1511 26.4975C19.1511 21.8023 23.0138 17.9824 27.762 17.9824C32.5101 17.9824 36.373 21.8021 36.373 26.4975C36.373 31.1929 32.5101 35.0128 27.762 35.0128Z" fill="#012640"/>
</svg>
