<svg width="18" height="18" viewBox="0 0 18 18" xmlns="http://www.w3.org/2000/svg">
<path fill-rule="evenodd" clip-rule="evenodd" d="M14.833 16.7781L8.9993 10.9444L3.16559 16.7782C2.62861 17.3151 1.75805 17.3151 1.22108 16.7782C0.684114 16.2412 0.684119 15.3706 1.22109 14.8337L7.05475 9L1.22115 3.1664C0.684186 2.62943 0.684081 1.75876 1.22106 1.22179C1.75803 0.684814 2.6287 0.684917 3.16567 1.22189L8.99927 7.05548L14.8329 1.22183C15.3699 0.68485 16.2405 0.684847 16.7774 1.22182C17.3144 1.75879 17.3144 2.62935 16.7774 3.16632L10.9438 8.99998L16.7774 14.8336C17.3144 15.3706 17.3143 16.2412 16.7774 16.7781C16.2405 17.3151 15.3699 17.3151 14.833 16.7781Z"/>
</svg>
