<svg width="20" height="18" viewBox="0 0 20 18" xmlns="http://www.w3.org/2000/svg">
<path d="M9.26385 11.9742C7.947 11.8367 6.75966 11.5121 5.74311 10.7165C5.61698 10.6175 5.48675 10.522 5.37165 10.4115C4.92671 9.98382 4.88188 9.49402 5.23395 8.98927C5.53514 8.55734 6.04075 8.44179 6.56628 8.6898C6.66804 8.73787 6.765 8.79788 6.85787 8.86233C8.75237 10.1651 11.3549 10.201 13.2566 8.9209C13.445 8.77633 13.6464 8.65847 13.8798 8.59829C14.3336 8.48167 14.7568 8.6485 15.0004 9.04589C15.2786 9.49972 15.2751 9.94269 14.9323 10.295C14.4064 10.8352 13.7739 11.226 13.0712 11.4988C12.4067 11.7566 11.6789 11.8864 10.9586 11.9726C11.0673 12.091 11.1185 12.1492 11.1865 12.2175C12.1646 13.2011 13.147 14.1805 14.1219 15.167C14.454 15.5032 14.5234 15.92 14.3405 16.3109C14.1406 16.7382 13.693 17.0194 13.2541 16.9893C12.976 16.9701 12.7591 16.8315 12.5665 16.6373C11.8283 15.894 11.0763 15.1643 10.3532 14.4069C10.1427 14.1867 10.0415 14.2284 9.85574 14.4196C9.11317 15.1846 8.35849 15.9379 7.59937 16.687C7.25851 17.0233 6.85288 17.0838 6.45758 16.8917C6.03737 16.6879 5.76998 16.2586 5.79061 15.8272C5.80485 15.5354 5.94824 15.3125 6.14838 15.1125C7.11636 14.1452 8.08167 13.1754 9.04734 12.2065C9.11121 12.1421 9.17081 12.0737 9.26385 11.9742Z"/>
<path d="M10.0647 8.60466C7.71546 8.59665 5.78911 6.64761 5.80281 4.29282C5.81633 1.91202 7.74393 -0.00657068 10.1163 1.69134e-05C12.4935 0.00642647 14.4015 1.95262 14.3896 4.35816C14.3775 6.70815 12.4378 8.61285 10.0647 8.60466ZM12.1997 4.29851C12.1956 3.1293 11.2652 2.19849 10.0992 2.19743C8.92344 2.19618 7.98463 3.1439 7.99371 4.32379C8.00242 5.48855 8.94087 6.41277 10.1101 6.4085C11.2757 6.40441 12.2036 5.46754 12.1997 4.29851Z"/>
</svg>
