<svg width="20" height="17" viewBox="0 0 20 17" xmlns="http://www.w3.org/2000/svg">
<path d="M19 2.67034C18.3375 2.95379 17.6266 3.14602 16.8798 3.23184C17.6424 2.79089 18.2261 2.09148 18.5028 1.26065C17.7875 1.66899 16.9978 1.96551 16.1565 2.12624C15.4828 1.43226 14.5244 1 13.4615 1C11.4223 1 9.76881 2.5965 9.76881 4.56443C9.76881 4.84354 9.80143 5.11614 9.86443 5.37681C6.79601 5.228 4.07515 3.80854 2.25412 1.65161C1.9358 2.17728 1.75471 2.78979 1.75471 3.44361C1.75471 4.68064 2.40709 5.77213 3.39692 6.41071C2.79177 6.39117 2.22262 6.23043 1.72435 5.96325V6.00778C1.72435 7.73461 2.99762 9.1758 4.68592 9.5038C4.37659 9.58417 4.05042 9.6287 3.71297 9.6287C3.47453 9.6287 3.24394 9.6059 3.01786 9.56245C3.488 10.9798 4.85127 12.0104 6.46648 12.0387C5.20333 12.9944 3.61062 13.5624 1.88071 13.5624C1.58265 13.5624 1.28906 13.545 1 13.5135C2.63433 14.5268 4.57459 15.1176 6.65995 15.1176C13.4525 15.1176 17.1655 9.68519 17.1655 4.97389L17.1531 4.51232C17.8786 4.0127 18.5062 3.38497 19 2.67034Z"/>
</svg>
