<svg width="20" height="17" viewBox="0 0 20 17" xmlns="http://www.w3.org/2000/svg">
<path d="M19.895 12.743C19.8695 12.6923 19.8476 12.6489 19.8257 12.6127C19.4791 11.9936 18.8151 11.2296 17.8373 10.3281L17.8154 10.3064L17.8045 10.2955L17.7935 10.2846H17.7826C17.3375 9.86466 17.0565 9.58225 16.9398 9.43743C16.7245 9.16226 16.6771 8.88348 16.7939 8.60107C16.8778 8.38745 17.1915 7.93488 17.7315 7.24697C18.0161 6.88128 18.2423 6.58802 18.4101 6.36716C19.6105 4.78134 20.1322 3.76757 19.9717 3.32947L19.9096 3.2281C19.8695 3.16655 19.7601 3.10862 19.5886 3.05793C19.4134 3.00724 19.1909 2.99638 18.9209 3.03259L15.9219 3.05431C15.8744 3.03621 15.8051 3.03983 15.7139 3.05793C15.6227 3.07965 15.5789 3.09052 15.5789 3.09052L15.5278 3.11586L15.4877 3.14844C15.4512 3.17017 15.4147 3.20637 15.3746 3.25706C15.3345 3.30775 15.298 3.3693 15.2724 3.43809C14.9441 4.27083 14.5756 5.04564 14.156 5.76252C13.9006 6.18975 13.6635 6.55905 13.4482 6.87404C13.233 7.18904 13.0542 7.41713 12.9082 7.56558C12.7623 7.71402 12.631 7.8335 12.5106 7.9204C12.3938 8.01091 12.3026 8.04712 12.2406 8.03264C12.1786 8.01815 12.1202 8.00367 12.0618 7.99281C11.9633 7.93126 11.8867 7.84798 11.8283 7.73937C11.7699 7.63075 11.7298 7.49679 11.7079 7.33748C11.686 7.17455 11.6751 7.03697 11.6714 6.91749C11.6678 6.80163 11.6714 6.63508 11.6751 6.42147C11.6824 6.20785 11.686 6.06303 11.686 5.987C11.686 5.72631 11.6897 5.44029 11.7006 5.13253C11.7116 4.82478 11.7189 5.08909 11.7261 4.91168C11.7334 4.73427 11.7371 4.54238 11.7371 4.34324C11.7371 4.14411 11.7261 3.98842 11.7006 3.87256C11.6751 3.76033 11.6386 3.64809 11.5912 3.54309C11.5437 3.43809 11.4708 3.35482 11.3759 3.29327C11.281 3.23534 11.1643 3.18827 11.0256 3.15207C10.6571 3.06879 10.1901 3.02534 9.62099 3.0181C8.32943 3.00362 7.50123 3.08689 7.13274 3.26792C6.9868 3.34396 6.85545 3.44533 6.7387 3.5793C6.61466 3.73136 6.59641 3.81464 6.68763 3.82912C7.10355 3.89067 7.39908 4.03911 7.5742 4.27445L7.63623 4.39755C7.68366 4.48807 7.73473 4.64737 7.78216 4.87185C7.82959 5.09995 7.86243 5.34977 7.87702 5.62494C7.90986 6.1282 7.90986 6.05217 7.87702 6.41061C7.84054 6.76905 7.8077 7.04783 7.77851 7.24697C7.74568 7.4461 7.7019 7.60903 7.63623 7.73213C7.5742 7.85523 7.53042 7.93126 7.51218 7.96022C7.49029 7.98919 7.47569 8.00367 7.4611 8.01091C7.36989 8.0435 7.27868 8.0616 7.18017 8.0616C7.08166 8.0616 6.96491 8.01453 6.82627 7.91678C6.68763 7.81902 6.54169 7.68868 6.39575 7.51851C6.24616 7.34834 6.07833 7.113 5.88861 6.80887C5.70254 6.50474 5.50553 6.1463 5.30486 5.73355L5.13703 5.43304C5.03123 5.24115 4.88894 4.95875 4.71016 4.58944C4.52774 4.22014 4.37085 3.86532 4.23221 3.51775C4.17749 3.37292 4.09357 3.2643 3.98047 3.18827L3.92939 3.15569C3.89655 3.12672 3.83818 3.09776 3.76156 3.06879C3.68494 3.03621 3.60468 3.01448 3.52076 3L0.667668 3.02172C0.375791 3.02172 0.178775 3.08689 0.0729692 3.21724L0.0328361 3.27879C0.0109454 3.31499 2.78355e-08 3.3693 2.78355e-08 3.44533C2.78355e-08 3.52137 0.0218907 3.6155 0.0620238 3.72412C0.470651 4.70892 0.926709 5.64304 1.4156 6.54819C1.9045 7.45334 2.33137 8.17746 2.69256 8.72779C3.05376 9.27812 3.42225 9.79949 3.79805 10.2883C4.17384 10.7771 4.42193 11.092 4.54233 11.2296C4.66273 11.3672 4.76124 11.4722 4.83056 11.541L5.0896 11.7908C5.25743 11.9574 5.50188 12.1529 5.82294 12.3846C6.14765 12.6163 6.5052 12.8444 6.89559 13.0689C7.28962 13.2934 7.74568 13.4744 8.26376 13.6156C8.78549 13.7568 9.29262 13.8147 9.78517 13.7858H10.9819C11.2263 13.764 11.4087 13.688 11.5328 13.5577L11.5729 13.507C11.6021 13.4672 11.6276 13.402 11.6495 13.3151C11.6751 13.2282 11.686 13.1341 11.686 13.0291C11.6787 12.7322 11.7006 12.4643 11.7553 12.2289C11.8064 11.99 11.8648 11.8125 11.9341 11.6931C11.9998 11.5736 12.0764 11.4722 12.1567 11.3889C12.2406 11.3057 12.299 11.255 12.3354 11.2405C12.3683 11.2224 12.3975 11.2115 12.4194 11.2043C12.5872 11.15 12.7806 11.2043 13.0068 11.3636C13.233 11.5265 13.4446 11.7256 13.6416 11.9646C13.8386 12.2036 14.0758 12.4679 14.3567 12.7648C14.634 13.0617 14.8784 13.2825 15.0864 13.4273L15.2943 13.5504C15.433 13.6337 15.6154 13.7097 15.838 13.7785C16.0605 13.8473 16.2539 13.8654 16.4217 13.8292L19.0887 13.7894C19.3514 13.7894 19.5594 13.7459 19.7017 13.6591C19.8476 13.5722 19.9352 13.478 19.9607 13.373C19.9899 13.268 19.9899 13.1522 19.9644 13.0218C19.9425 12.8879 19.9169 12.7973 19.895 12.743Z"/>
</svg>
