<svg width="1768" height="1927" viewBox="0 0 1768 1927" fill="none" xmlns="http://www.w3.org/2000/svg">
<path opacity="0.35" fill-rule="evenodd" clip-rule="evenodd" d="M0.263672 1927L297.834 1714.51L719.973 1701.43L1260.57 1192.72L1467.57 623.219L1547.93 546.854L1487.44 357.9L1768 0.292969V1.91357L1488.94 357.612L1768 391.836V392.844L1488.71 358.592L1548.82 546.375L1768 477.701V478.749L1549.02 547.362L1564.29 867.869L1768 638.019V639.526L1565.1 868.455L1768 842.456V843.464L1564.54 869.535L1631.68 1041.59L1768 898.15V899.601L1632.36 1042.32L1768 1098.55V1099.63L1631.78 1043.16L1505.03 1369.65L1768 1196.59V1197.78L1504.87 1370.95L1604.62 1443.99L1768 1413.32V1414.34L1605.73 1444.8L1768 1563.62V1564.86L1604.38 1445.05L1494.59 1465.66L1468.57 1714.31L1768 1627.58V1628.62L1468.85 1715.28L1632.86 1927H1631.6L1468.16 1716.02L1390.14 1927H1389.07L1467.1 1715.98L1349.5 1772.27L1380.68 1927H1379.66L1348.57 1772.72L1026.23 1927H1023.91L1348.37 1771.71L1330.67 1683.89L1017.79 1927H1016.17L1329.48 1683.55L720.264 1702.42L30.3418 1927H27.1113L716.693 1702.53L298.168 1715.5L1.98242 1927H0.263672ZM1768 1727.13L1660.38 1927H1659.24L1768 1725.02V1727.13ZM1493.56 1465.85L1467.73 1712.81L1384.17 1486.38L1493.56 1465.85ZM1493.67 1464.81L1385.06 1485.2L1503.36 1372.23L1493.67 1464.81ZM1494.7 1464.62L1504.4 1371.84L1603.27 1444.24L1494.7 1464.62ZM1370.32 894.422L1504.07 1369.35L1630.96 1042.5L1563.52 869.666L1370.32 894.422ZM1548.05 548.115L1563.2 866.092L1468.59 623.631L1548.05 548.115ZM1563.15 868.705L1468.02 624.918L1370.43 893.4L1563.15 868.705ZM1261.6 1192.82L1369.62 895.63L1503.12 1369.67L1261.6 1192.82ZM1262.15 1194.47L1503.22 1370.98L1383.68 1485.14L1262.15 1194.47ZM723.66 1701.31L1382.78 1486.76L1330.61 1682.51L723.66 1701.31ZM1382.83 1485.69L722.146 1700.75L1260.82 1193.86L1382.83 1485.69ZM1349.3 1771.26L1467.37 1714.75L1383.58 1487.65L1331.51 1683.02L1349.3 1771.26Z" fill="#FDBC84"/>
</svg>
